# Blender v2.81 (sub 16) OBJ File: 'catgame.blend'
# www.blender.org
o Cube.002_Cube.106
v -0.753200 -0.321619 -0.328112
v -0.720349 0.608972 -0.196638
v -0.606677 -0.240527 -0.419689
v -0.573826 0.546011 -0.308567
v 0.696818 -0.275338 -0.321573
v 0.696818 0.608972 -0.196638
v 0.550295 -0.194246 -0.413151
v 0.550295 0.546011 -0.308567
v -0.720349 0.623244 -0.297656
v -0.753200 -0.307347 -0.429130
v 0.696818 -0.261066 -0.422591
v 0.696818 0.623244 -0.297656
v -0.568763 0.529299 -0.284408
v -0.596725 -0.229536 -0.391617
v 0.538724 -0.184964 -0.385319
v 0.539080 0.532827 -0.283910
v -0.330315 0.445121 -0.264113
v 0.341022 0.445121 -0.264113
v -0.330315 -0.311248 0.155694
v 0.341022 -0.311248 0.124045
v -0.128182 0.445121 -0.266524
v -0.128182 -0.111971 0.316960
v 0.134318 0.445121 -0.266524
v 0.134318 -0.111971 0.316960
v -0.260980 -0.311248 0.155694
v -0.260980 0.445121 -0.264113
v 0.257105 0.445121 -0.264113
v 0.257105 -0.311248 0.124045
v -0.330315 -0.111971 0.317019
v -0.260980 -0.111971 0.316999
v 0.257105 -0.111971 0.310699
v 0.134962 -0.111971 0.315700
v 0.341022 -0.111971 0.307263
v -0.182108 -0.311248 0.298452
v -0.330315 -0.311248 0.297217
v -0.260980 -0.311248 0.297794
v 0.257105 -0.311248 0.294984
v 0.171856 -0.311248 0.290927
v 0.341022 -0.311248 0.298977
v -0.330368 -0.111092 0.280300
v -0.330368 0.380468 -0.262514
v 0.257053 0.380468 -0.262514
v 0.340970 0.380468 -0.262514
v 0.340970 -0.288357 0.262258
v 0.340970 -0.288357 0.087326
v -0.261032 -0.288357 0.118975
v -0.330368 -0.288357 0.118975
v -0.261032 0.380468 -0.262514
v -0.128234 0.380468 -0.264926
v 0.134266 -0.111092 0.280241
v -0.128234 -0.111092 0.280241
v 0.134266 0.380468 -0.264926
v 0.134910 -0.111092 0.278981
v -0.182160 -0.288357 0.261733
v -0.261032 -0.288357 0.261076
v 0.257053 -0.288357 0.087326
v 0.257053 -0.288357 0.258265
v -0.330368 -0.288357 0.260498
v -0.261032 -0.111092 0.280280
v 0.257053 -0.111092 0.273980
v 0.171803 -0.288357 0.254208
v 0.340970 -0.111092 0.270544
vt 0.375000 0.000000
vt 0.625000 0.000000
vt 0.625000 0.250000
vt 0.375000 0.250000
vt 0.375000 0.250000
vt 0.625000 0.250000
vt 0.625000 0.500000
vt 0.375000 0.500000
vt 0.375000 0.500000
vt 0.625000 0.500000
vt 0.625000 0.750000
vt 0.375000 0.750000
vt 0.375000 0.750000
vt 0.625000 0.750000
vt 0.625000 1.000000
vt 0.375000 1.000000
vt 0.368571 0.724152
vt 0.131429 0.724152
vt 0.131429 0.724152
vt 0.368571 0.724152
vt 0.625000 0.500000
vt 0.875000 0.500000
vt 0.875000 0.750000
vt 0.625000 0.750000
vt 0.368571 0.525848
vt 0.131429 0.525848
vt 0.125000 0.500000
vt 0.375000 0.500000
vt 0.125000 0.750000
vt 0.375000 0.750000
vt 0.131429 0.525848
vt 0.368571 0.525848
vt 0.875000 0.000000
vt 0.875000 0.631998
vt 1.000000 0.637399
vt 1.000000 0.000000
vt 0.250000 0.000000
vt 0.250000 0.622095
vt 0.500000 1.000000
vt 0.500000 0.000000
vt 0.750000 1.000000
vt 0.750000 0.000000
vt 0.000000 0.000000
vt 0.000000 0.622063
vt 0.750656 1.000000
vt 0.000000 0.777530
vt 0.250000 0.776623
vt 0.398481 1.000000
vt 0.875000 0.731289
vt 1.000000 0.725012
vt 0.788214 1.000000
vt 0.875000 0.000000
vt 1.000000 0.000000
vt 1.000000 0.637399
vt 0.875000 0.631998
vt 0.000000 1.000000
vt 0.250000 1.000000
vt 0.875000 1.000000
vt 1.000000 1.000000
vt 0.250000 0.000000
vt 0.500000 0.000000
vt 0.500000 1.000000
vt 0.250000 0.622095
vt 0.750000 0.000000
vt 0.750000 1.000000
vt 0.000000 0.000000
vt 0.000000 0.622063
vt 0.750656 1.000000
vt 0.250000 0.776623
vt 0.000000 0.777530
vt 0.398481 1.000000
vt 1.000000 0.725012
vt 0.875000 0.731289
vt 0.788214 1.000000
vt 0.250000 1.000000
vt 0.000000 1.000000
vt 1.000000 1.000000
vt 0.875000 1.000000
vn 0.0000 0.9902 0.1399
vn 0.0322 -0.9897 -0.1398
vn -0.0000 -0.1399 0.9902
vn 1.0000 0.0000 0.0000
vn -0.9174 0.0559 -0.3941
vn -0.9994 0.0346 0.0049
vn -0.0000 0.1399 -0.9902
vn -0.0353 0.9392 -0.3416
vn 0.0015 -0.8529 -0.5221
vn 0.9611 0.0012 -0.2762
vn 0.0143 0.7170 0.6970
vn 0.0064 0.7226 0.6913
vn 0.0000 0.7233 0.6906
vn 0.0001 0.7219 0.6920
vn 0.0109 0.7203 0.6936
vn -0.0040 -0.0974 0.9952
vn -0.0029 -0.0938 0.9956
vn -0.0033 -0.0601 0.9982
vn 0.0045 -0.1007 0.9949
vn -0.0139 -0.7362 -0.6767
vn 0.0000 -1.0000 0.0000
vn -0.0062 -0.7419 -0.6704
vn 0.0000 -0.7427 -0.6696
vn -0.0001 -0.7412 -0.6713
vn -0.0106 -0.7396 -0.6730
vn 0.0040 0.1094 -0.9940
vn 0.0029 0.1053 -0.9944
vn 0.0033 0.0675 -0.9977
vn -0.0045 0.1130 -0.9936
vn 0.0000 1.0000 0.0000
vn -1.0000 -0.0001 0.0014
vn -0.7187 -0.5905 -0.3671
vn 1.0000 0.0023 0.0000
vn 1.0000 0.0001 -0.0014
vn 0.6923 -0.6119 -0.3825
vn 0.9599 -0.2663 -0.0876
vn 0.0000 -0.8486 -0.5290
vn -1.0000 -0.0023 0.0000
vn 0.0000 -0.9997 -0.0240
vn -0.9811 -0.1846 -0.0583
vn 1.0000 -0.0011 -0.0010
vn -1.0000 0.0011 0.0010
vn -0.0467 -0.9986 -0.0239
s off
f 12/1/1 9/2/1 2/3/1 6/4/1
f 10/5/2 11/6/2 5/7/2 1/8/2
f 5/9/3 6/10/3 2/11/3 1/12/3
f 11/13/4 12/14/4 6/15/4 5/16/4
f 8/17/5 7/18/5 15/19/5 16/20/5
f 1/21/6 2/22/6 9/23/6 10/24/6
f 4/25/7 3/26/7 10/27/7 9/28/7
f 3/26/7 7/18/7 11/29/7 10/27/7
f 8/17/7 4/25/7 9/28/7 12/30/7
f 7/18/7 8/17/7 12/30/7 11/29/7
f 14/31/7 13/32/7 16/20/7 15/19/7
f 7/18/8 3/26/8 14/31/8 15/19/8
f 4/25/9 8/17/9 16/20/9 13/32/9
f 3/26/10 4/25/10 13/32/10 14/31/10
f 27/33/11 31/34/11 33/35/11 18/36/11
f 26/37/12 30/38/12 22/39/12 21/40/12
f 21/40/13 22/39/13 24/41/13 23/42/13
f 17/43/14 29/44/14 30/38/14 26/37/14
f 23/42/15 24/41/15 32/45/15 31/34/15 27/33/15
f 29/44/16 35/46/16 36/47/16 30/38/16
f 30/38/17 36/47/17 34/48/17 22/39/17
f 31/34/18 37/49/18 39/50/18 33/35/18
f 32/45/19 38/51/19 37/49/19 31/34/19
f 42/52/20 43/53/20 62/54/20 60/55/20
f 35/46/21 19/56/21 25/57/21 36/47/21
f 36/47/21 25/57/21 34/48/21
f 37/49/21 28/58/21 20/59/21 39/50/21
f 38/51/21 28/58/21 37/49/21
f 48/60/22 49/61/22 51/62/22 59/63/22
f 49/61/23 52/64/23 50/65/23 51/62/23
f 41/66/24 48/60/24 59/63/24 40/67/24
f 52/64/25 42/52/25 60/55/25 53/68/25 50/65/25
f 40/67/26 59/63/26 55/69/26 58/70/26
f 59/63/27 51/62/27 54/71/27 55/69/27
f 60/55/28 62/54/28 44/72/28 57/73/28
f 53/68/29 60/55/29 57/73/29 61/74/29
f 58/70/30 55/69/30 46/75/30 47/76/30
f 55/69/30 54/71/30 46/75/30
f 57/73/30 44/72/30 45/77/30 56/78/30
f 61/74/30 57/73/30 56/78/30
f 35/46/31 29/44/31 40/67/31 58/70/31
f 28/58/32 38/51/32 61/74/32 56/78/32
f 39/50/33 20/59/33 45/77/33 44/72/33
f 33/35/34 39/50/34 44/72/34 62/54/34
f 34/48/35 25/57/35 46/75/35 54/71/35
f 22/39/36 34/48/36 54/71/36 51/62/36
f 25/57/37 19/56/37 47/76/37 46/75/37
f 19/56/38 35/46/38 58/70/38 47/76/38
f 24/41/39 22/39/39 51/62/39 50/65/39
f 38/51/40 32/45/40 53/68/40 61/74/40
f 20/59/37 28/58/37 56/78/37 45/77/37
f 18/36/41 33/35/41 62/54/41 43/53/41
f 29/44/42 17/43/42 41/66/42 40/67/42
f 32/45/43 24/41/43 50/65/43 53/68/43
