# Blender v2.81 (sub 16) OBJ File: 'catgame.blend'
# www.blender.org
o Cube_Cube.103
v -0.188671 -0.323175 -0.364729
v -0.188671 -0.330362 -0.357777
v 0.051944 -0.323175 -0.364729
v 0.051944 -0.330362 -0.357777
v -0.185156 -0.123998 -0.351308
v -0.185156 -0.131185 -0.344356
v 0.055459 -0.123998 -0.351308
v 0.055459 -0.131185 -0.344356
v -0.184683 -0.153043 -0.349397
v -0.184683 -0.160230 -0.342445
v 0.055932 -0.153043 -0.349397
v 0.055932 -0.160230 -0.342445
v -0.188583 -0.182089 -0.354269
v -0.188583 -0.189275 -0.347317
v 0.052031 -0.182089 -0.354269
v 0.052031 -0.189275 -0.347317
v -0.186569 -0.210304 -0.358299
v -0.186569 -0.217491 -0.351347
v 0.054046 -0.210304 -0.358299
v 0.054046 -0.217491 -0.351347
v -0.187258 -0.236869 -0.357738
v -0.187258 -0.244056 -0.350786
v 0.053357 -0.236869 -0.357738
v 0.053357 -0.244056 -0.350786
v -0.186785 -0.265914 -0.355827
v -0.186785 -0.273101 -0.348875
v 0.053830 -0.265914 -0.355827
v 0.053830 -0.273101 -0.348875
v -0.190685 -0.294960 -0.360699
v -0.190685 -0.302146 -0.353747
v 0.049930 -0.294960 -0.360699
v 0.049930 -0.302146 -0.353747
v -0.089128 0.211564 -0.367404
v -0.089128 0.224251 -0.358186
v -0.089128 0.239933 -0.358186
v -0.089128 0.252620 -0.367404
v -0.099674 0.211564 -0.371772
v -0.106192 0.224251 -0.365254
v -0.106192 0.239933 -0.365254
v -0.099674 0.252620 -0.371772
v -0.078582 0.211564 -0.371772
v -0.072064 0.224251 -0.365254
v -0.072064 0.239933 -0.365254
v -0.078582 0.252620 -0.371772
v -0.240425 0.238449 -0.358958
v -0.240425 0.225607 -0.358958
v 0.068591 0.238449 -0.358958
v 0.068591 0.225607 -0.358958
v -0.252558 -0.368354 0.396785
v -0.363230 0.364962 0.396785
v -0.218619 0.068110 -0.396785
v -0.284385 0.303716 -0.396785
v 0.120444 -0.368354 0.396785
v 0.196019 0.310653 0.396785
v 0.085819 0.068110 -0.396785
v 0.136388 0.291857 -0.396785
v -0.396785 0.396785 -0.396785
v -0.220960 -0.385343 -0.396785
v 0.091961 -0.385343 -0.396785
v 0.227464 0.336163 -0.396785
v -0.284385 0.303716 -0.376819
v -0.274560 0.079551 -0.376819
v 0.139432 0.079551 -0.376819
v 0.136388 0.291857 -0.376819
v 0.068591 0.225607 -0.376819
v 0.068591 0.238449 -0.376819
v -0.240425 0.238449 -0.376819
v -0.240425 0.225607 -0.376819
v -0.094627 0.209245 -0.376819
v -0.089128 0.208504 -0.376819
v -0.101765 0.211564 -0.376819
v -0.076491 0.211564 -0.376819
v -0.083629 0.209245 -0.376819
v -0.110982 0.224251 -0.376819
v -0.067273 0.224251 -0.376819
v -0.106192 0.238449 -0.365254
v -0.106192 0.225607 -0.365254
v -0.090992 0.225607 -0.358958
v -0.072064 0.238449 -0.365254
v -0.087264 0.238449 -0.358958
v -0.072064 0.225607 -0.365254
v -0.087264 0.225607 -0.358958
v -0.090992 0.238449 -0.358958
v -0.067273 0.225607 -0.376819
v -0.067273 0.239933 -0.376819
v -0.067273 0.238449 -0.376819
v -0.110982 0.239933 -0.376819
v -0.110982 0.238449 -0.376819
v -0.110982 0.225607 -0.376819
v -0.101765 0.252620 -0.376819
v -0.076491 0.252620 -0.376819
v -0.089128 0.255679 -0.376819
v -0.083629 0.254939 -0.376819
v -0.094627 0.254939 -0.376819
v -0.277020 -0.396785 0.396785
v -0.396785 0.396785 0.396785
v 0.227464 0.336163 0.396785
v 0.145885 -0.396785 0.396785
v -0.252558 -0.368354 0.371621
v -0.363230 0.364962 0.371621
v 0.196019 0.310653 0.371621
v 0.120444 -0.368354 0.371621
v 0.145885 -0.396785 -0.396785
v -0.277020 -0.396785 -0.396785
v 0.139432 0.079551 -0.396785
v -0.274560 0.079551 -0.396785
v 0.091961 -0.385343 -0.366167
v -0.220960 -0.385343 -0.366167
v 0.085819 0.068110 -0.366167
v -0.218619 0.068110 -0.366167
v 0.053830 -0.289828 -0.366167
v -0.186785 -0.275916 -0.366167
v 0.053830 -0.275916 -0.366167
v -0.186785 -0.289828 -0.366167
v -0.188671 -0.324566 -0.366167
v 0.051944 -0.338478 -0.366167
v -0.188671 -0.338478 -0.366167
v 0.051944 -0.324566 -0.366167
v 0.049930 -0.314161 -0.366167
v -0.190685 -0.314161 -0.366167
v 0.049930 -0.300249 -0.366167
v -0.190685 -0.300249 -0.366167
v 0.053357 -0.258934 -0.366167
v -0.187258 -0.258934 -0.366167
v -0.186569 -0.231827 -0.366167
v 0.053357 -0.245022 -0.366167
v -0.187258 -0.245022 -0.366167
v 0.054046 -0.217915 -0.366167
v -0.186569 -0.217915 -0.366167
v 0.054046 -0.231827 -0.366167
v 0.052031 -0.207510 -0.366167
v -0.188583 -0.207510 -0.366167
v 0.052031 -0.193598 -0.366167
v -0.188583 -0.193598 -0.366167
v 0.055932 -0.183177 -0.366167
v -0.184683 -0.183177 -0.366167
v -0.184683 -0.169266 -0.366167
v 0.055932 -0.169266 -0.366167
v -0.185156 -0.152283 -0.366167
v 0.055459 -0.152283 -0.366167
v -0.185156 -0.138371 -0.366167
v 0.055459 -0.138371 -0.366167
vt 0.375000 0.000000
vt 0.625000 0.000000
vt 0.625000 0.023086
vt 0.375000 0.003956
vt 0.375000 0.750000
vt 0.625000 0.750000
vt 0.625000 1.000000
vt 0.375000 1.000000
vt 0.375000 0.000000
vt 0.625000 0.000000
vt 0.625000 0.060019
vt 0.375000 0.040888
vt 0.375000 0.750000
vt 0.625000 0.750000
vt 0.625000 1.000000
vt 0.375000 1.000000
vt 0.375000 0.000000
vt 0.625000 0.000000
vt 0.625000 0.065278
vt 0.375000 0.046147
vt 0.375000 0.750000
vt 0.625000 0.750000
vt 0.625000 1.000000
vt 0.375000 1.000000
vt 0.375000 0.000000
vt 0.625000 0.000000
vt 0.625000 0.051871
vt 0.375000 0.032741
vt 0.375000 0.750000
vt 0.625000 0.750000
vt 0.625000 1.000000
vt 0.375000 1.000000
vt 0.375000 0.000000
vt 0.625000 0.000000
vt 0.625000 0.040781
vt 0.375000 0.021651
vt 0.375000 0.750000
vt 0.625000 0.750000
vt 0.625000 1.000000
vt 0.375000 1.000000
vt 0.375000 0.000000
vt 0.625000 0.000000
vt 0.625000 0.042324
vt 0.375000 0.023193
vt 0.375000 0.750000
vt 0.625000 0.750000
vt 0.625000 1.000000
vt 0.375000 1.000000
vt 0.375000 0.000000
vt 0.625000 0.000000
vt 0.625000 0.047583
vt 0.375000 0.028452
vt 0.375000 0.750000
vt 0.625000 0.750000
vt 0.625000 1.000000
vt 0.375000 1.000000
vt 0.375000 0.000000
vt 0.625000 0.000000
vt 0.625000 0.034177
vt 0.375000 0.015046
vt 0.375000 0.750000
vt 0.625000 0.750000
vt 0.625000 1.000000
vt 0.375000 1.000000
vt 0.750000 0.400000
vt 0.750000 0.600000
vt 0.625000 0.600000
vt 0.625000 0.582704
vt 0.736347 0.582704
vt 0.736347 0.418928
vt 0.625000 0.418928
vt 0.625000 0.400000
vt 0.750000 0.800000
vt 0.710544 0.926259
vt 0.654911 0.895715
vt 0.625000 0.800000
vt 0.750000 0.200000
vt 0.625000 0.200000
vt 0.540282 0.400000
vt 0.565178 0.200000
vt 0.565178 0.800000
vt 0.540282 0.600000
vt 0.540282 0.418928
vt 0.595089 0.895715
vt 0.875000 0.200000
vt 0.875000 0.400000
vt 0.875000 0.600000
vt 0.875000 0.800000
vt 0.875000 0.418928
vt 0.763653 0.418928
vt 0.763652 0.582703
vt 0.875000 0.582704
vt 0.845089 0.895715
vt 0.789456 0.926259
vt 0.375000 0.000000
vt 0.625000 0.000000
vt 0.625000 0.005627
vt 0.375000 0.005627
vt 0.375000 0.750000
vt 0.625000 0.750000
vt 0.625000 0.876090
vt 0.375000 0.876090
vt 0.375000 0.000000
vt 0.625000 0.000000
vt 0.625000 0.250000
vt 0.375000 0.250000
vt 0.609216 0.479949
vt 0.390772 0.473834
vt 0.390772 0.473834
vt 0.609216 0.479949
vt 0.375000 0.500000
vt 0.625000 0.500000
vt 0.625000 0.750000
vt 0.375000 0.750000
vt 0.615480 0.762040
vt 0.615784 0.987816
vt 0.615784 0.987816
vt 0.615480 0.762040
vt 0.125000 0.500000
vt 0.125000 0.750000
vt 0.875000 0.500000
vt 0.875000 0.750000
vt 0.609698 0.270276
vt 0.390188 0.276256
vt 0.375376 0.492822
vt 0.375367 0.257177
vt 0.375367 0.257177
vt 0.375376 0.492822
vt 0.390188 0.276256
vt 0.609698 0.270276
vt 0.546514 0.292191
vt 0.533892 0.292226
vt 0.536375 0.355922
vt 0.535018 0.355906
vt 0.522494 0.360284
vt 0.520298 0.363758
vt 0.519652 0.366446
vt 0.520490 0.369154
vt 0.522942 0.372690
vt 0.535851 0.377409
vt 0.537213 0.377430
vt 0.539819 0.444285
vt 0.625000 0.744373
vt 0.375000 0.744373
vt 0.552943 0.444668
vt 0.550116 0.377629
vt 0.551605 0.377650
vt 0.564128 0.373270
vt 0.566291 0.369769
vt 0.566908 0.367057
vt 0.566043 0.364327
vt 0.563565 0.360769
vt 0.550690 0.356077
vt 0.549207 0.356062
vt 0.248910 0.750000
vt 0.261208 0.748017
vt 0.265083 0.744373
vt 0.875000 0.744373
vt 0.875000 0.750000
vt 0.754105 0.750000
vt 0.766403 0.748016
vt 0.770278 0.744373
vt 0.595089 0.104285
vt 0.959718 0.400000
vt 0.934822 0.200000
vt 0.540282 0.582703
vt 0.734917 0.744373
vt 0.738792 0.748017
vt 0.751090 0.750000
vt 0.904911 0.895715
vt 0.934822 0.800000
vt 0.845089 0.104285
vt 0.789456 0.073741
vt 0.959718 0.600000
vt 0.959718 0.582703
vt 0.959718 0.418928
vt 0.710544 0.073741
vt 0.654911 0.104285
vt 0.904911 0.104285
vt 0.375000 0.879105
vt 0.625000 0.879105
vt 0.625000 1.000000
vt 0.375000 1.000000
vt 0.229722 0.744373
vt 0.233597 0.748016
vt 0.245895 0.750000
vt 0.125000 0.750000
vt 0.125000 0.744373
vt 0.384142 0.984108
vt 0.625000 1.000000
vt 0.375000 1.000000
vt 0.384517 0.765837
vt 0.384517 0.765837
vt 0.384142 0.984108
vt 0.390380 0.468776
vt 0.389837 0.281309
vt 0.389837 0.281309
vt 0.383281 0.293831
vt 0.382836 0.293243
vt 0.383057 0.457644
vt 0.390380 0.468776
vt 0.382038 0.459101
vt 0.382497 0.458591
vt 0.382293 0.292851
vt 0.625000 0.689981
vt 0.375000 0.709112
vt 0.375000 0.726807
vt 0.125000 0.750000
vt 0.125000 0.726807
vt 0.875000 0.715823
vt 0.875000 0.750000
vt 0.625000 0.715823
vt 0.125000 0.750000
vt 0.125000 0.709112
vt 0.875000 0.689981
vt 0.875000 0.750000
vt 0.378098 0.283039
vt 0.377653 0.282447
vt 0.377321 0.283478
vt 0.376875 0.282919
vt 0.376913 0.461687
vt 0.377371 0.461253
vt 0.377713 0.459447
vt 0.378172 0.458990
vt 0.381511 0.289121
vt 0.381066 0.288522
vt 0.379867 0.287847
vt 0.379422 0.287255
vt 0.378879 0.286872
vt 0.378433 0.286287
vt 0.378517 0.461449
vt 0.378976 0.460961
vt 0.379536 0.460024
vt 0.379995 0.459531
vt 0.380289 0.288894
vt 0.380431 0.459546
vt 0.380890 0.459047
vt 0.380735 0.289485
vt 0.381232 0.457267
vt 0.381691 0.456773
vt 0.381848 0.292266
vt 0.383517 0.457134
vt 0.375000 0.746044
vt 0.125000 0.750000
vt 0.125000 0.746044
vt 0.625000 0.707676
vt 0.375000 0.703853
vt 0.125000 0.750000
vt 0.125000 0.703853
vt 0.625000 0.709219
vt 0.375000 0.728349
vt 0.625000 0.726914
vt 0.125000 0.750000
vt 0.125000 0.728349
vt 0.875000 0.707676
vt 0.875000 0.750000
vt 0.625000 0.702417
vt 0.375000 0.721547
vt 0.875000 0.726914
vt 0.875000 0.750000
vt 0.875000 0.698129
vt 0.875000 0.750000
vt 0.625000 0.698129
vt 0.875000 0.702417
vt 0.875000 0.750000
vt 0.875000 0.684722
vt 0.875000 0.750000
vt 0.625000 0.684722
vt 0.375000 0.734954
vt 0.875000 0.709219
vt 0.875000 0.750000
vt 0.375000 0.717259
vt 0.125000 0.750000
vt 0.125000 0.717259
vt 0.125000 0.750000
vt 0.125000 0.734954
vt 0.125000 0.750000
vt 0.125000 0.721547
vn 1.0000 0.0000 0.0000
vn 0.0000 -0.6953 -0.7187
vn 0.3827 -0.0000 -0.9239
vn 0.1270 0.9434 -0.3065
vn 0.3177 -0.5573 -0.7671
vn 0.3177 0.5573 -0.7671
vn 0.7671 -0.5573 -0.3177
vn 0.7671 0.5573 -0.3177
vn 0.9239 0.0000 -0.3827
vn 0.3065 0.9434 -0.1270
vn -0.3177 -0.5573 -0.7671
vn -0.3177 0.5573 -0.7671
vn -0.3827 -0.0000 -0.9239
vn -0.1270 0.9434 -0.3065
vn 0.0000 0.0000 -1.0000
vn -0.9888 -0.1492 0.0000
vn -0.9999 -0.0143 0.0000
vn 0.9939 -0.1106 0.0000
vn -0.0967 -0.9953 0.0000
vn 0.0000 -1.0000 0.0000
vn 0.0967 0.9953 0.0000
vn 0.0000 1.0000 0.0000
vn -0.0282 -0.9996 0.0000
vn 0.9990 0.0438 0.0000
vn -1.0000 0.0000 0.0000
vn 0.3065 -0.9434 -0.1270
vn -0.7671 -0.5573 -0.3177
vn -0.3065 0.9434 -0.1270
vn -0.1270 -0.9434 -0.3065
vn -0.9239 0.0000 -0.3827
vn 0.1270 -0.9434 -0.3065
vn -0.3065 -0.9434 -0.1270
vn -0.7671 0.5573 -0.3177
vn 0.0000 0.0000 1.0000
vn -0.9939 0.1106 0.0000
vn 0.9888 0.1492 0.0000
vn -0.9999 -0.0135 0.0000
vn 1.0000 -0.0052 0.0000
vn 0.0000 -0.7187 0.6953
vn 0.0000 0.7187 -0.6953
vn 0.0000 -0.7188 0.6953
s off
f 1/1/1 2/2/1 117/3/1 115/4/1
f 3/5/2 4/6/2 2/7/2 1/8/2
f 5/9/1 6/10/1 139/11/1 141/12/1
f 7/13/2 8/14/2 6/15/2 5/16/2
f 9/17/1 10/18/1 136/19/1 137/20/1
f 11/21/2 12/22/2 10/23/2 9/24/2
f 13/25/1 14/26/1 132/27/1 134/28/1
f 15/29/2 16/30/2 14/31/2 13/32/2
f 17/33/1 18/34/1 125/35/1 129/36/1
f 19/37/2 20/38/2 18/39/2 17/40/2
f 21/41/1 22/42/1 124/43/1 127/44/1
f 23/45/2 24/46/2 22/47/2 21/48/2
f 25/49/1 26/50/1 114/51/1 112/52/1
f 27/53/2 28/54/2 26/55/2 25/56/2
f 29/57/1 30/58/1 120/59/1 122/60/1
f 31/61/2 32/62/2 30/63/2 29/64/2
f 35/65/3 34/66/3 38/67/3 77/68/3 78/69/3 83/70/3 76/71/3 39/72/3
f 33/73/4 70/74/4 69/75/4 37/76/4
f 36/77/5 35/65/5 39/72/5 40/78/5
f 34/66/6 33/73/6 37/76/6 38/67/6
f 40/78/7 39/72/7 87/79/7 90/80/7
f 38/67/8 37/76/8 71/81/8 74/82/8
f 39/72/9 76/71/9 88/83/9 87/79/9
f 37/76/10 69/84/10 71/81/10
f 44/85/11 43/86/11 35/65/11 36/77/11
f 42/87/12 41/88/12 33/73/12 34/66/12
f 43/86/13 79/89/13 80/90/13 82/91/13 81/92/13 42/87/13 34/66/13 35/65/13
f 41/88/14 73/93/14 70/94/14 33/73/14
f 45/95/1 46/96/1 68/97/1 67/98/1
f 47/99/15 48/100/15 82/101/15 80/102/15
f 95/103/16 96/104/16 57/105/16 104/106/16
f 56/107/17 105/108/17 63/109/17 64/110/17
f 103/111/18 60/112/18 97/113/18 98/114/18
f 54/115/19 50/116/19 100/117/19 101/118/19
f 104/119/20 103/111/20 98/114/20 95/120/20
f 60/112/21 57/121/21 96/122/21 97/113/21
f 52/123/15 106/124/15 104/106/15 57/105/15
f 59/125/22 58/126/22 108/127/22 107/128/22
f 56/107/15 52/123/15 57/105/15 60/112/15
f 105/108/15 56/107/15 60/112/15 103/111/15
f 62/129/15 61/130/15 67/131/15 68/132/15 89/133/15 74/134/15 71/135/15 69/136/15 70/137/15 73/138/15 72/139/15 75/140/15 84/141/15 65/142/15 64/110/15 63/109/15
f 105/108/22 106/124/22 62/129/22 63/109/22
f 52/123/23 56/107/23 64/110/23 61/130/23
f 106/124/24 52/123/24 61/130/24 62/129/24
f 65/143/25 48/100/25 47/99/25 66/144/25
f 64/110/15 65/142/15 66/145/15 86/146/15 85/147/15 91/148/15 93/149/15 92/150/15 94/151/15 90/152/15 87/153/15 88/154/15 67/131/15 61/130/15
f 66/144/20 47/99/20 80/155/20 79/156/20 86/157/20
f 68/158/22 46/159/22 78/160/22 77/161/22 89/162/22
f 94/163/26 40/78/26 90/80/26
f 85/164/27 43/86/27 44/85/27 91/165/27
f 77/68/9 38/67/9 74/82/9 89/166/9
f 84/167/22 81/168/22 82/169/22 48/100/22 65/143/22
f 73/170/28 41/88/28 72/171/28
f 93/172/29 44/85/29 36/77/29 92/173/29
f 75/174/30 42/87/30 81/92/30 84/175/30
f 79/89/30 43/86/30 85/164/30 86/176/30
f 92/177/31 36/77/31 40/78/31 94/178/31
f 91/165/32 44/85/32 93/179/32
f 83/180/15 78/181/15 46/182/15 45/183/15
f 88/184/20 76/185/20 83/186/20 45/187/20 67/188/20
f 72/171/33 41/88/33 42/87/33 75/174/33
f 49/189/34 50/116/34 96/190/34 95/191/34
f 54/115/34 53/192/34 98/114/34 97/113/34
f 53/192/34 49/189/34 95/191/34 98/114/34
f 50/116/34 54/115/34 97/113/34 96/190/34
f 102/193/34 101/118/34 100/117/34 99/194/34
f 53/192/35 54/115/35 101/118/35 102/193/35
f 49/189/22 53/192/22 102/193/22 99/194/22
f 50/116/36 49/189/36 99/194/36 100/117/36
f 58/126/15 59/125/15 103/111/15 104/106/15
f 55/195/15 51/196/15 106/124/15 105/108/15
f 51/196/15 58/126/15 104/106/15 106/124/15
f 59/125/15 55/195/15 105/108/15 103/111/15
f 110/197/15 141/198/15 139/199/15 140/200/15 109/201/15 107/128/15 135/202/15 138/203/15 137/204/15 108/127/15
f 55/195/37 59/125/37 107/128/37 109/201/37
f 51/196/20 55/195/20 109/201/20 110/197/20
f 58/126/38 51/196/38 110/197/38 108/127/38
f 140/205/25 8/14/25 7/13/25 142/206/25
f 126/207/39 23/45/39 21/208/39 127/209/39
f 120/210/40 30/211/40 32/62/40 119/212/40
f 142/206/39 7/13/39 5/213/39 141/214/39
f 139/215/40 6/216/40 8/14/40 140/205/40
f 108/127/15 122/217/15 120/218/15 115/219/15 117/220/15 116/221/15 107/128/15
f 118/222/15 115/219/15 120/218/15 119/223/15 107/128/15 116/221/15
f 121/224/15 122/217/15 108/127/15 134/225/15 132/226/15 127/227/15 124/228/15 112/229/15 114/230/15 111/231/15 107/128/15 119/223/15
f 113/232/15 112/229/15 124/228/15 123/233/15 107/128/15 111/231/15
f 126/234/15 127/227/15 125/235/15 130/236/15 107/128/15 123/233/15
f 128/237/15 129/238/15 125/235/15 127/227/15 132/226/15 131/239/15 107/128/15 130/236/15
f 133/240/15 134/225/15 108/127/15 137/204/15 136/241/15 135/202/15 107/128/15 131/239/15
f 109/201/15 140/200/15 142/242/15 141/198/15 110/197/15
f 118/243/41 3/5/41 1/244/41 115/245/41
f 123/246/25 24/46/25 23/45/25 126/207/25
f 138/247/39 11/21/39 9/248/39 137/249/39
f 130/250/25 20/38/25 19/37/25 128/251/25
f 116/252/25 4/6/25 3/5/25 118/243/25
f 128/251/39 19/37/39 17/253/39 129/254/39
f 124/255/40 22/256/40 24/46/40 123/246/40
f 111/257/25 28/54/25 27/53/25 113/258/25
f 117/259/40 2/260/40 4/6/40 116/252/40
f 132/261/40 14/262/40 16/30/40 131/263/40
f 114/264/40 26/265/40 28/54/40 111/257/40
f 136/266/40 10/267/40 12/22/40 135/268/40
f 119/212/25 32/62/25 31/61/25 121/269/25
f 125/270/40 18/271/40 20/38/40 130/250/40
f 135/268/25 12/22/25 11/21/25 138/247/25
f 133/272/39 15/29/39 13/273/39 134/274/39
f 121/269/39 31/61/39 29/275/39 122/276/39
f 113/258/39 27/53/39 25/277/39 112/278/39
f 131/263/25 16/30/25 15/29/25 133/272/25
