# Blender v2.81 (sub 16) OBJ File: 'catgame.blend'
# www.blender.org
o Cube_Cube.098
v -0.005330 -0.158480 -0.312372
v -0.005330 0.095499 -0.312372
v 0.016011 -0.158480 -0.312372
v 0.016011 0.095499 -0.312372
v -0.141729 -0.195939 0.192154
v -0.141729 -0.195939 -0.192154
v -0.052973 -0.195939 0.192154
v -0.052973 -0.195939 -0.192154
v 0.028935 -0.195939 0.192154
v 0.028935 -0.195939 -0.192154
v 0.117690 -0.195939 0.192154
v 0.117690 -0.195939 -0.192154
v -0.182883 -0.214548 0.356887
v -0.182883 0.132956 0.356887
v -0.182883 -0.214548 -0.356887
v -0.182883 0.132956 -0.356887
v 0.182883 -0.214548 0.356887
v 0.182883 0.132956 0.356887
v 0.182883 -0.214548 -0.356887
v 0.182883 0.132956 -0.356887
v -0.182883 -0.214548 0.245131
v -0.182883 0.214548 0.245131
v 0.182883 -0.214548 0.245131
v 0.182883 0.214548 0.245131
v -0.182883 0.214548 -0.243743
v 0.182883 -0.214548 -0.243743
v -0.182883 -0.214548 -0.243743
v 0.182883 0.214548 -0.243743
v 0.028935 0.214548 0.192154
v 0.117690 0.214548 0.192154
v 0.028935 0.214548 0.028859
v 0.028935 0.214548 -0.192154
v 0.117690 0.214548 0.157995
v 0.117690 0.214548 -0.192154
v -0.141729 0.214548 0.192154
v -0.130997 0.214548 0.192154
v -0.052973 0.214548 0.192154
v -0.141729 0.214548 -0.192154
v -0.052973 0.214548 0.112490
v -0.052973 0.214548 -0.192154
v 0.016011 0.095499 -0.356887
v 0.016011 -0.158480 -0.356887
v -0.005330 -0.158480 -0.356887
v -0.005330 -0.035732 -0.356887
v -0.005330 0.095499 -0.356887
v -0.002826 -0.084431 -0.333027
v -0.002826 -0.068434 -0.333027
v -0.050131 -0.103767 -0.410684
v -0.050131 -0.049098 -0.410684
v 0.015761 -0.084431 -0.333027
v 0.015761 -0.068434 -0.333027
v 0.063371 -0.103767 -0.410684
v 0.063371 -0.049098 -0.410684
v -0.002826 -0.084431 -0.375083
v -0.002826 -0.068434 -0.375083
v 0.015761 -0.084431 -0.375083
v 0.015761 -0.068434 -0.375083
v -0.050131 -0.049098 -0.375997
v 0.063371 -0.103767 -0.375997
v -0.050131 -0.103767 -0.375997
v 0.063371 -0.049098 -0.375997
v -0.119455 -0.100374 -0.375564
v -0.137261 -0.104439 -0.375564
v -0.151541 -0.115826 -0.375564
v -0.159465 -0.132282 -0.375564
v -0.159465 -0.150546 -0.375564
v -0.151541 -0.167001 -0.375564
v -0.137261 -0.178389 -0.375564
v -0.119455 -0.182453 -0.375564
v -0.101649 -0.178389 -0.375564
v -0.087369 -0.167001 -0.375564
v -0.119455 -0.141414 -0.413568
v -0.079444 -0.150546 -0.375564
v -0.079444 -0.132282 -0.375564
v -0.087369 -0.115826 -0.375564
v -0.101649 -0.104439 -0.375564
v -0.099450 -0.136848 -0.394593
v -0.119455 -0.100374 -0.349251
v -0.137261 -0.104439 -0.349251
v -0.151541 -0.115826 -0.349251
v -0.159465 -0.132282 -0.349251
v -0.159465 -0.150546 -0.349251
v -0.151541 -0.167001 -0.349251
v -0.137261 -0.178389 -0.349251
v -0.119455 -0.182453 -0.349251
v -0.101649 -0.178389 -0.349251
v -0.087369 -0.167001 -0.349251
v -0.079444 -0.150546 -0.349251
v -0.079444 -0.132282 -0.349251
v -0.087369 -0.115826 -0.349251
v -0.101649 -0.104439 -0.349251
vt 0.375000 0.000000
vt 0.375000 0.028958
vt 0.495825 0.028958
vt 0.625000 0.028958
vt 0.625000 0.000000
vt 0.375000 0.750000
vt 0.375000 1.000000
vt 0.625000 1.000000
vt 0.625000 0.750000
vt 0.375000 0.000000
vt 0.375000 0.250000
vt 0.518774 0.250000
vt 0.518774 0.000000
vt 0.375000 0.500000
vt 0.518774 0.500000
vt 0.375000 0.750000
vt 0.518774 0.750000
vt 0.518773 0.698177
vt 0.375000 1.000000
vt 0.518774 1.000000
vt 0.518774 0.969773
vt 0.125000 0.500000
vt 0.125000 0.750000
vt 0.375000 0.000000
vt 0.375000 0.250000
vt 0.518774 0.250000
vt 0.518774 0.106226
vt 0.518774 0.000000
vt 0.375000 0.500000
vt 0.518774 0.500000
vt 0.375000 0.750000
vt 0.518774 0.750000
vt 0.518774 0.727779
vt 0.375000 1.000000
vt 0.518774 1.000000
vt 0.125000 0.500000
vt 0.125000 0.750000
vt 0.375000 0.187500
vt 0.625000 0.187500
vt 0.625000 0.250000
vt 0.375000 0.250000
vt 0.503643 0.371357
vt 0.415337 0.371357
vt 0.415337 0.385943
vt 0.375000 0.500000
vt 0.375000 0.625000
vt 0.625000 0.625000
vt 0.625000 0.750000
vt 0.375000 0.750000
vt 0.625000 1.000000
vt 0.375000 1.000000
vt 0.125000 0.625000
vt 0.125000 0.750000
vt 0.875000 0.625000
vt 0.875000 0.750000
vt 0.625000 0.562500
vt 0.875000 0.562500
vt 0.839536 0.618227
vt 0.846871 0.618227
vt 0.846870 0.569096
vt 0.786207 0.569095
vt 0.786207 0.608042
vt 0.730223 0.597351
vt 0.730223 0.569095
vt 0.669559 0.569095
vt 0.669559 0.613860
vt 0.125000 0.562500
vt 0.375000 0.562500
vt 0.375000 0.000000
vt 0.625000 0.000000
vt 0.625000 0.125000
vt 0.375000 0.125000
vt 0.625000 0.500000
vt 0.125000 0.500000
vt 0.875000 0.500000
vt 0.669559 0.618227
vt 0.730223 0.618227
vt 0.786207 0.618227
vt 0.375000 0.721042
vt 0.625000 0.721042
vt 0.125000 0.721042
vt 0.125000 0.750000
vt 0.598053 0.385943
vt 0.598053 0.371357
vt 0.875000 0.750000
vt 0.875000 0.721042
vt 0.375000 0.187500
vt 0.625000 0.187500
vt 0.625000 0.250000
vt 0.375000 0.250000
vt 0.625000 0.500000
vt 0.375000 0.500000
vt 0.375000 0.625000
vt 0.625000 0.625000
vt 0.625000 0.750000
vt 0.375000 0.750000
vt 0.625000 0.562500
vt 0.875000 0.562500
vt 0.875000 0.625000
vt 0.125000 0.625000
vt 0.125000 0.750000
vt 0.875000 0.750000
vt 0.125000 0.562500
vt 0.375000 0.562500
vt 0.375000 0.000000
vt 0.625000 0.000000
vt 0.625000 0.125000
vt 0.375000 0.125000
vt 0.125000 0.500000
vt 0.875000 0.500000
vt 0.250000 0.490000
vt 0.250000 0.250000
vt 0.354132 0.466233
vt 0.437640 0.399638
vt 0.483983 0.303405
vt 0.483983 0.196595
vt 0.437640 0.100362
vt 0.354132 0.033767
vt 0.250000 0.010000
vt 0.145868 0.033767
vt 0.062360 0.100362
vt 0.016017 0.196595
vt 0.133009 0.276703
vt 0.016017 0.303405
vt 0.062360 0.399638
vt 0.145868 0.466233
vt 0.016017 0.303405
vt 0.016017 0.196595
vt 0.354132 0.466233
vt 0.250000 0.490000
vt 0.145868 0.033767
vt 0.250000 0.010000
vt 0.437640 0.100362
vt 0.483983 0.196595
vt 0.062360 0.399638
vt 0.062360 0.100362
vt 0.437640 0.399638
vt 0.354132 0.033767
vt 0.145868 0.466233
vt 0.483983 0.303405
vn 1.0000 0.0000 -0.0000
vn 0.0000 0.0000 -1.0000
vn 0.0000 0.0000 1.0000
vn -1.0000 0.0000 0.0000
vn 0.0000 1.0000 0.0000
vn 0.0000 -1.0000 0.0000
vn 0.0000 0.8077 0.5897
vn 0.0000 0.8111 -0.5849
vn 0.0000 0.0472 0.9989
vn 0.0000 -0.0472 0.9989
vn 0.0192 0.0000 0.9998
vn -0.0193 0.0000 0.9998
vn -0.1532 0.6714 -0.7251
vn -0.4294 0.5384 -0.7251
vn -0.6205 0.2988 -0.7251
vn -0.6887 0.0000 -0.7251
vn -0.6205 -0.2988 -0.7251
vn -0.4294 -0.5384 -0.7251
vn -0.1532 -0.6714 -0.7251
vn 0.1532 -0.6714 -0.7251
vn 0.4294 -0.5384 -0.7251
vn 0.6205 -0.2988 -0.7251
vn 0.6888 -0.0011 -0.7249
vn 0.6201 0.2998 -0.7249
vn 0.4294 0.5384 -0.7251
vn 0.1532 0.6714 -0.7251
vn -0.2225 0.9749 0.0000
vn 0.2225 -0.9749 0.0000
vn -0.9010 -0.4339 0.0000
vn 0.9010 0.4339 0.0000
vn 0.6235 -0.7818 0.0000
vn -0.6235 0.7818 0.0000
vn -0.6235 -0.7818 0.0000
vn 0.6235 0.7818 0.0000
vn 0.2225 0.9749 0.0000
vn -0.9010 0.4339 0.0000
vn 0.9010 -0.4339 0.0000
vn -0.2225 -0.9749 0.0000
s off
f 1/1/1 43/2/1 44/3/1 45/4/1 2/5/1
f 3/6/2 1/7/2 2/8/2 4/9/2
f 5/10/1 6/11/1 38/12/1 35/13/1
f 6/11/3 8/14/3 40/15/3 38/12/3
f 8/14/4 7/16/4 37/17/4 39/18/4 40/15/4
f 7/16/2 5/19/2 35/20/2 36/21/2 37/17/2
f 6/22/5 5/23/5 7/16/5 8/14/5
f 9/24/1 10/25/1 32/26/1 31/27/1 29/28/1
f 10/25/3 12/29/3 34/30/3 32/26/3
f 12/29/4 11/31/4 30/32/4 33/33/4 34/30/4
f 11/31/2 9/34/2 29/35/2 30/32/2
f 10/36/5 9/37/5 11/31/5 12/29/5
f 27/38/4 25/39/4 16/40/4 15/41/4
f 15/41/2 16/40/2 44/42/2 43/43/2 42/44/2 19/45/2
f 23/46/1 24/47/1 18/48/1 17/49/1
f 17/49/3 18/48/3 14/50/3 13/51/3
f 21/52/6 23/46/6 17/49/6 13/53/6
f 24/47/7 22/54/7 14/55/7 18/48/7
f 28/56/5 25/57/5 22/54/5 36/58/5 35/59/5 38/60/5 40/61/5 39/62/5 31/63/5 32/64/5 34/65/5 33/66/5 24/47/5
f 27/67/6 26/68/6 23/46/6 21/52/6
f 26/68/1 28/56/1 24/47/1 23/46/1
f 13/69/4 14/70/4 22/71/4 21/72/4
f 19/45/1 20/73/1 28/56/1 26/68/1
f 15/74/6 19/45/6 26/68/6 27/67/6
f 20/73/8 16/75/8 25/57/8 28/56/8
f 21/72/4 22/71/4 25/39/4 27/38/4
f 24/47/5 33/66/5 30/76/5 29/77/5 31/63/5 39/62/5 37/78/5 36/58/5 22/54/5
f 42/79/4 3/6/4 4/9/4 41/80/4
f 43/81/5 1/82/5 3/6/5 42/79/5
f 19/45/2 42/44/2 41/83/2 45/84/2 44/42/2 16/40/2 20/73/2
f 41/80/6 4/9/6 2/85/6 45/86/6
f 60/87/4 58/88/4 49/89/4 48/90/4
f 48/90/2 49/89/2 53/91/2 52/92/2
f 56/93/1 57/94/1 51/95/1 50/96/1
f 61/97/9 58/98/9 55/99/9 57/94/9
f 54/100/6 56/93/6 50/96/6 46/101/6
f 57/94/5 55/99/5 47/102/5 51/95/5
f 60/103/10 59/104/10 56/93/10 54/100/10
f 59/104/11 61/97/11 57/94/11 56/93/11
f 46/105/4 47/106/4 55/107/4 54/108/4
f 52/92/1 53/91/1 61/97/1 59/104/1
f 48/109/6 52/92/6 59/104/6 60/103/6
f 53/91/5 49/110/5 58/98/5 61/97/5
f 54/108/12 55/107/12 58/88/12 60/87/12
f 62/111/13 72/112/13 63/113/13
f 63/113/14 72/112/14 64/114/14
f 64/114/15 72/112/15 65/115/15
f 65/115/16 72/112/16 66/116/16
f 66/116/17 72/112/17 67/117/17
f 67/117/18 72/112/18 68/118/18
f 68/118/19 72/112/19 69/119/19
f 69/119/20 72/112/20 70/120/20
f 70/120/21 72/112/21 71/121/21
f 71/121/22 72/112/22 73/122/22
f 73/122/23 72/112/23 77/123/23 74/124/23
f 74/124/24 77/123/24 72/112/24 75/125/24
f 75/125/25 72/112/25 76/126/25
f 76/126/26 72/112/26 62/111/26
f 73/122/1 74/124/1 89/127/1 88/128/1
f 62/111/27 63/113/27 79/129/27 78/130/27
f 69/119/28 70/120/28 86/131/28 85/132/28
f 66/116/29 67/117/29 83/133/29 82/134/29
f 74/124/30 75/125/30 90/135/30 89/127/30
f 70/120/31 71/121/31 87/136/31 86/131/31
f 63/113/32 64/114/32 80/137/32 79/129/32
f 67/117/33 68/118/33 84/138/33 83/133/33
f 75/125/34 76/126/34 91/139/34 90/135/34
f 76/126/35 62/111/35 78/130/35 91/139/35
f 64/114/36 65/115/36 81/140/36 80/137/36
f 71/121/37 73/122/37 88/128/37 87/136/37
f 68/118/38 69/119/38 85/132/38 84/138/38
f 65/115/4 66/116/4 82/134/4 81/140/4
