# Blender v2.81 (sub 16) OBJ File: 'catgame.blend'
# www.blender.org
o Spatula_Cylinder.026
v 0.001597 -0.005188 0.699174
v 0.001597 0.009363 0.699174
v 0.001597 -0.005188 -0.068441
v 0.001597 0.009363 -0.068441
v -0.037377 -0.005188 0.699174
v -0.037377 0.009363 0.699174
v -0.037377 -0.005188 -0.068441
v -0.037377 0.009363 -0.068441
v 0.008100 -0.005188 0.069136
v 0.008100 0.009363 0.069136
v -0.043879 -0.005188 0.069136
v -0.043879 0.009363 0.069136
v -0.046593 -0.008136 -0.055700
v -0.046593 0.012231 -0.055700
v -0.046593 -0.008136 -0.366870
v -0.046593 0.004667 -0.366870
v 0.114194 -0.008136 -0.055700
v 0.114194 0.005776 -0.055700
v 0.035097 -0.008136 -0.366870
v 0.035097 -0.001788 -0.366870
v -0.046593 -0.008136 -0.277298
v -0.046593 0.004667 -0.277298
v 0.097830 -0.008136 -0.277298
v 0.097830 -0.001788 -0.277298
vt 0.375000 0.125011
vt 0.625000 0.125011
vt 0.625000 0.250000
vt 0.375000 0.250000
vt 0.625000 0.500000
vt 0.375000 0.500000
vt 0.375000 0.624989
vt 0.625000 0.624989
vt 0.625000 0.750000
vt 0.375000 0.750000
vt 0.625000 1.000000
vt 0.375000 1.000000
vt 0.125000 0.624989
vt 0.125000 0.750000
vt 0.875000 0.624989
vt 0.875000 0.750000
vt 0.875000 0.500000
vt 0.125000 0.500000
vt 0.375000 0.000000
vt 0.625000 0.000000
vt 0.375000 0.125000
vt 0.625000 0.125000
vt 0.625000 0.250000
vt 0.375000 0.250000
vt 0.625000 0.500000
vt 0.375000 0.500000
vt 0.375000 0.625000
vt 0.625000 0.625000
vt 0.625000 0.750000
vt 0.375000 0.750000
vt 0.625000 1.000000
vt 0.375000 1.000000
vt 0.125000 0.625000
vt 0.125000 0.750000
vt 0.875000 0.625000
vt 0.875000 0.750000
vt 0.875000 0.500000
vt 0.125000 0.500000
vt 0.375000 0.000000
vt 0.625000 0.000000
vn -0.9989 0.0000 0.0472
vn 0.0000 0.0000 1.0000
vn 0.9999 0.0000 -0.0103
vn 0.0000 0.0000 -1.0000
vn 0.0000 1.0000 0.0000
vn 0.0000 -1.0000 0.0000
vn 0.9989 0.0000 0.0472
vn -0.9999 0.0000 -0.0103
vn -1.0000 0.0000 0.0000
vn 0.9973 0.0000 -0.0736
vn 0.0422 0.9985 -0.0356
vn 0.0570 0.9982 -0.0200
vn 0.8191 0.0000 -0.5737
s off
f 9/1/1 10/2/1 4/3/1 3/4/1
f 3/4/2 4/3/2 8/5/2 7/6/2
f 11/7/3 12/8/3 6/9/3 5/10/3
f 5/10/4 6/9/4 2/11/4 1/12/4
f 9/13/5 11/7/5 5/10/5 1/14/5
f 12/8/6 10/15/6 2/16/6 6/9/6
f 8/5/6 4/17/6 10/15/6 12/8/6
f 3/18/5 7/6/5 11/7/5 9/13/5
f 7/6/7 8/5/7 12/8/7 11/7/7
f 1/19/8 2/20/8 10/2/8 9/1/8
f 21/21/9 22/22/9 16/23/9 15/24/9
f 15/24/4 16/23/4 20/25/4 19/26/4
f 23/27/10 24/28/10 18/29/10 17/30/10
f 17/30/2 18/29/2 14/31/2 13/32/2
f 21/33/6 23/27/6 17/30/6 13/34/6
f 24/28/11 22/35/11 14/36/11 18/29/11
f 20/25/12 16/37/12 22/35/12 24/28/12
f 15/38/6 19/26/6 23/27/6 21/33/6
f 19/26/13 20/25/13 24/28/13 23/27/13
f 13/39/9 14/40/9 22/22/9 21/21/9
