# Blender v2.81 (sub 16) OBJ File: 'catgame.blend'
# www.blender.org
o Cube.001_Cube.061
v 0.112188 0.911751 0.308833
v 0.099217 0.751572 0.261957
v 0.112188 1.033649 -0.320033
v 0.099217 0.920678 -0.328230
v -0.122101 0.911751 0.308833
v -0.109130 0.751572 0.261957
v -0.122101 1.033649 -0.320033
v -0.109130 0.920678 -0.328230
v 0.112188 0.748615 0.277211
v 0.112188 0.923238 -0.341435
v -0.122101 0.923238 -0.341435
v -0.122101 0.748615 0.277211
v 0.099217 0.878179 0.286498
v 0.099217 0.994560 -0.313909
v -0.109130 0.994560 -0.313909
v -0.109130 0.878179 0.286498
v 0.112188 0.972700 -0.005600
v 0.112188 0.746982 -0.049352
v -0.122101 0.972700 -0.005600
v -0.122101 0.746982 -0.049352
v 0.099217 0.747181 -0.050377
v -0.109130 0.747181 -0.050377
v 0.099217 0.936370 -0.013705
v -0.109130 0.936370 -0.013705
v 0.112188 0.885384 -0.185649
v -0.122101 1.003174 -0.162816
v 0.099217 0.884204 -0.179558
v 0.099217 0.965465 -0.163807
v 0.112188 1.003174 -0.162816
v -0.122101 0.885384 -0.185649
v -0.109130 0.884204 -0.179558
v -0.109130 0.965465 -0.163807
v 0.112188 0.848554 -0.274350
v -0.122101 1.018412 -0.241425
v 0.099217 0.846684 -0.264702
v 0.099217 0.980013 -0.238858
v 0.112188 1.018412 -0.241425
v -0.122101 0.848554 -0.274350
v -0.109130 0.846684 -0.264702
v -0.109130 0.980013 -0.238858
v -0.119130 -0.022654 0.279912
v -0.106159 0.748340 0.264373
v -0.119130 -0.022654 -0.360660
v -0.106159 0.748340 -0.347209
v 0.115159 -0.022654 0.279912
v 0.102189 0.748340 0.264373
v 0.115159 -0.022654 -0.360660
v 0.102189 0.748340 -0.347209
v -0.119130 0.748340 0.279912
v -0.119130 0.748340 -0.360660
v 0.115159 0.748340 -0.360660
v 0.115159 0.748340 0.279912
v -0.106159 0.014555 0.264373
v -0.106159 0.014555 -0.347209
v 0.102189 0.014555 -0.347209
v 0.102189 0.014555 0.264373
v -0.119130 -0.022654 -0.040374
v -0.119130 0.675385 -0.040374
v 0.115159 -0.022654 -0.040374
v 0.115159 0.675385 -0.040374
v -0.106159 0.675385 -0.041418
v 0.102189 0.675385 -0.041418
v -0.106159 0.014555 -0.041418
v 0.102189 0.014555 -0.041418
v -0.119130 0.748340 -0.200517
v 0.115159 -0.022654 -0.200517
v -0.106159 0.748340 -0.194313
v -0.106159 0.014555 -0.194313
v -0.119130 -0.022654 -0.200517
v 0.115159 0.748340 -0.200517
v 0.102189 0.748340 -0.194313
v 0.102189 0.014555 -0.194313
v -0.119130 0.689622 -0.280588
v 0.115159 -0.022654 -0.280588
v -0.106159 0.689622 -0.270761
v -0.106159 0.014555 -0.270761
v -0.119130 -0.022654 -0.280588
v 0.115159 0.689622 -0.280588
v 0.102189 0.689622 -0.270761
v 0.102189 0.014555 -0.270761
vt 0.375000 0.218750
vt 0.625000 0.218750
vt 0.625000 0.250000
vt 0.375000 0.250000
vt 0.625000 0.500000
vt 0.375000 0.500000
vt 0.375000 0.625000
vt 0.625000 0.625000
vt 0.625000 0.750000
vt 0.375000 0.750000
vt 0.625000 1.000000
vt 0.375000 1.000000
vt 0.125000 0.625000
vt 0.125000 0.750000
vt 0.861159 0.736159
vt 0.638841 0.736159
vt 0.638841 0.736159
vt 0.861159 0.736159
vt 0.861159 0.541631
vt 0.861159 0.513841
vt 0.875000 0.500000
vt 0.875000 0.531250
vt 0.638841 0.513841
vt 0.638841 0.625000
vt 0.875000 0.750000
vt 0.638841 0.625000
vt 0.861159 0.625000
vt 0.861159 0.513841
vt 0.638841 0.513841
vt 0.638841 0.541631
vt 0.638841 0.541631
vt 0.861159 0.625000
vt 0.861159 0.569420
vt 0.861159 0.569420
vt 0.638841 0.569420
vt 0.638841 0.569420
vt 0.625000 0.562500
vt 0.875000 0.625000
vt 0.125000 0.562500
vt 0.375000 0.562500
vt 0.375000 0.000000
vt 0.625000 0.000000
vt 0.625000 0.125000
vt 0.375000 0.125000
vt 0.375000 0.531250
vt 0.625000 0.531250
vt 0.125000 0.531250
vt 0.861159 0.541631
vt 0.875000 0.562500
vt 0.625000 0.187500
vt 0.375000 0.187500
vt 0.125000 0.500000
vt 0.375000 0.218750
vt 0.625000 0.218750
vt 0.625000 0.250000
vt 0.375000 0.250000
vt 0.625000 0.500000
vt 0.375000 0.500000
vt 0.375000 0.625000
vt 0.625000 0.625000
vt 0.625000 0.750000
vt 0.375000 0.750000
vt 0.625000 1.000000
vt 0.375000 1.000000
vt 0.125000 0.625000
vt 0.125000 0.750000
vt 0.861159 0.736159
vt 0.638841 0.736159
vt 0.638841 0.736159
vt 0.861159 0.736159
vt 0.861159 0.541631
vt 0.861159 0.513841
vt 0.875000 0.500000
vt 0.875000 0.531250
vt 0.638841 0.513841
vt 0.638841 0.625000
vt 0.875000 0.750000
vt 0.638841 0.625000
vt 0.861159 0.625000
vt 0.861159 0.513841
vt 0.638841 0.513841
vt 0.638841 0.541631
vt 0.638841 0.541631
vt 0.861159 0.625000
vt 0.861159 0.569420
vt 0.861159 0.569420
vt 0.638841 0.569420
vt 0.638841 0.569420
vt 0.625000 0.562500
vt 0.875000 0.625000
vt 0.125000 0.562500
vt 0.375000 0.562500
vt 0.375000 0.000000
vt 0.625000 0.000000
vt 0.625000 0.125000
vt 0.375000 0.125000
vt 0.375000 0.531250
vt 0.625000 0.531250
vt 0.125000 0.531250
vt 0.861159 0.541631
vt 0.875000 0.562500
vt 0.625000 0.187500
vt 0.375000 0.187500
vt 0.125000 0.500000
vn 1.0000 -0.0000 -0.0000
vn 0.0000 0.1903 -0.9817
vn -1.0000 0.0000 0.0000
vn -0.0000 -0.1903 0.9817
vn 0.0000 0.9817 0.1903
vn -0.4813 -0.5785 -0.6585
vn -0.0000 -0.9817 -0.1903
vn 0.1265 -0.9919 0.0094
vn 0.1136 -0.6895 -0.7153
vn -0.1265 -0.9919 0.0094
vn -0.3276 -0.8687 0.3715
vn -0.1136 -0.6895 -0.7153
vn 0.4813 -0.5785 -0.6585
vn 0.3276 -0.8687 0.3715
vn 0.0000 0.0000 -1.0000
vn -0.0000 -0.0000 1.0000
vn 0.0000 -1.0000 -0.0000
vn -0.4741 0.7043 0.5284
vn 0.0000 1.0000 0.0000
vn 0.1436 0.9638 -0.2246
vn 0.0837 0.9032 0.4210
vn -0.1436 0.9638 -0.2246
vn -0.3477 0.7500 -0.5627
vn -0.0837 0.9032 0.4210
vn 0.4741 0.7043 0.5284
vn 0.3477 0.7500 -0.5627
g Cube.001_Cube.061_None
s off
f 37/1/1 33/2/1 10/3/1 3/4/1
f 3/4/2 10/3/2 11/5/2 7/6/2
f 19/7/3 20/8/3 12/9/3 5/10/3
f 5/10/4 12/9/4 9/11/4 1/12/4
f 17/13/5 19/7/5 5/10/5 1/14/5
f 2/15/2 6/16/2 16/17/2 13/18/2
f 35/19/6 4/20/6 10/21/6 33/22/6
f 4/20/7 8/23/7 11/5/7 10/21/7
f 22/24/8 6/16/8 12/9/8 20/8/8
f 6/16/7 2/15/7 9/25/7 12/9/7
f 24/26/7 23/27/7 13/18/7 16/17/7
f 8/23/4 4/20/4 14/28/4 15/29/4
f 39/30/1 8/23/1 15/29/1 40/31/1
f 21/32/3 2/15/3 13/18/3 23/27/3
f 27/33/3 21/32/3 23/27/3 28/34/3
f 6/16/1 22/24/1 24/26/1 16/17/1
f 32/35/7 28/34/7 23/27/7 24/26/7
f 31/36/9 22/24/9 20/8/9 30/37/9
f 2/15/10 21/32/10 18/38/10 9/25/10
f 29/39/5 26/40/5 19/7/5 17/13/5
f 26/40/3 30/37/3 20/8/3 19/7/3
f 1/41/1 9/42/1 18/43/1 17/44/1
f 34/45/3 38/46/3 30/37/3 26/40/3
f 37/47/5 34/45/5 26/40/5 29/39/5
f 39/30/11 31/36/11 30/37/11 38/46/11
f 40/31/7 36/48/7 28/34/7 32/35/7
f 35/19/3 27/33/3 28/34/3 36/48/3
f 22/24/1 31/36/1 32/35/1 24/26/1
f 21/32/12 27/33/12 25/49/12 18/38/12
f 17/44/1 18/43/1 25/50/1 29/51/1
f 4/20/3 35/19/3 36/48/3 14/28/3
f 15/29/7 14/28/7 36/48/7 40/31/7
f 8/23/13 39/30/13 38/46/13 11/5/13
f 3/52/5 7/6/5 34/45/5 37/47/5
f 7/6/3 11/5/3 38/46/3 34/45/3
f 31/36/1 39/30/1 40/31/1 32/35/1
f 27/33/14 35/19/14 33/22/14 25/49/14
f 29/51/1 25/50/1 33/2/1 37/1/1
f 77/53/3 73/54/3 50/55/3 43/56/3
f 43/56/15 50/55/15 51/57/15 47/58/15
f 59/59/1 60/60/1 52/61/1 45/62/1
f 45/62/16 52/61/16 49/63/16 41/64/16
f 57/65/17 59/59/17 45/62/17 41/66/17
f 42/67/15 46/68/15 56/69/15 53/70/15
f 75/71/18 44/72/18 50/73/18 73/74/18
f 44/72/19 48/75/19 51/57/19 50/73/19
f 62/76/20 46/68/20 52/61/20 60/60/20
f 46/68/19 42/67/19 49/77/19 52/61/19
f 64/78/19 63/79/19 53/70/19 56/69/19
f 48/75/16 44/72/16 54/80/16 55/81/16
f 79/82/3 48/75/3 55/81/3 80/83/3
f 61/84/1 42/67/1 53/70/1 63/79/1
f 67/85/1 61/84/1 63/79/1 68/86/1
f 46/68/3 62/76/3 64/78/3 56/69/3
f 72/87/19 68/86/19 63/79/19 64/78/19
f 71/88/21 62/76/21 60/60/21 70/89/21
f 42/67/22 61/84/22 58/90/22 49/77/22
f 69/91/17 66/92/17 59/59/17 57/65/17
f 66/92/1 70/89/1 60/60/1 59/59/1
f 41/93/3 49/94/3 58/95/3 57/96/3
f 74/97/1 78/98/1 70/89/1 66/92/1
f 77/99/17 74/97/17 66/92/17 69/91/17
f 79/82/23 71/88/23 70/89/23 78/98/23
f 80/83/19 76/100/19 68/86/19 72/87/19
f 75/71/1 67/85/1 68/86/1 76/100/1
f 62/76/3 71/88/3 72/87/3 64/78/3
f 61/84/24 67/85/24 65/101/24 58/90/24
f 57/96/3 58/95/3 65/102/3 69/103/3
f 44/72/1 75/71/1 76/100/1 54/80/1
f 55/81/19 54/80/19 76/100/19 80/83/19
f 48/75/25 79/82/25 78/98/25 51/57/25
f 43/104/17 47/58/17 74/97/17 77/99/17
f 47/58/1 51/57/1 78/98/1 74/97/1
f 71/88/3 79/82/3 80/83/3 72/87/3
f 67/85/26 75/71/26 73/74/26 65/101/26
f 69/103/3 65/102/3 73/54/3 77/53/3
