# Blender v2.81 (sub 16) OBJ File: 'catgame.blend'
# www.blender.org
o Cylinder.001_Cylinder.021
v 0.000000 -0.243800 0.000000
v -0.000000 -0.243800 -0.109750
v 0.000000 0.243800 -0.150031
v 0.104378 -0.243800 -0.033915
v 0.142688 0.243800 -0.046362
v 0.064509 -0.243800 0.088789
v 0.088186 0.243800 0.121377
v -0.064509 -0.243800 0.088789
v -0.088186 0.243800 0.121377
v -0.104378 -0.243800 -0.033915
v -0.142688 0.243800 -0.046362
v 0.131600 0.243800 -0.042759
v -0.000000 0.243800 -0.138372
v 0.081333 0.243800 0.111945
v -0.081333 0.243800 0.111945
v -0.131600 0.243800 -0.042759
v -0.000000 -0.204489 -0.101221
v 0.000000 -0.204489 0.000000
v 0.096267 -0.204489 -0.031279
v 0.059496 -0.204489 0.081890
v -0.059496 -0.204489 0.081890
v -0.096267 -0.204489 -0.031279
vt 0.750000 0.250000
vt 0.750000 0.490000
vt 0.978254 0.324164
vt 0.460517 0.318401
vt 0.250000 0.471350
vt 0.250000 0.471350
vt 0.460517 0.318401
vt 1.000000 0.500000
vt 1.000000 1.000000
vt 0.800000 1.000000
vt 0.800000 0.500000
vt 0.891068 0.055836
vt 0.119894 0.070924
vt 0.380106 0.070924
vt 0.380106 0.070924
vt 0.119894 0.070924
vt 0.600000 1.000000
vt 0.600000 0.500000
vt 0.608932 0.055836
vt 0.039483 0.318401
vt 0.039483 0.318401
vt 0.400000 1.000000
vt 0.400000 0.500000
vt 0.521746 0.324164
vt 0.200000 1.000000
vt 0.200000 0.500000
vt 0.000000 1.000000
vt 0.000000 0.500000
vt 0.478254 0.324164
vt 0.250000 0.490000
vt 0.391068 0.055836
vt 0.108932 0.055836
vt 0.021746 0.324164
vt 0.250000 0.250000
vn 0.0000 -1.0000 0.0000
vn -0.5865 0.0669 0.8072
vn 0.5865 -0.0667 -0.8072
vn 0.0000 0.0669 -0.9978
vn 0.9489 -0.0667 0.3083
vn 0.5865 0.0669 0.8072
vn -0.0000 -0.0667 0.9978
vn -0.9489 0.0669 -0.3083
vn -0.9489 -0.0667 0.3083
vn 0.9489 0.0669 -0.3083
vn -0.5865 -0.0667 -0.8072
vn 0.0000 1.0000 0.0000
s off
f 1/1/1 2/2/1 4/3/1
f 12/4/2 13/5/2 17/6/2 19/7/2
f 2/8/3 3/9/3 5/10/3 4/11/3
f 1/1/1 4/3/1 6/12/1
f 15/13/4 14/14/4 20/15/4 21/16/4
f 4/11/5 5/10/5 7/17/5 6/18/5
f 1/1/1 6/12/1 8/19/1
f 13/5/6 16/20/6 22/21/6 17/6/6
f 6/18/7 7/17/7 9/22/7 8/23/7
f 1/1/1 8/19/1 10/24/1
f 14/14/8 12/4/8 19/7/8 20/15/8
f 8/23/9 9/22/9 11/25/9 10/26/9
f 1/1/1 10/24/1 2/2/1
f 16/20/10 15/13/10 21/16/10 22/21/10
f 10/26/11 11/25/11 3/27/11 2/28/11
f 13/5/12 12/4/12 5/29/12 3/30/12
f 12/4/12 14/14/12 7/31/12 5/29/12
f 14/14/12 15/13/12 9/32/12 7/31/12
f 15/13/12 16/20/12 11/33/12 9/32/12
f 16/20/12 13/5/12 3/30/12 11/33/12
f 18/34/12 19/7/12 17/6/12
f 18/34/12 20/15/12 19/7/12
f 18/34/12 21/16/12 20/15/12
f 18/34/12 22/21/12 21/16/12
f 18/34/12 17/6/12 22/21/12
