# Blender v2.81 (sub 16) OBJ File: 'catgame.blend'
# www.blender.org
o Cylinder_Cylinder.009
v 0.000000 -0.112775 0.000000
v 0.000000 -0.112775 -0.338843
v -0.000000 0.112775 -0.266998
v 0.293447 -0.112775 -0.169421
v 0.231227 0.112775 -0.133499
v 0.293447 -0.112775 0.169422
v 0.231227 0.112775 0.133499
v -0.000000 -0.112775 0.338843
v -0.000000 0.112775 0.266998
v -0.293447 -0.112775 0.169421
v -0.231227 0.112775 0.133499
v -0.293447 -0.112775 -0.169421
v -0.231227 0.112775 -0.133499
v -0.000000 -0.066133 -0.266998
v 0.000000 -0.066133 0.000000
v 0.231227 -0.066133 -0.133499
v 0.231227 -0.066133 0.133499
v -0.000000 -0.066133 0.266998
v -0.231227 -0.066133 0.133499
v -0.231227 -0.066133 -0.133499
vt 0.750000 0.250000
vt 0.750000 0.490000
vt 0.957846 0.370000
vt 0.333333 1.000000
vt 0.500000 1.000000
vt 0.500000 1.000000
vt 0.333333 1.000000
vt 1.000000 0.500000
vt 1.000000 1.000000
vt 0.833333 1.000000
vt 0.833333 0.500000
vt 0.957846 0.130000
vt 0.666667 1.000000
vt 0.666667 1.000000
vt 0.666667 0.500000
vt 0.750000 0.010000
vt 1.000000 1.000000
vt 0.833333 1.000000
vt 0.500000 0.500000
vt 0.542154 0.130000
vt -0.000000 1.000000
vt 0.166667 1.000000
vt 0.166667 1.000000
vt -0.000000 1.000000
vt 0.333333 0.500000
vt 0.542154 0.370000
vt 0.166667 0.500000
vt -0.000000 0.500000
vt 0.250000 0.250000
vt 0.457846 0.370000
vt 0.250000 0.490000
vt 0.457846 0.130000
vt 0.250000 0.010000
vt 0.042154 0.130000
vt 0.042154 0.370000
vn 0.0000 -1.0000 0.0000
vn 0.5000 0.0000 -0.8660
vn 0.4820 0.2659 -0.8348
vn -0.5000 0.0000 -0.8660
vn 0.9640 0.2659 0.0000
vn -0.5000 0.0000 0.8660
vn 0.4820 0.2659 0.8348
vn 0.5000 0.0000 0.8660
vn -0.4820 0.2659 0.8348
vn -1.0000 0.0000 -0.0000
vn -0.9640 0.2659 0.0000
vn 1.0000 0.0000 0.0000
vn -0.4820 0.2659 -0.8348
vn 0.0000 1.0000 0.0000
g Cylinder_Cylinder.009_None
s off
f 1/1/1 2/2/1 4/3/1
f 11/4/2 9/5/2 18/6/2 19/7/2
f 2/8/3 3/9/3 5/10/3 4/11/3
f 1/1/1 4/3/1 6/12/1
f 9/5/4 7/13/4 17/14/4 18/6/4
f 4/11/5 5/10/5 7/13/5 6/15/5
f 1/1/1 6/12/1 8/16/1
f 5/10/6 3/9/6 14/17/6 16/18/6
f 6/15/7 7/13/7 9/5/7 8/19/7
f 1/1/1 8/16/1 10/20/1
f 3/21/8 13/22/8 20/23/8 14/24/8
f 8/19/9 9/5/9 11/4/9 10/25/9
f 1/1/1 10/20/1 12/26/1
f 7/13/10 5/10/10 16/18/10 17/14/10
f 10/25/11 11/4/11 13/22/11 12/27/11
f 1/1/1 12/26/1 2/2/1
f 13/22/12 11/4/12 19/7/12 20/23/12
f 12/27/13 13/22/13 3/21/13 2/28/13
f 15/29/14 16/30/14 14/31/14
f 15/29/14 17/32/14 16/30/14
f 15/29/14 18/33/14 17/32/14
f 15/29/14 19/34/14 18/33/14
f 15/29/14 20/35/14 19/34/14
f 15/29/14 14/31/14 20/35/14
