# Blender v2.81 (sub 16) OBJ File: 'catgame.blend'
# www.blender.org
o Siink.001_Cube.051
v -2.299725 0.137241 -0.151827
v -2.255580 0.121281 -0.307548
v -2.321908 0.142726 -0.317832
v -2.321908 0.050205 -0.260691
v -2.321908 0.121123 -0.151777
v -2.321908 0.073091 -0.307398
v -2.308198 0.163319 -0.151908
v -2.280915 0.199254 -0.307792
v -2.335619 0.163319 -0.151908
v -2.362902 0.199254 -0.307792
v -2.344092 0.137241 -0.151827
v -2.388237 0.121281 -0.307548
v -2.233353 0.114543 -0.260892
v -2.267179 0.218645 -0.261217
v -2.376639 0.218645 -0.261217
v -2.410464 0.114543 -0.260892
v -2.233353 0.115184 -0.199172
v -2.267179 0.219285 -0.199497
v -2.376639 0.219285 -0.199497
v -2.321908 0.050845 -0.198972
v -2.410464 0.115184 -0.199172
v -2.299725 0.136956 -0.179306
v -2.308198 0.163034 -0.179388
v -2.335619 0.163034 -0.179388
v -2.344092 0.136956 -0.179306
v -2.321908 0.120838 -0.179256
v -1.653683 0.130880 -0.150837
v -1.609538 0.114920 -0.306558
v -1.675866 0.136365 -0.316842
v -1.675866 0.043844 -0.259701
v -1.675866 0.114762 -0.150786
v -1.675866 0.066730 -0.306408
v -1.662156 0.156958 -0.150918
v -1.634873 0.192893 -0.306801
v -1.689576 0.156958 -0.150918
v -1.716859 0.192893 -0.306801
v -1.698050 0.130880 -0.150837
v -1.742195 0.114920 -0.306558
v -1.587311 0.108182 -0.259902
v -1.621136 0.212284 -0.260227
v -1.730597 0.212284 -0.260227
v -1.764422 0.108182 -0.259902
v -1.587311 0.108823 -0.198182
v -1.621136 0.212924 -0.198507
v -1.730597 0.212924 -0.198507
v -1.675866 0.044484 -0.197981
v -1.764422 0.108823 -0.198182
v -1.653683 0.130595 -0.178316
v -1.662156 0.156673 -0.178397
v -1.689576 0.156673 -0.178397
v -1.698050 0.130595 -0.178316
v -1.675866 0.114477 -0.178266
v 1.747317 0.137241 -0.151827
v 1.791462 0.121281 -0.307548
v 1.725134 0.142726 -0.317832
v 1.725134 0.050205 -0.260691
v 1.725134 0.121123 -0.151777
v 1.725134 0.073091 -0.307398
v 1.738844 0.163319 -0.151908
v 1.766127 0.199254 -0.307792
v 1.711424 0.163319 -0.151908
v 1.684141 0.199254 -0.307792
v 1.702950 0.137241 -0.151827
v 1.658805 0.121281 -0.307548
v 1.813689 0.114543 -0.260892
v 1.779864 0.218645 -0.261217
v 1.670403 0.218645 -0.261217
v 1.636578 0.114543 -0.260892
v 1.813689 0.115184 -0.199172
v 1.779864 0.219285 -0.199497
v 1.670403 0.219285 -0.199497
v 1.725134 0.050845 -0.198972
v 1.636578 0.115184 -0.199172
v 1.747317 0.136956 -0.179306
v 1.738844 0.163034 -0.179388
v 1.711424 0.163034 -0.179388
v 1.702950 0.136956 -0.179306
v 1.725134 0.120838 -0.179256
v 2.393360 0.130880 -0.150837
v 2.437505 0.114920 -0.306558
v 2.371176 0.136365 -0.316842
v 2.371176 0.043844 -0.259701
v 2.371176 0.114762 -0.150786
v 2.371176 0.066730 -0.306408
v 2.384887 0.156958 -0.150918
v 2.412170 0.192893 -0.306801
v 2.357466 0.156958 -0.150918
v 2.330183 0.192893 -0.306801
v 2.348992 0.130880 -0.150837
v 2.304847 0.114920 -0.306558
v 2.459732 0.108182 -0.259902
v 2.425906 0.212284 -0.260227
v 2.316446 0.212284 -0.260227
v 2.282620 0.108182 -0.259902
v 2.459732 0.108823 -0.198182
v 2.425906 0.212924 -0.198507
v 2.316446 0.212924 -0.198507
v 2.371176 0.044484 -0.197981
v 2.282620 0.108823 -0.198182
v 2.393360 0.130595 -0.178316
v 2.384887 0.156673 -0.178397
v 2.357466 0.156673 -0.178397
v 2.348992 0.130595 -0.178316
v 2.371176 0.114477 -0.178266
v -4.035585 -1.415439 2.075026
v -4.035585 0.425882 2.075026
v -3.988108 -1.384245 -0.092069
v -3.988108 0.394688 -0.092069
v 3.964416 -1.415439 2.075026
v 3.964416 0.425882 2.075026
v 3.916407 -1.383895 -0.092069
v 3.916407 0.394338 -0.092069
v -4.035585 0.598974 2.075026
v -4.035585 0.598974 -0.092069
v 3.964416 0.598974 -0.092069
v 3.964416 0.598974 2.075026
v -4.035585 0.425882 -0.245662
v 3.964416 0.425882 -0.245662
v -4.035585 0.598974 -0.245662
v 3.964416 0.598974 -0.245662
v -0.083593 -1.383895 -0.092069
v -0.083593 0.394338 -0.092069
v -0.035585 -1.415439 2.075026
v -0.035585 0.425882 2.075026
v -0.035585 0.598974 -0.092069
v -0.035585 0.598974 2.075026
v -0.035585 0.425882 -0.245662
v -0.035585 0.598974 -0.245662
v 2.012424 0.394338 -0.092069
v 1.964416 -1.415439 2.075026
v 1.964416 0.598974 -0.092069
v 1.964416 0.425882 -0.245662
v 1.964416 0.598974 -0.245662
v 2.012424 -1.383895 -0.092069
v 1.964416 0.425882 2.075026
v 1.964416 0.598974 2.075026
v -1.987576 -1.383895 -0.092069
v -2.035585 0.425882 2.075026
v -2.035585 0.598974 2.075026
v -1.987576 0.394338 -0.092069
v -2.035585 -1.415439 2.075026
v -2.035585 0.598974 -0.092069
v -2.035585 0.425882 -0.245662
v -2.035585 0.598974 -0.245662
v 1.916940 0.394688 -0.092069
v 3.964416 0.425882 -0.092069
v 3.964416 -1.415439 -0.092069
v -2.083061 0.394688 -0.092069
v 0.011891 0.394688 -0.092069
v 0.011892 -1.384245 -0.092069
v 1.916940 -1.384245 -0.092069
v -2.083061 -1.384245 -0.092069
v -4.035585 0.425882 -0.092069
v -4.035585 -1.415439 -0.092069
v -2.035585 -1.415439 -0.092069
v 1.964416 -1.415439 -0.092069
v -0.035585 -1.415439 -0.092069
v -0.035585 0.425882 -0.092069
v 1.964416 0.425882 -0.092069
v -2.035585 0.425882 -0.092069
v 2.012424 0.394338 -0.163369
v 3.916407 0.394338 -0.163369
v 3.916407 -1.383895 -0.163369
v -1.987576 0.394338 -0.163369
v -0.083593 0.394338 -0.163369
v -0.083593 -1.383895 -0.163369
v 2.012424 -1.383895 -0.163369
v -1.987576 -1.383895 -0.163369
v -3.988108 0.394688 -0.163369
v -3.988108 -1.384245 -0.163369
v -2.083061 -1.384245 -0.163369
v 1.916940 -1.384245 -0.163369
v 0.011892 -1.384245 -0.163369
v 0.011891 0.394688 -0.163369
v 1.916940 0.394688 -0.163369
v -2.083061 0.394688 -0.163369
vt 0.375000 0.000000
vt 0.625000 0.000000
vt 0.625000 0.250000
vt 0.375000 0.250000
vt 0.620765 0.251484
vt 0.620765 0.311016
vt 0.620765 0.311016
vt 0.620765 0.251484
vt 0.375000 0.500000
vt 0.625000 0.500000
vt 0.625000 0.750000
vt 0.375000 0.750000
vt 0.375000 0.937500
vt 0.625000 0.937500
vt 0.625000 1.000000
vt 0.375000 1.000000
vt 0.312500 0.500000
vt 0.312500 0.750000
vt 0.625000 0.000000
vt 0.625000 0.250000
vt 0.812500 0.500000
vt 0.875000 0.500000
vt 0.875000 0.750000
vt 0.812500 0.750000
vt 0.625000 0.812500
vt 0.625000 0.750000
vt 0.625000 0.812500
vt 0.687500 0.500000
vt 0.625000 0.500000
vt 0.625000 0.500000
vt 0.687500 0.500000
vt 0.625000 0.312500
vt 0.625000 0.250000
vt 0.625000 0.250000
vt 0.625000 0.312500
vt 0.625000 0.312500
vt 0.625000 0.500000
vt 0.625000 0.437500
vt 0.625000 0.375000
vt 0.625000 0.375000
vt 0.625000 0.437500
vt 0.625000 0.375000
vt 0.625000 0.437500
vt 0.750000 0.500000
vt 0.750000 0.500000
vt 0.812500 0.500000
vt 0.625000 0.875000
vt 0.625000 0.875000
vt 0.625000 0.937500
vt 0.750000 0.750000
vt 0.687500 0.750000
vt 0.187500 0.500000
vt 0.250000 0.500000
vt 0.250000 0.750000
vt 0.187500 0.750000
vt 0.375000 0.812500
vt 0.375000 0.875000
vt 0.379283 0.314000
vt 0.620717 0.314000
vt 0.620717 0.314000
vt 0.379283 0.314000
vt 0.620765 0.436016
vt 0.379235 0.436016
vt 0.379235 0.436016
vt 0.620765 0.436016
vt 0.379283 0.373500
vt 0.379283 0.373500
vt 0.125000 0.500000
vt 0.125000 0.750000
vt 0.625000 1.000000
vt 0.875000 0.500000
vt 0.620717 0.498500
vt 0.620717 0.439000
vt 0.379283 0.498500
vt 0.620717 0.373500
vt 0.375000 0.375000
vt 0.379283 0.439000
vt 0.375000 0.437500
vt 0.375000 0.312500
vt 0.379235 0.251484
vt 0.379235 0.311016
vt 0.379235 0.376484
vt 0.620765 0.376484
vt 0.379283 0.439000
vt 0.620717 0.439000
vt 0.620717 0.498500
vt 0.379283 0.498500
vt 0.620717 0.373500
vt 0.379235 0.376484
vt 0.620765 0.376484
vt 0.379235 0.251484
vt 0.379235 0.311016
vt 1.000000 0.625000
vt 1.000000 0.750000
vt 0.800000 0.750000
vt 0.800000 0.625000
vt 0.250000 0.250000
vt 0.478254 0.324164
vt 0.250000 0.490000
vt 1.000000 1.000000
vt 0.800000 1.000000
vt 0.600000 0.750000
vt 0.600000 0.625000
vt 0.391069 0.055836
vt 0.600000 1.000000
vt 0.400000 0.750000
vt 0.400000 0.625000
vt 0.108932 0.055836
vt 0.400000 1.000000
vt 0.200000 0.750000
vt 0.200000 0.625000
vt 0.021746 0.324164
vt 0.200000 1.000000
vt 0.000000 0.750000
vt 0.000000 0.625000
vt 0.000000 1.000000
vt 0.200000 0.562500
vt 0.000000 0.562500
vt 0.400000 0.562500
vt 0.600000 0.562500
vt 0.800000 0.562500
vt 1.000000 0.562500
vt 1.000000 0.500000
vt 0.800000 0.500000
vt 0.600000 0.500000
vt 0.400000 0.500000
vt 0.200000 0.500000
vt 0.000000 0.500000
vt 1.000000 0.625000
vt 1.000000 0.750000
vt 0.800000 0.750000
vt 0.800000 0.625000
vt 0.250000 0.250000
vt 0.478254 0.324164
vt 0.250000 0.490000
vt 1.000000 1.000000
vt 0.800000 1.000000
vt 0.600000 0.750000
vt 0.600000 0.625000
vt 0.391069 0.055836
vt 0.600000 1.000000
vt 0.400000 0.750000
vt 0.400000 0.625000
vt 0.108932 0.055836
vt 0.400000 1.000000
vt 0.200000 0.750000
vt 0.200000 0.625000
vt 0.021746 0.324164
vt 0.200000 1.000000
vt 0.000000 0.750000
vt 0.000000 0.625000
vt 0.000000 1.000000
vt 0.200000 0.562500
vt 0.000000 0.562500
vt 0.400000 0.562500
vt 0.600000 0.562500
vt 0.800000 0.562500
vt 1.000000 0.562500
vt 1.000000 0.500000
vt 0.800000 0.500000
vt 0.600000 0.500000
vt 0.400000 0.500000
vt 0.200000 0.500000
vt 0.000000 0.500000
vt 1.000000 0.625000
vt 1.000000 0.750000
vt 0.800000 0.750000
vt 0.800000 0.625000
vt 0.250000 0.250000
vt 0.478254 0.324164
vt 0.250000 0.490000
vt 1.000000 1.000000
vt 0.800000 1.000000
vt 0.600000 0.750000
vt 0.600000 0.625000
vt 0.391069 0.055836
vt 0.600000 1.000000
vt 0.400000 0.750000
vt 0.400000 0.625000
vt 0.108932 0.055836
vt 0.400000 1.000000
vt 0.200000 0.750000
vt 0.200000 0.625000
vt 0.021746 0.324164
vt 0.200000 1.000000
vt 0.000000 0.750000
vt 0.000000 0.625000
vt 0.000000 1.000000
vt 0.200000 0.562500
vt 0.000000 0.562500
vt 0.400000 0.562500
vt 0.600000 0.562500
vt 0.800000 0.562500
vt 1.000000 0.562500
vt 1.000000 0.500000
vt 0.800000 0.500000
vt 0.600000 0.500000
vt 0.400000 0.500000
vt 0.200000 0.500000
vt 0.000000 0.500000
vt 1.000000 0.625000
vt 1.000000 0.750000
vt 0.800000 0.750000
vt 0.800000 0.625000
vt 0.250000 0.250000
vt 0.478254 0.324164
vt 0.250000 0.490000
vt 1.000000 1.000000
vt 0.800000 1.000000
vt 0.600000 0.750000
vt 0.600000 0.625000
vt 0.391069 0.055836
vt 0.600000 1.000000
vt 0.400000 0.750000
vt 0.400000 0.625000
vt 0.108932 0.055836
vt 0.400000 1.000000
vt 0.200000 0.750000
vt 0.200000 0.625000
vt 0.021746 0.324164
vt 0.200000 1.000000
vt 0.000000 0.750000
vt 0.000000 0.625000
vt 0.000000 1.000000
vt 0.200000 0.562500
vt 0.000000 0.562500
vt 0.400000 0.562500
vt 0.600000 0.562500
vt 0.800000 0.562500
vt 1.000000 0.562500
vt 1.000000 0.500000
vt 0.800000 0.500000
vt 0.600000 0.500000
vt 0.400000 0.500000
vt 0.200000 0.500000
vt 0.000000 0.500000
vn -1.0000 0.0000 0.0000
vn 0.0000 1.0000 0.0000
vn 1.0000 0.0000 0.0000
vn 0.0000 0.0000 1.0000
vn 0.0000 -1.0000 0.0000
vn 0.0000 0.0000 -1.0000
vn 0.5878 -0.8090 0.0084
vn 0.1048 -0.1474 -0.9835
vn 0.5458 -0.7524 -0.3687
vn 0.9511 0.3090 -0.0032
vn 0.1694 0.0520 -0.9842
vn 0.8807 0.2850 -0.3784
vn 0.0000 0.9999 -0.0104
vn 0.0000 0.1749 -0.9846
vn 0.0000 0.9232 -0.3844
vn -0.9511 0.3090 -0.0032
vn -0.1694 0.0520 -0.9842
vn -0.8807 0.2850 -0.3784
vn -0.5878 -0.8090 0.0084
vn -0.1048 -0.1474 -0.9835
vn -0.5458 -0.7524 -0.3687
vn -0.1953 -0.2659 0.9440
vn -0.3169 0.1059 0.9425
vn 0.0000 0.3366 0.9416
vn 0.3169 0.1059 0.9425
vn 0.1953 -0.2659 0.9440
g Siink.001_Cube.051_Material.032
s off
f 105/1/1 106/2/1 153/3/1 154/4/1
f 108/5/2 148/6/2 176/7/2 169/8/2
f 147/9/3 146/10/3 110/11/3 109/12/3
f 141/13/4 138/14/4 106/15/4 105/16/4
f 156/17/5 147/9/5 109/12/5 130/18/5
f 153/3/1 106/2/1 113/19/1 114/20/1
f 142/21/2 114/22/2 113/23/2 139/24/2
f 135/25/4 110/11/4 116/26/4 136/27/4
f 131/28/2 115/29/2 120/30/2 133/31/2
f 110/11/3 146/10/3 115/29/3 116/26/3
f 143/32/6 117/33/6 119/34/6 144/35/6
f 160/36/5 153/3/5 117/33/5 143/32/5
f 115/29/3 146/10/3 118/37/3 120/30/3
f 153/3/1 114/20/1 119/34/1 117/33/1
f 159/38/5 158/39/5 127/40/5 132/41/5
f 132/41/6 127/40/6 128/42/6 133/43/6
f 142/21/2 125/44/2 128/45/2 144/46/2
f 138/14/4 124/47/4 126/48/4 139/49/4
f 131/28/2 125/44/2 126/50/2 136/51/2
f 155/52/5 157/53/5 123/54/5 141/55/5
f 130/56/4 135/25/4 124/47/4 123/57/4
f 137/58/1 140/59/1 164/60/1 168/61/1
f 109/12/4 110/11/4 135/25/4 130/56/4
f 115/29/2 131/28/2 136/51/2 116/26/2
f 118/37/6 132/41/6 133/43/6 120/30/6
f 146/10/5 159/38/5 132/41/5 118/37/5
f 125/44/2 131/28/2 133/31/2 128/45/2
f 124/47/4 135/25/4 136/27/4 126/48/4
f 157/53/5 156/17/5 130/18/5 123/54/5
f 145/62/3 151/63/3 172/64/3 175/65/3
f 121/66/5 137/58/5 168/61/5 166/67/5
f 154/68/5 155/52/5 141/55/5 105/69/5
f 106/15/4 138/14/4 139/49/4 113/70/4
f 114/22/2 142/21/2 144/46/2 119/71/2
f 158/39/5 160/36/5 143/32/5 127/40/5
f 127/40/6 143/32/6 144/35/6 128/42/6
f 125/44/2 142/21/2 139/24/2 126/50/2
f 123/57/4 124/47/4 138/14/4 141/13/4
f 112/72/6 129/73/6 159/38/6 146/10/6
f 111/74/6 112/72/6 146/10/6 147/9/6
f 122/75/6 140/59/6 160/36/6 158/39/6
f 121/66/6 122/75/6 158/39/6 157/76/6
f 134/77/6 111/74/6 147/9/6 156/78/6
f 129/73/6 134/77/6 156/78/6 159/38/6
f 137/58/6 121/66/6 157/76/6 155/79/6
f 140/59/6 137/58/6 155/79/6 160/36/6
f 108/5/6 107/80/6 154/4/6 153/3/6
f 107/80/6 152/81/6 155/79/6 154/4/6
f 150/82/6 151/63/6 156/78/6 157/76/6
f 149/83/6 150/82/6 157/76/6 158/39/6
f 145/62/6 149/83/6 158/39/6 159/38/6
f 151/63/6 145/62/6 159/38/6 156/78/6
f 148/6/6 108/5/6 153/3/6 160/36/6
f 152/81/6 148/6/6 160/36/6 155/79/6
f 167/84/6 161/85/6 162/86/6 163/87/6
f 168/61/6 164/60/6 165/88/6 166/67/6
f 173/89/6 174/90/6 175/65/6 172/64/6
f 170/91/6 169/8/6 176/7/6 171/92/6
f 129/73/2 112/72/2 162/86/2 161/85/2
f 148/6/3 152/81/3 171/92/3 176/7/3
f 112/72/3 111/74/3 163/87/3 162/86/3
f 107/80/1 108/5/1 169/8/1 170/91/1
f 140/59/2 122/75/2 165/88/2 164/60/2
f 152/81/5 107/80/5 170/91/5 171/92/5
f 122/75/3 121/66/3 166/67/3 165/88/3
f 151/63/5 150/82/5 173/89/5 172/64/5
f 111/74/5 134/77/5 167/84/5 163/87/5
f 150/82/1 149/83/1 174/90/1 173/89/1
f 134/77/1 129/73/1 161/85/1 167/84/1
f 149/83/2 145/62/2 175/65/2 174/90/2
g Siink.001_Cube.051_Material.034
f 20/93/7 4/94/7 13/95/7 17/96/7
f 3/97/8 2/98/8 6/99/8
f 4/94/9 6/100/9 2/101/9 13/95/9
f 17/96/10 13/95/10 14/102/10 18/103/10
f 3/97/11 8/104/11 2/98/11
f 13/95/12 2/101/12 8/105/12 14/102/12
f 18/103/13 14/102/13 15/106/13 19/107/13
f 3/97/14 10/108/14 8/104/14
f 14/102/15 8/105/15 10/109/15 15/106/15
f 19/107/16 15/106/16 16/110/16 21/111/16
f 3/97/17 12/112/17 10/108/17
f 15/106/18 10/109/18 12/113/18 16/110/18
f 21/111/19 16/110/19 4/114/19 20/115/19
f 3/97/20 6/99/20 12/112/20
f 16/110/21 12/113/21 6/116/21 4/114/21
f 25/117/22 21/111/22 20/115/22 26/118/22
f 24/119/23 19/107/23 21/111/23 25/117/23
f 23/120/24 18/103/24 19/107/24 24/119/24
f 22/121/25 17/96/25 18/103/25 23/120/25
f 26/122/26 20/93/26 17/96/26 22/121/26
f 5/123/7 26/122/7 22/121/7 1/124/7
f 1/124/10 22/121/10 23/120/10 7/125/10
f 7/125/13 23/120/13 24/119/13 9/126/13
f 9/126/16 24/119/16 25/117/16 11/127/16
f 11/127/19 25/117/19 26/118/19 5/128/19
f 46/129/7 30/130/7 39/131/7 43/132/7
f 29/133/8 28/134/8 32/135/8
f 30/130/9 32/136/9 28/137/9 39/131/9
f 43/132/10 39/131/10 40/138/10 44/139/10
f 29/133/11 34/140/11 28/134/11
f 39/131/12 28/137/12 34/141/12 40/138/12
f 44/139/13 40/138/13 41/142/13 45/143/13
f 29/133/14 36/144/14 34/140/14
f 40/138/15 34/141/15 36/145/15 41/142/15
f 45/143/16 41/142/16 42/146/16 47/147/16
f 29/133/17 38/148/17 36/144/17
f 41/142/18 36/145/18 38/149/18 42/146/18
f 47/147/19 42/146/19 30/150/19 46/151/19
f 29/133/20 32/135/20 38/148/20
f 42/146/21 38/149/21 32/152/21 30/150/21
f 51/153/22 47/147/22 46/151/22 52/154/22
f 50/155/23 45/143/23 47/147/23 51/153/23
f 49/156/24 44/139/24 45/143/24 50/155/24
f 48/157/25 43/132/25 44/139/25 49/156/25
f 52/158/26 46/129/26 43/132/26 48/157/26
f 31/159/7 52/158/7 48/157/7 27/160/7
f 27/160/10 48/157/10 49/156/10 33/161/10
f 33/161/13 49/156/13 50/155/13 35/162/13
f 35/162/16 50/155/16 51/153/16 37/163/16
f 37/163/19 51/153/19 52/154/19 31/164/19
f 72/165/7 56/166/7 65/167/7 69/168/7
f 55/169/8 54/170/8 58/171/8
f 56/166/9 58/172/9 54/173/9 65/167/9
f 69/168/10 65/167/10 66/174/10 70/175/10
f 55/169/11 60/176/11 54/170/11
f 65/167/12 54/173/12 60/177/12 66/174/12
f 70/175/13 66/174/13 67/178/13 71/179/13
f 55/169/14 62/180/14 60/176/14
f 66/174/15 60/177/15 62/181/15 67/178/15
f 71/179/16 67/178/16 68/182/16 73/183/16
f 55/169/17 64/184/17 62/180/17
f 67/178/18 62/181/18 64/185/18 68/182/18
f 73/183/19 68/182/19 56/186/19 72/187/19
f 55/169/20 58/171/20 64/184/20
f 68/182/21 64/185/21 58/188/21 56/186/21
f 77/189/22 73/183/22 72/187/22 78/190/22
f 76/191/23 71/179/23 73/183/23 77/189/23
f 75/192/24 70/175/24 71/179/24 76/191/24
f 74/193/25 69/168/25 70/175/25 75/192/25
f 78/194/26 72/165/26 69/168/26 74/193/26
f 57/195/7 78/194/7 74/193/7 53/196/7
f 53/196/10 74/193/10 75/192/10 59/197/10
f 59/197/13 75/192/13 76/191/13 61/198/13
f 61/198/16 76/191/16 77/189/16 63/199/16
f 63/199/19 77/189/19 78/190/19 57/200/19
f 98/201/7 82/202/7 91/203/7 95/204/7
f 81/205/8 80/206/8 84/207/8
f 82/202/9 84/208/9 80/209/9 91/203/9
f 95/204/10 91/203/10 92/210/10 96/211/10
f 81/205/11 86/212/11 80/206/11
f 91/203/12 80/209/12 86/213/12 92/210/12
f 96/211/13 92/210/13 93/214/13 97/215/13
f 81/205/14 88/216/14 86/212/14
f 92/210/15 86/213/15 88/217/15 93/214/15
f 97/215/16 93/214/16 94/218/16 99/219/16
f 81/205/17 90/220/17 88/216/17
f 93/214/18 88/217/18 90/221/18 94/218/18
f 99/219/19 94/218/19 82/222/19 98/223/19
f 81/205/20 84/207/20 90/220/20
f 94/218/21 90/221/21 84/224/21 82/222/21
f 103/225/22 99/219/22 98/223/22 104/226/22
f 102/227/23 97/215/23 99/219/23 103/225/23
f 101/228/24 96/211/24 97/215/24 102/227/24
f 100/229/25 95/204/25 96/211/25 101/228/25
f 104/230/26 98/201/26 95/204/26 100/229/26
f 83/231/7 104/230/7 100/229/7 79/232/7
f 79/232/10 100/229/10 101/228/10 85/233/10
f 85/233/13 101/228/13 102/227/13 87/234/13
f 87/234/16 102/227/16 103/225/16 89/235/16
f 89/235/19 103/225/19 104/226/19 83/236/19
