# Blender v2.81 (sub 16) OBJ File: 'catgame.blend'
# www.blender.org
o Cylinder.003_Cylinder.024
v 0.000000 -0.408175 0.000000
v 0.000000 -0.408175 -0.635134
v 0.000000 0.408175 -0.635134
v 0.604049 -0.408175 -0.196267
v 0.604049 0.408175 -0.196267
v 0.373323 -0.408175 0.513835
v 0.373323 0.408175 0.513835
v -0.373323 -0.408175 0.513834
v -0.373323 0.408175 0.513834
v -0.604049 -0.408175 -0.196267
v -0.604049 0.408175 -0.196267
v 0.545824 0.408175 -0.177349
v -0.000000 0.408175 -0.573913
v 0.337337 0.408175 0.464305
v -0.337338 0.408175 0.464305
v -0.545823 0.408175 -0.177349
v -0.000000 -0.337079 -0.573913
v 0.000000 -0.337079 0.000000
v 0.545824 -0.337079 -0.177349
v 0.337337 -0.337079 0.464305
v -0.337338 -0.337079 0.464305
v -0.545823 -0.337079 -0.177349
v -0.397742 0.213714 0.425053
v -0.407073 0.146779 0.396135
v -0.416852 0.213032 0.365827
v -0.407521 0.279967 0.394744
v -0.514617 0.213348 0.427721
v -0.509339 0.146459 0.398469
v -0.504509 0.212757 0.367827
v -0.509788 0.279647 0.397079
v -0.620659 0.212349 0.366195
v -0.602125 0.145584 0.344633
v -0.584040 0.212007 0.321682
v -0.602573 0.278772 0.343243
v -0.687453 0.210983 0.256960
v -0.660570 0.144389 0.249054
v -0.634134 0.210983 0.239757
v -0.661018 0.277577 0.247664
v -0.697100 0.209618 0.129287
v -0.669011 0.143194 0.137340
v -0.641371 0.209959 0.144002
v -0.669459 0.276383 0.135949
v -0.647017 0.208619 0.017386
v -0.625189 0.142320 0.039426
v -0.603809 0.209210 0.060076
v -0.625637 0.275508 0.038036
v -0.550623 0.208253 -0.048760
v -0.540844 0.142000 -0.018452
v -0.531514 0.208935 0.010466
v -0.541293 0.275188 -0.019842
v 0.182028 0.187033 -0.472133
v 0.206446 0.120098 -0.454046
v 0.232036 0.186351 -0.435089
v 0.207619 0.253286 -0.453177
v 0.275521 0.186667 -0.542318
v 0.288253 0.119778 -0.515459
v 0.302157 0.186076 -0.487729
v 0.289427 0.252966 -0.514589
v 0.397562 0.185668 -0.553995
v 0.395038 0.118903 -0.525675
v 0.393687 0.185326 -0.496486
v 0.396212 0.252091 -0.524805
v 0.515450 0.184302 -0.504034
v 0.498189 0.117708 -0.481960
v 0.482102 0.184302 -0.459015
v 0.499363 0.250897 -0.481090
v 0.597595 0.182937 -0.405822
v 0.570066 0.116514 -0.396023
v 0.543711 0.183278 -0.385357
v 0.571241 0.249702 -0.395154
v 0.621987 0.181937 -0.285675
v 0.591410 0.115639 -0.290896
v 0.562006 0.182529 -0.295246
v 0.592584 0.248827 -0.290026
v 0.582092 0.181571 -0.175787
v 0.556501 0.115319 -0.194743
v 0.532085 0.182254 -0.212830
v 0.557675 0.248507 -0.193873
vt 0.750000 0.250000
vt 0.750000 0.490000
vt 0.978254 0.324164
vt 0.377471 0.074552
vt 0.456252 0.317015
vt 0.456252 0.317015
vt 0.377471 0.074552
vt 1.000000 0.500000
vt 1.000000 1.000000
vt 0.800000 1.000000
vt 0.800000 0.500000
vt 0.891068 0.055836
vt 0.043748 0.317015
vt 0.122529 0.074552
vt 0.122529 0.074552
vt 0.043748 0.317015
vt 0.600000 1.000000
vt 0.600000 0.500000
vt 0.608932 0.055836
vt 0.250000 0.466866
vt 0.250000 0.466866
vt 0.400000 1.000000
vt 0.400000 0.500000
vt 0.521746 0.324164
vt 0.200000 1.000000
vt 0.200000 0.500000
vt 0.000000 1.000000
vt 0.000000 0.500000
vt 0.478254 0.324164
vt 0.250000 0.490000
vt 0.391068 0.055836
vt 0.108932 0.055836
vt 0.021746 0.324164
vt 0.250000 0.250000
vt 0.750000 0.500000
vt 0.833333 0.500000
vt 0.833333 0.750000
vt 0.750000 0.750000
vt 0.833333 1.000000
vt 0.750000 1.000000
vt 0.750000 0.000000
vt 0.833333 0.000000
vt 0.833333 0.250000
vt 0.750000 0.250000
vt 0.916667 0.500000
vt 0.916667 0.750000
vt 0.916667 1.000000
vt 0.916667 0.000000
vt 0.916667 0.250000
vt 1.000000 0.500000
vt 1.000000 0.750000
vt 1.000000 1.000000
vt 1.000000 0.000000
vt 1.000000 0.250000
vt 0.000000 0.500000
vt 0.083333 0.500000
vt 0.083333 0.750000
vt 0.000000 0.750000
vt 0.083333 1.000000
vt 0.000000 1.000000
vt 0.000000 0.000000
vt 0.083333 0.000000
vt 0.083333 0.250000
vt 0.000000 0.250000
vt 0.166667 0.500000
vt 0.166667 0.750000
vt 0.166667 1.000000
vt 0.166667 0.000000
vt 0.166667 0.250000
vt 0.250000 0.500000
vt 0.250000 0.750000
vt 0.250000 1.000000
vt 0.250000 0.000000
vt 0.250000 0.250000
vt 0.750000 0.500000
vt 0.833333 0.500000
vt 0.833333 0.750000
vt 0.750000 0.750000
vt 0.833333 1.000000
vt 0.750000 1.000000
vt 0.750000 0.000000
vt 0.833333 0.000000
vt 0.833333 0.250000
vt 0.750000 0.250000
vt 0.916667 0.500000
vt 0.916667 0.750000
vt 0.916667 1.000000
vt 0.916667 0.000000
vt 0.916667 0.250000
vt 1.000000 0.500000
vt 1.000000 0.750000
vt 1.000000 1.000000
vt 1.000000 0.000000
vt 1.000000 0.250000
vt 0.000000 0.500000
vt 0.083333 0.500000
vt 0.083333 0.750000
vt 0.000000 0.750000
vt 0.083333 1.000000
vt 0.000000 1.000000
vt 0.000000 0.000000
vt 0.083333 0.000000
vt 0.083333 0.250000
vt 0.000000 0.250000
vt 0.166667 0.500000
vt 0.166667 0.750000
vt 0.166667 1.000000
vt 0.166667 0.000000
vt 0.166667 0.250000
vt 0.250000 0.500000
vt 0.250000 0.750000
vt 0.250000 1.000000
vt 0.250000 0.000000
vt 0.250000 0.250000
vn 0.0000 -1.0000 0.0000
vn -0.9511 0.0000 -0.3090
vn 0.5878 0.0000 -0.8090
vn 0.9511 0.0000 -0.3090
vn 0.9511 0.0000 0.3090
vn -0.5878 0.0000 0.8090
vn -0.0000 0.0000 1.0000
vn 0.0000 0.0000 -1.0000
vn -0.9511 0.0000 0.3090
vn 0.5878 0.0000 0.8090
vn -0.5878 0.0000 -0.8090
vn 0.0000 1.0000 0.0000
vn 0.0222 -0.3991 0.9166
vn -0.0194 -0.4183 -0.9081
vn -0.0222 0.3991 -0.9166
vn 0.0194 0.4183 0.9081
vn -0.4602 -0.3860 0.7995
vn 0.4629 -0.3994 -0.7913
vn 0.4602 0.3860 -0.7995
vn -0.4629 0.3995 0.7913
vn -0.7884 -0.3761 0.4868
vn 0.7910 -0.3808 -0.4789
vn 0.7884 0.3761 -0.4868
vn -0.7910 0.3808 0.4789
vn -0.9217 -0.3808 0.0737
vn 0.9242 -0.3761 -0.0658
vn 0.9217 0.3808 -0.0737
vn -0.9243 0.3761 0.0658
vn -0.8381 -0.3995 -0.3715
vn 0.8407 -0.3859 0.3797
vn 0.8381 0.3994 0.3715
vn -0.8407 0.3860 -0.3797
vn -0.5150 -0.4183 -0.7482
vn 0.5178 -0.3991 0.7567
vn 0.5150 0.4183 0.7482
vn -0.5178 0.3991 -0.7567
vn -0.5515 -0.3991 -0.7325
vn 0.5443 -0.4183 0.7272
vn 0.5515 0.3991 0.7325
vn -0.5443 0.4183 -0.7272
vn -0.0910 -0.3860 -0.9180
vn 0.0841 -0.3995 0.9129
vn 0.0910 0.3860 0.9180
vn -0.0841 0.3995 -0.9129
vn 0.3579 -0.3761 -0.8547
vn -0.3645 -0.3808 0.8498
vn -0.3579 0.3761 0.8547
vn 0.3645 0.3808 -0.8498
vn 0.7066 -0.3808 -0.5963
vn -0.7133 -0.3761 0.5914
vn -0.7066 0.3808 0.5963
vn 0.7133 0.3761 -0.5914
vn 0.8978 -0.3994 -0.1856
vn -0.9047 -0.3860 0.1805
vn -0.8978 0.3995 0.1856
vn 0.9047 0.3859 -0.1805
vn 0.8542 -0.4183 0.3087
vn -0.8614 -0.3991 -0.3141
vn -0.8542 0.4183 -0.3087
vn 0.8614 0.3991 0.3141
s off
f 1/1/1 2/2/1 4/3/1
f 14/4/2 12/5/2 19/6/2 20/7/2
f 2/8/3 3/9/3 5/10/3 4/11/3
f 1/1/1 4/3/1 6/12/1
f 16/13/4 15/14/4 21/15/4 22/16/4
f 4/11/5 5/10/5 7/17/5 6/18/5
f 1/1/1 6/12/1 8/19/1
f 12/5/6 13/20/6 17/21/6 19/6/6
f 6/18/7 7/17/7 9/22/7 8/23/7
f 1/1/1 8/19/1 10/24/1
f 15/14/8 14/4/8 20/7/8 21/15/8
f 8/23/9 9/22/9 11/25/9 10/26/9
f 1/1/1 10/24/1 2/2/1
f 13/20/10 16/13/10 22/16/10 17/21/10
f 10/26/11 11/25/11 3/27/11 2/28/11
f 13/20/12 12/5/12 5/29/12 3/30/12
f 12/5/12 14/4/12 7/31/12 5/29/12
f 14/4/12 15/14/12 9/32/12 7/31/12
f 15/14/12 16/13/12 11/33/12 9/32/12
f 16/13/12 13/20/12 3/30/12 11/33/12
f 18/34/12 19/6/12 17/21/12
f 18/34/12 20/7/12 19/6/12
f 18/34/12 21/15/12 20/7/12
f 18/34/12 22/16/12 21/15/12
f 18/34/12 17/21/12 22/16/12
f 23/35/13 27/36/13 28/37/13 24/38/13
f 24/38/14 28/37/14 29/39/14 25/40/14
f 25/41/15 29/42/15 30/43/15 26/44/15
f 26/44/16 30/43/16 27/36/16 23/35/16
f 27/36/17 31/45/17 32/46/17 28/37/17
f 28/37/18 32/46/18 33/47/18 29/39/18
f 29/42/19 33/48/19 34/49/19 30/43/19
f 30/43/20 34/49/20 31/45/20 27/36/20
f 31/45/21 35/50/21 36/51/21 32/46/21
f 32/46/22 36/51/22 37/52/22 33/47/22
f 33/48/23 37/53/23 38/54/23 34/49/23
f 34/49/24 38/54/24 35/50/24 31/45/24
f 35/55/25 39/56/25 40/57/25 36/58/25
f 36/58/26 40/57/26 41/59/26 37/60/26
f 37/61/27 41/62/27 42/63/27 38/64/27
f 38/64/28 42/63/28 39/56/28 35/55/28
f 39/56/29 43/65/29 44/66/29 40/57/29
f 40/57/30 44/66/30 45/67/30 41/59/30
f 41/62/31 45/68/31 46/69/31 42/63/31
f 42/63/32 46/69/32 43/65/32 39/56/32
f 43/65/33 47/70/33 48/71/33 44/66/33
f 44/66/34 48/71/34 49/72/34 45/67/34
f 45/68/35 49/73/35 50/74/35 46/69/35
f 46/69/36 50/74/36 47/70/36 43/65/36
f 51/75/37 55/76/37 56/77/37 52/78/37
f 52/78/38 56/77/38 57/79/38 53/80/38
f 53/81/39 57/82/39 58/83/39 54/84/39
f 54/84/40 58/83/40 55/76/40 51/75/40
f 55/76/41 59/85/41 60/86/41 56/77/41
f 56/77/42 60/86/42 61/87/42 57/79/42
f 57/82/43 61/88/43 62/89/43 58/83/43
f 58/83/44 62/89/44 59/85/44 55/76/44
f 59/85/45 63/90/45 64/91/45 60/86/45
f 60/86/46 64/91/46 65/92/46 61/87/46
f 61/88/47 65/93/47 66/94/47 62/89/47
f 62/89/48 66/94/48 63/90/48 59/85/48
f 63/95/49 67/96/49 68/97/49 64/98/49
f 64/98/50 68/97/50 69/99/50 65/100/50
f 65/101/51 69/102/51 70/103/51 66/104/51
f 66/104/52 70/103/52 67/96/52 63/95/52
f 67/96/53 71/105/53 72/106/53 68/97/53
f 68/97/54 72/106/54 73/107/54 69/99/54
f 69/102/55 73/108/55 74/109/55 70/103/55
f 70/103/56 74/109/56 71/105/56 67/96/56
f 71/105/57 75/110/57 76/111/57 72/106/57
f 72/106/58 76/111/58 77/112/58 73/107/58
f 73/108/59 77/113/59 78/114/59 74/109/59
f 74/109/60 78/114/60 75/110/60 71/105/60
