# Blender v2.81 (sub 16) OBJ File: 'catgame.blend'
# www.blender.org
o Cube.004_Cube.057
v -1.000000 -0.577178 0.511874
v -1.000000 1.626371 0.511874
v -1.000000 -0.577178 -0.511874
v -1.000000 1.626371 -0.511874
v 1.000000 -0.577178 0.511874
v 0.994929 1.640538 0.511874
v 1.000000 -0.577178 -0.511874
v 0.994929 1.640538 -0.511874
v -0.014439 -0.577178 -0.511874
v -0.014439 1.550001 -0.511874
v -0.014439 -0.577178 0.511874
v -0.014439 1.550001 0.511874
v 0.001516 1.550001 -0.511874
v 0.001516 -0.577178 0.511874
v 0.001516 -0.577178 -0.511874
v 0.001516 1.550001 0.511874
v -1.000000 1.626371 -0.564395
v -1.000000 -0.577178 -0.564395
v -0.014439 -0.577178 -0.564395
v 0.001516 1.550001 -0.564395
v 0.994929 1.640538 -0.564395
v 1.000000 -0.577178 -0.564395
v -0.014439 1.550001 -0.564395
v 0.001516 -0.577178 -0.564395
v 0.180609 -0.430996 -0.556962
v 0.224754 -0.446956 -0.712683
v 0.158425 -0.425510 -0.722967
v 0.158425 -0.518032 -0.665826
v 0.158425 -0.447113 -0.556911
v 0.158425 -0.495146 -0.712533
v 0.172136 -0.404918 -0.557043
v 0.199418 -0.368983 -0.712927
v 0.144715 -0.404918 -0.557043
v 0.117432 -0.368983 -0.712927
v 0.136242 -0.430996 -0.556962
v 0.092097 -0.446956 -0.712683
v 0.246981 -0.453694 -0.666027
v 0.213155 -0.349592 -0.666352
v 0.103695 -0.349592 -0.666352
v 0.069870 -0.453694 -0.666027
v 0.246981 -0.453053 -0.604307
v 0.213155 -0.348952 -0.604632
v 0.103695 -0.348952 -0.604632
v 0.158425 -0.517391 -0.604106
v 0.069870 -0.453053 -0.604307
v 0.180609 -0.431281 -0.584441
v 0.172136 -0.405203 -0.584522
v 0.144715 -0.405203 -0.584522
v 0.136242 -0.431281 -0.584441
v 0.158425 -0.447398 -0.584391
v -0.138836 -0.428849 -0.563159
v -0.094691 -0.444809 -0.718880
v -0.161020 -0.423364 -0.729164
v -0.161020 -0.515885 -0.672023
v -0.161020 -0.444967 -0.563109
v -0.161020 -0.492999 -0.718730
v -0.147309 -0.402771 -0.563240
v -0.120027 -0.366836 -0.719124
v -0.174730 -0.402771 -0.563240
v -0.202013 -0.366836 -0.719124
v -0.183203 -0.428849 -0.563159
v -0.227348 -0.444809 -0.718880
v -0.072464 -0.451547 -0.672224
v -0.106289 -0.347445 -0.672549
v -0.215750 -0.347445 -0.672549
v -0.249575 -0.451547 -0.672224
v -0.072464 -0.450906 -0.610504
v -0.106289 -0.346805 -0.610829
v -0.215750 -0.346805 -0.610829
v -0.161020 -0.515245 -0.610304
v -0.249575 -0.450906 -0.610504
v -0.138836 -0.429134 -0.590638
v -0.147309 -0.403056 -0.590720
v -0.174730 -0.403056 -0.590720
v -0.183203 -0.429134 -0.590638
v -0.161020 -0.445252 -0.590588
vt 0.375000 0.000000
vt 0.625000 0.000000
vt 0.625000 0.250000
vt 0.375000 0.250000
vt 0.625000 0.500000
vt 0.375000 0.500000
vt 0.375000 0.500000
vt 0.625000 0.500000
vt 0.625000 0.750000
vt 0.375000 0.750000
vt 0.375000 0.875000
vt 0.625000 0.875000
vt 0.625000 1.000000
vt 0.375000 1.000000
vt 0.312500 0.500000
vt 0.312500 0.750000
vt 0.750000 0.500000
vt 0.875000 0.500000
vt 0.875000 0.750000
vt 0.750000 0.750000
vt 0.687500 0.500000
vt 0.687500 0.750000
vt 0.125000 0.500000
vt 0.250000 0.500000
vt 0.250000 0.750000
vt 0.125000 0.750000
vt 0.375000 0.812500
vt 0.625000 0.812500
vt 0.625000 0.375000
vt 0.375000 0.375000
vt 0.375000 0.375000
vt 0.625000 0.375000
vt 0.625000 0.437500
vt 0.375000 0.437500
vt 0.375000 0.437500
vt 0.625000 0.437500
vt 0.375000 0.250000
vt 0.625000 0.250000
vt 0.125000 0.500000
vt 0.250000 0.500000
vt 0.750000 0.500000
vt 0.875000 0.500000
vt 0.312500 0.500000
vt 0.687500 0.500000
vt 1.000000 0.625000
vt 1.000000 0.750000
vt 0.800000 0.750000
vt 0.800000 0.625000
vt 0.250000 0.250000
vt 0.478254 0.324164
vt 0.250000 0.490000
vt 1.000000 1.000000
vt 0.800000 1.000000
vt 0.600000 0.750000
vt 0.600000 0.625000
vt 0.391069 0.055836
vt 0.600000 1.000000
vt 0.400000 0.750000
vt 0.400000 0.625000
vt 0.108932 0.055836
vt 0.400000 1.000000
vt 0.200000 0.750000
vt 0.200000 0.625000
vt 0.021746 0.324164
vt 0.200000 1.000000
vt 0.000000 0.750000
vt 0.000000 0.625000
vt 0.000000 1.000000
vt 0.200000 0.562500
vt 0.000000 0.562500
vt 0.400000 0.562500
vt 0.600000 0.562500
vt 0.800000 0.562500
vt 1.000000 0.562500
vt 1.000000 0.500000
vt 0.800000 0.500000
vt 0.600000 0.500000
vt 0.400000 0.500000
vt 0.200000 0.500000
vt 0.000000 0.500000
vt 1.000000 0.625000
vt 1.000000 0.750000
vt 0.800000 0.750000
vt 0.800000 0.625000
vt 0.250000 0.250000
vt 0.478254 0.324164
vt 0.250000 0.490000
vt 1.000000 1.000000
vt 0.800000 1.000000
vt 0.600000 0.750000
vt 0.600000 0.625000
vt 0.391069 0.055836
vt 0.600000 1.000000
vt 0.400000 0.750000
vt 0.400000 0.625000
vt 0.108932 0.055836
vt 0.400000 1.000000
vt 0.200000 0.750000
vt 0.200000 0.625000
vt 0.021746 0.324164
vt 0.200000 1.000000
vt 0.000000 0.750000
vt 0.000000 0.625000
vt 0.000000 1.000000
vt 0.200000 0.562500
vt 0.000000 0.562500
vt 0.400000 0.562500
vt 0.600000 0.562500
vt 0.800000 0.562500
vt 1.000000 0.562500
vt 1.000000 0.500000
vt 0.800000 0.500000
vt 0.600000 0.500000
vt 0.400000 0.500000
vt 0.200000 0.500000
vt 0.000000 0.500000
vn -1.0000 0.0000 0.0000
vn 1.0000 0.0023 0.0000
vn 0.0000 0.0000 1.0000
vn 0.0000 -1.0000 0.0000
vn 0.0773 0.9970 0.0000
vn 0.0000 1.0000 0.0000
vn 1.0000 0.0000 0.0000
vn -0.0908 0.9959 0.0000
vn 0.0000 0.0000 -1.0000
vn 0.5878 -0.8090 0.0084
vn 0.1048 -0.1474 -0.9835
vn 0.5458 -0.7524 -0.3687
vn 0.9511 0.3090 -0.0032
vn 0.1694 0.0520 -0.9842
vn 0.8807 0.2850 -0.3784
vn 0.0000 0.9999 -0.0104
vn 0.0000 0.1749 -0.9846
vn 0.0000 0.9232 -0.3844
vn -0.9511 0.3090 -0.0032
vn -0.1694 0.0520 -0.9842
vn -0.8807 0.2850 -0.3784
vn -0.5878 -0.8090 0.0084
vn -0.1048 -0.1474 -0.9835
vn -0.5458 -0.7524 -0.3687
vn -0.1953 -0.2659 0.9440
vn -0.3169 0.1059 0.9425
vn 0.0000 0.3366 0.9416
vn 0.3169 0.1059 0.9425
vn 0.1953 -0.2659 0.9440
g Cube.004_Cube.057_Material.032
s off
f 1/1/1 2/2/1 4/3/1 3/4/1
f 8/5/2 7/6/2 22/7/2 21/8/2
f 7/6/2 8/5/2 6/9/2 5/10/2
f 11/11/3 12/12/3 2/13/3 1/14/3
f 15/15/4 7/6/4 5/10/4 14/16/4
f 10/17/5 4/18/5 2/19/5 12/20/5
f 13/21/6 10/17/6 12/20/6 16/22/6
f 3/23/4 9/24/4 11/25/4 1/26/4
f 14/27/3 16/28/3 12/12/3 11/11/3
f 10/29/7 9/30/7 19/31/7 23/32/7
f 5/10/3 6/9/3 16/28/3 14/27/3
f 8/5/8 13/21/8 16/22/8 6/9/8
f 9/24/4 15/15/4 14/16/4 11/25/4
f 9/30/9 10/29/9 13/33/9 15/34/9
f 24/35/9 20/36/9 21/8/9 22/7/9
f 18/37/9 17/38/9 23/32/9 19/31/9
f 9/24/4 3/23/4 18/39/4 19/40/4
f 4/18/5 10/17/5 23/41/5 17/42/5
f 7/6/4 15/15/4 24/43/4 22/7/4
f 15/34/1 13/33/1 20/36/1 24/35/1
f 13/21/8 8/5/8 21/8/8 20/44/8
f 3/4/1 4/3/1 17/38/1 18/37/1
g Cube.004_Cube.057_Material.034
f 44/45/10 28/46/10 37/47/10 41/48/10
f 27/49/11 26/50/11 30/51/11
f 28/46/12 30/52/12 26/53/12 37/47/12
f 41/48/13 37/47/13 38/54/13 42/55/13
f 27/49/14 32/56/14 26/50/14
f 37/47/15 26/53/15 32/57/15 38/54/15
f 42/55/16 38/54/16 39/58/16 43/59/16
f 27/49/17 34/60/17 32/56/17
f 38/54/18 32/57/18 34/61/18 39/58/18
f 43/59/19 39/58/19 40/62/19 45/63/19
f 27/49/20 36/64/20 34/60/20
f 39/58/21 34/61/21 36/65/21 40/62/21
f 45/63/22 40/62/22 28/66/22 44/67/22
f 27/49/23 30/51/23 36/64/23
f 40/62/24 36/65/24 30/68/24 28/66/24
f 49/69/25 45/63/25 44/67/25 50/70/25
f 48/71/26 43/59/26 45/63/26 49/69/26
f 47/72/27 42/55/27 43/59/27 48/71/27
f 46/73/28 41/48/28 42/55/28 47/72/28
f 50/74/29 44/45/29 41/48/29 46/73/29
f 29/75/10 50/74/10 46/73/10 25/76/10
f 25/76/13 46/73/13 47/72/13 31/77/13
f 31/77/16 47/72/16 48/71/16 33/78/16
f 33/78/19 48/71/19 49/69/19 35/79/19
f 35/79/22 49/69/22 50/70/22 29/80/22
f 70/81/10 54/82/10 63/83/10 67/84/10
f 53/85/11 52/86/11 56/87/11
f 54/82/12 56/88/12 52/89/12 63/83/12
f 67/84/13 63/83/13 64/90/13 68/91/13
f 53/85/14 58/92/14 52/86/14
f 63/83/15 52/89/15 58/93/15 64/90/15
f 68/91/16 64/90/16 65/94/16 69/95/16
f 53/85/17 60/96/17 58/92/17
f 64/90/18 58/93/18 60/97/18 65/94/18
f 69/95/19 65/94/19 66/98/19 71/99/19
f 53/85/20 62/100/20 60/96/20
f 65/94/21 60/97/21 62/101/21 66/98/21
f 71/99/22 66/98/22 54/102/22 70/103/22
f 53/85/23 56/87/23 62/100/23
f 66/98/24 62/101/24 56/104/24 54/102/24
f 75/105/25 71/99/25 70/103/25 76/106/25
f 74/107/26 69/95/26 71/99/26 75/105/26
f 73/108/27 68/91/27 69/95/27 74/107/27
f 72/109/28 67/84/28 68/91/28 73/108/28
f 76/110/29 70/81/29 67/84/29 72/109/29
f 55/111/10 76/110/10 72/109/10 51/112/10
f 51/112/13 72/109/13 73/108/13 57/113/13
f 57/113/16 73/108/16 74/107/16 59/114/16
f 59/114/19 74/107/19 75/105/19 61/115/19
f 61/115/22 75/105/22 76/106/22 55/116/22
