# Blender v2.81 (sub 16) OBJ File: 'catgame.blend'
# www.blender.org
o Knife_Cube.094
v 0.011787 0.002788 -0.293311
v 0.011787 -0.002788 -0.293311
v 0.011787 0.002788 0.077230
v 0.011787 -0.002788 0.077230
v -0.011787 0.002788 -0.293311
v -0.011787 -0.002788 -0.293311
v -0.011787 0.002788 0.077230
v -0.011787 -0.002788 0.077230
v 0.011787 0.002788 -0.216081
v 0.011787 -0.002788 -0.216081
v -0.011787 0.002788 -0.216081
v -0.011787 -0.002788 -0.216081
v 0.026471 -0.002788 -0.069426
v -0.026471 0.002788 -0.069426
v 0.026471 0.002788 -0.069426
v -0.026471 -0.002788 -0.069426
v 0.027971 -0.002788 0.003902
v -0.027971 0.002788 0.003902
v 0.027971 0.002788 0.003902
v -0.027971 -0.002788 0.003902
v 0.011787 0.002788 -0.300410
v 0.011787 -0.002788 -0.300410
v -0.036242 -0.002788 -0.300410
v -0.036242 0.002788 -0.300410
v 0.011787 0.002788 -0.403233
v 0.011787 -0.002788 -0.403233
v -0.059899 -0.002788 -0.403233
v -0.059899 0.002788 -0.403233
v 0.011787 0.002788 -0.706010
v 0.011787 -0.002788 -0.706010
v -0.041921 -0.002788 -0.706010
v -0.041921 0.002788 -0.706010
v 0.011787 0.002788 -0.828370
v 0.011787 -0.002788 -0.828370
v -0.011787 -0.002788 -0.828370
v -0.011787 0.002788 -0.828370
vt 0.375000 0.218750
vt 0.375000 0.250000
vt 0.625000 0.250000
vt 0.625000 0.218750
vt 0.375000 0.500000
vt 0.625000 0.500000
vt 0.375000 0.625000
vt 0.375000 0.750000
vt 0.625000 0.750000
vt 0.625000 0.625000
vt 0.625000 0.750000
vt 0.875000 0.750000
vt 0.875000 0.750000
vt 0.125000 0.625000
vt 0.125000 0.750000
vt 0.875000 0.625000
vt 0.625000 0.562500
vt 0.875000 0.562500
vt 0.125000 0.562500
vt 0.375000 0.562500
vt 0.375000 0.000000
vt 0.375000 0.125000
vt 0.625000 0.125000
vt 0.625000 0.000000
vt 0.375000 0.531250
vt 0.625000 0.531250
vt 0.125000 0.531250
vt 0.875000 0.531250
vt 0.375000 0.187500
vt 0.625000 0.187500
vt 0.875000 0.500000
vt 0.125000 0.500000
vt 0.625000 0.750000
vt 0.875000 0.750000
vt 0.375000 0.750000
vt 0.625000 0.000000
vt 0.375000 0.000000
vt 0.125000 0.750000
vt 0.125000 0.750000
vt 0.125000 0.750000
vt 0.375000 0.750000
vt 0.375000 0.750000
vt 0.625000 0.000000
vt 0.375000 0.000000
vt 0.625000 0.750000
vt 0.625000 0.750000
vt 0.875000 0.750000
vt 0.875000 0.750000
vt 0.625000 0.000000
vt 0.375000 0.000000
vt 0.375000 0.750000
vt 0.375000 1.000000
vt 0.625000 1.000000
vt 0.125000 0.750000
vt 0.625000 0.000000
vt 0.375000 0.000000
vn 0.9765 0.0000 0.2155
vn 0.0000 0.0000 1.0000
vn -1.0000 0.0000 0.0000
vn 0.0000 -1.0000 0.0000
vn 0.0000 1.0000 0.0000
vn -0.9950 0.0000 -0.0996
vn 1.0000 0.0000 -0.0000
vn -0.9998 0.0000 -0.0204
vn 0.9950 0.0000 -0.0996
vn -0.9765 0.0000 0.2155
vn 0.9998 0.0000 -0.0204
vn -0.2788 0.0000 0.9604
vn -0.9745 0.0000 0.2242
vn -0.9982 0.0000 -0.0593
vn 0.0000 0.0000 -1.0000
vn -0.9710 0.0000 -0.2391
s off
f 19/1/1 3/2/1 4/3/1 17/4/1
f 3/2/2 7/5/2 8/6/2 4/3/2
f 11/7/3 5/8/3 6/9/3 12/10/3
f 6/9/4 23/11/4 22/12/4 2/13/4
f 9/14/5 1/15/5 5/8/5 11/7/5
f 12/10/4 6/9/4 2/13/4 10/16/4
f 16/17/4 12/10/4 10/16/4 13/18/4
f 15/19/5 9/14/5 11/7/5 14/20/5
f 14/20/6 11/7/6 12/10/6 16/17/6
f 1/21/7 9/22/7 10/23/7 2/24/7
f 18/25/8 14/20/8 16/17/8 20/26/8
f 19/27/5 15/19/5 14/20/5 18/25/5
f 20/26/4 16/17/4 13/18/4 17/28/4
f 9/22/9 15/29/9 13/30/9 10/23/9
f 8/6/4 20/26/4 17/28/4 4/31/4
f 3/32/5 19/27/5 18/25/5 7/5/5
f 7/5/10 18/25/10 20/26/10 8/6/10
f 15/29/11 19/1/11 17/4/11 13/30/11
f 23/11/4 27/33/4 26/34/4 22/12/4
f 5/8/12 24/35/12 23/11/12 6/9/12
f 2/24/7 22/36/7 21/37/7 1/21/7
f 1/15/5 21/38/5 24/35/5 5/8/5
f 25/39/5 29/40/5 32/41/5 28/42/5
f 24/35/13 28/42/13 27/33/13 23/11/13
f 21/38/5 25/39/5 28/42/5 24/35/5
f 22/36/7 26/43/7 25/44/7 21/37/7
f 31/45/4 35/46/4 34/47/4 30/48/4
f 26/43/7 30/49/7 29/50/7 25/44/7
f 27/33/4 31/45/4 30/48/4 26/34/4
f 28/42/14 32/41/14 31/45/14 27/33/14
f 36/51/15 33/52/15 34/53/15 35/46/15
f 32/41/16 36/51/16 35/46/16 31/45/16
f 29/40/5 33/54/5 36/51/5 32/41/5
f 30/49/7 34/55/7 33/56/7 29/50/7
