# Blender v2.81 (sub 16) OBJ File: 'catgame.blend'
# www.blender.org
o Fork_Cube.092
v 0.011787 0.002788 -0.293311
v 0.011787 -0.002788 -0.293311
v 0.011787 0.002788 0.293311
v 0.011787 -0.002788 0.293311
v -0.011787 0.002788 -0.293311
v -0.011787 -0.002788 -0.293311
v -0.011787 0.002788 0.293311
v -0.011787 -0.002788 0.293311
v 0.011787 0.002788 -0.000000
v 0.011787 -0.002788 -0.000000
v -0.011787 0.002788 0.000000
v -0.011787 -0.002788 0.000000
v 0.026471 -0.002788 0.146656
v -0.026471 0.002788 0.146656
v 0.026471 0.002788 0.146656
v -0.026471 -0.002788 0.146656
v 0.027971 -0.002788 0.219984
v -0.027971 0.002788 0.219984
v 0.027971 0.002788 0.219984
v -0.027971 -0.002788 0.219984
v 0.049239 -0.002360 -0.392384
v 0.049239 0.002360 -0.392384
v 0.056445 -0.002360 -0.310854
v 0.056445 0.002360 -0.310854
v -0.048113 -0.002360 -0.392384
v -0.048113 0.002360 -0.392384
v -0.056445 -0.002360 -0.310854
v -0.056445 0.002360 -0.310854
v -0.027140 -0.002360 -0.290342
v -0.027140 0.002360 -0.290342
v -0.027140 -0.002360 -0.392384
v -0.027140 0.002360 -0.392384
v 0.028223 -0.002360 -0.290342
v 0.028223 0.002360 -0.392384
v 0.028223 0.002360 -0.290342
v 0.028223 -0.002360 -0.392384
v -0.035570 0.014933 -0.543587
v -0.035570 0.010448 -0.543587
v -0.035570 0.002242 -0.390881
v -0.035570 -0.002242 -0.390881
v -0.048639 0.014933 -0.543587
v -0.048639 0.010448 -0.543587
v -0.048639 0.002242 -0.390881
v -0.048639 -0.002242 -0.408990
v -0.035570 0.002242 -0.467234
v -0.035570 -0.002242 -0.467234
v -0.048639 0.002242 -0.467234
v -0.048639 -0.002242 -0.485343
v -0.010181 0.014927 -0.543207
v -0.010181 0.010442 -0.543207
v -0.010181 0.002236 -0.390501
v -0.010181 -0.002249 -0.390501
v -0.023251 0.014927 -0.543207
v -0.023251 0.010442 -0.543207
v -0.023251 0.002236 -0.390501
v -0.010181 0.002236 -0.466854
v -0.010181 -0.002249 -0.466854
v -0.023251 0.002236 -0.466854
v 0.048733 0.014927 -0.543919
v 0.048733 0.010442 -0.543919
v 0.048733 0.002236 -0.391213
v 0.048733 -0.002249 -0.391213
v 0.035664 0.014927 -0.543919
v 0.035664 0.010442 -0.543919
v 0.035664 0.002236 -0.391213
v 0.048733 0.002236 -0.467566
v 0.048733 -0.002249 -0.467566
v 0.035664 0.002236 -0.467566
v 0.019713 0.014927 -0.544122
v 0.019713 0.010442 -0.544122
v 0.019713 0.002236 -0.391416
v 0.019713 -0.002249 -0.391416
v 0.006644 0.014927 -0.544122
v 0.006644 0.010442 -0.544122
v 0.006644 0.002236 -0.391416
v 0.019713 0.002236 -0.467769
v 0.019713 -0.002249 -0.467769
v 0.006644 0.002236 -0.467769
vt 0.375000 0.218750
vt 0.375000 0.250000
vt 0.625000 0.250000
vt 0.625000 0.218750
vt 0.375000 0.500000
vt 0.625000 0.500000
vt 0.375000 0.625000
vt 0.375000 0.750000
vt 0.625000 0.750000
vt 0.625000 0.625000
vt 0.375000 1.000000
vt 0.625000 1.000000
vt 0.125000 0.625000
vt 0.125000 0.750000
vt 0.875000 0.750000
vt 0.875000 0.625000
vt 0.625000 0.562500
vt 0.875000 0.562500
vt 0.125000 0.562500
vt 0.375000 0.562500
vt 0.375000 0.000000
vt 0.375000 0.125000
vt 0.625000 0.125000
vt 0.625000 0.000000
vt 0.375000 0.531250
vt 0.625000 0.531250
vt 0.125000 0.531250
vt 0.875000 0.531250
vt 0.375000 0.187500
vt 0.625000 0.187500
vt 0.875000 0.500000
vt 0.125000 0.500000
vt 0.375000 0.000000
vt 0.375000 0.250000
vt 0.625000 0.250000
vt 0.625000 0.000000
vt 0.375000 0.375000
vt 0.375000 0.500000
vt 0.625000 0.500000
vt 0.625000 0.375000
vt 0.375000 0.750000
vt 0.625000 0.750000
vt 0.375000 0.937500
vt 0.375000 1.000000
vt 0.625000 1.000000
vt 0.625000 0.937500
vt 0.250000 0.500000
vt 0.250000 0.750000
vt 0.812500 0.500000
vt 0.812500 0.750000
vt 0.875000 0.750000
vt 0.875000 0.500000
vt 0.750000 0.750000
vt 0.750000 0.500000
vt 0.187500 0.500000
vt 0.187500 0.750000
vt 0.375000 0.875000
vt 0.625000 0.875000
vt 0.375000 0.312500
vt 0.625000 0.312500
vt 0.125000 0.500000
vt 0.125000 0.750000
vt 0.375000 0.125000
vt 0.375000 0.250000
vt 0.625000 0.250000
vt 0.625000 0.125000
vt 0.375000 0.625000
vt 0.375000 0.750000
vt 0.625000 0.750000
vt 0.625000 0.625000
vt 0.375000 1.000000
vt 0.625000 1.000000
vt 0.125000 0.625000
vt 0.125000 0.750000
vt 0.875000 0.750000
vt 0.875000 0.625000
vt 0.625000 0.500000
vt 0.875000 0.500000
vt 0.125000 0.500000
vt 0.375000 0.500000
vt 0.375000 0.000000
vt 0.625000 0.000000
vt 0.375000 0.125000
vt 0.375000 0.250000
vt 0.625000 0.250000
vt 0.625000 0.125000
vt 0.375000 0.750000
vt 0.375000 1.000000
vt 0.625000 1.000000
vt 0.625000 0.750000
vt 0.125000 0.625000
vt 0.125000 0.750000
vt 0.375000 0.625000
vt 0.125000 0.500000
vt 0.375000 0.500000
vt 0.375000 0.000000
vt 0.625000 0.000000
vt 0.375000 0.125000
vt 0.375000 0.250000
vt 0.625000 0.250000
vt 0.625000 0.125000
vt 0.375000 0.750000
vt 0.375000 1.000000
vt 0.625000 1.000000
vt 0.625000 0.750000
vt 0.125000 0.625000
vt 0.125000 0.750000
vt 0.375000 0.625000
vt 0.125000 0.500000
vt 0.375000 0.500000
vt 0.375000 0.000000
vt 0.625000 0.000000
vt 0.375000 0.125000
vt 0.375000 0.250000
vt 0.625000 0.250000
vt 0.625000 0.125000
vt 0.375000 0.750000
vt 0.375000 1.000000
vt 0.625000 1.000000
vt 0.625000 0.750000
vt 0.125000 0.625000
vt 0.125000 0.750000
vt 0.375000 0.625000
vt 0.125000 0.500000
vt 0.375000 0.500000
vt 0.375000 0.000000
vt 0.625000 0.000000
vn 0.9765 0.0000 0.2155
vn 0.0000 0.0000 1.0000
vn -1.0000 0.0000 0.0000
vn 0.0000 0.0000 -1.0000
vn 0.0000 1.0000 0.0000
vn 0.0000 -1.0000 -0.0000
vn -0.9950 0.0000 -0.0996
vn 1.0000 0.0000 -0.0000
vn -0.9998 0.0000 -0.0204
vn 0.9950 0.0000 -0.0996
vn -0.9765 0.0000 0.2155
vn 0.9998 0.0000 -0.0204
vn -0.9961 0.0000 0.0880
vn 0.5734 0.0000 -0.8193
vn 0.9948 0.0000 0.1017
vn -0.5879 0.0000 -0.8089
vn 0.0000 0.9865 0.1640
vn 0.1273 -0.9747 -0.1838
s off
f 19/1/1 3/2/1 4/3/1 17/4/1
f 3/2/2 7/5/2 8/6/2 4/3/2
f 11/7/3 5/8/3 6/9/3 12/10/3
f 5/8/4 1/11/4 2/12/4 6/9/4
f 9/13/5 1/14/5 5/8/5 11/7/5
f 12/10/6 6/9/6 2/15/6 10/16/6
f 16/17/6 12/10/6 10/16/6 13/18/6
f 15/19/5 9/13/5 11/7/5 14/20/5
f 14/20/7 11/7/7 12/10/7 16/17/7
f 1/21/8 9/22/8 10/23/8 2/24/8
f 18/25/9 14/20/9 16/17/9 20/26/9
f 19/27/5 15/19/5 14/20/5 18/25/5
f 20/26/6 16/17/6 13/18/6 17/28/6
f 9/22/10 15/29/10 13/30/10 10/23/10
f 8/6/6 20/26/6 17/28/6 4/31/6
f 3/32/5 19/27/5 18/25/5 7/5/5
f 7/5/11 18/25/11 20/26/11 8/6/11
f 15/29/12 19/1/12 17/4/12 13/30/12
f 21/33/13 23/34/13 24/35/13 22/36/13
f 29/37/14 27/38/14 28/39/14 30/40/14
f 27/38/15 25/41/15 26/42/15 28/39/15
f 36/43/2 21/44/2 22/45/2 34/46/2
f 29/47/5 31/48/5 25/41/5 27/38/5
f 35/49/6 34/50/6 22/51/6 24/52/6
f 28/39/6 26/42/6 32/53/6 30/54/6
f 33/55/5 36/56/5 31/48/5 29/47/5
f 25/41/2 31/57/2 32/58/2 26/42/2
f 33/59/4 29/37/4 30/40/4 35/60/4
f 23/34/16 33/59/16 35/60/16 24/35/16
f 23/61/5 21/62/5 36/56/5 33/55/5
f 30/54/6 32/53/6 34/50/6 35/49/6
f 31/57/2 36/43/2 34/46/2 32/58/2
f 45/63/8 39/64/8 40/65/8 46/66/8
f 47/67/3 41/68/3 42/69/3 48/70/3
f 41/68/4 37/71/4 38/72/4 42/69/4
f 45/73/17 37/74/17 41/68/17 47/67/17
f 48/70/18 42/69/18 38/75/18 46/76/18
f 44/77/6 48/70/6 46/76/6 40/78/6
f 39/79/5 45/73/5 47/67/5 43/80/5
f 43/80/3 47/67/3 48/70/3 44/77/3
f 37/81/8 45/63/8 46/66/8 38/82/8
f 56/83/8 51/84/8 52/85/8 57/86/8
f 53/87/4 49/88/4 50/89/4 54/90/4
f 56/91/17 49/92/17 53/87/17 58/93/17
f 51/94/5 56/91/5 58/93/5 55/95/5
f 49/96/8 56/83/8 57/86/8 50/97/8
f 66/98/8 61/99/8 62/100/8 67/101/8
f 63/102/4 59/103/4 60/104/4 64/105/4
f 66/106/17 59/107/17 63/102/17 68/108/17
f 61/109/5 66/106/5 68/108/5 65/110/5
f 59/111/8 66/98/8 67/101/8 60/112/8
f 76/113/8 71/114/8 72/115/8 77/116/8
f 73/117/4 69/118/4 70/119/4 74/120/4
f 76/121/17 69/122/17 73/117/17 78/123/17
f 71/124/5 76/121/5 78/123/5 75/125/5
f 69/126/8 76/113/8 77/116/8 70/127/8
