# Blender v2.81 (sub 16) OBJ File: 'catgame.blend'
# www.blender.org
o Window.001_Cube.025
v -1.119954 -1.653018 0.084890
v -1.118806 1.445167 0.084890
v -0.989623 -1.425039 -0.084890
v -0.988849 1.262224 -0.084890
v 1.119954 -1.576585 0.084890
v 1.155280 1.670731 0.084890
v 0.981713 -1.346782 -0.084890
v 1.017686 1.477037 -0.084890
v 0.134617 -1.399818 -0.084890
v 0.147397 1.337047 -0.084890
v 0.000000 -1.629621 0.084890
v 0.009803 1.530741 0.084890
v -1.119954 0.000000 0.084890
v -0.989997 0.144636 -0.084890
v 0.912768 0.148500 -0.084890
v 1.050362 -0.006887 0.084890
v 0.000000 0.000000 0.084890
v 0.137594 0.155386 -0.084890
v -0.120154 1.347798 -0.084890
v 1.155280 1.670731 -0.084890
v 0.912121 -0.004720 -0.084890
v -0.129957 0.144636 -0.084890
v -1.118806 1.445167 -0.084890
v 0.009803 1.530741 -0.084890
v -0.989623 0.003991 -0.084890
v 0.134617 0.002167 -0.084890
v 1.050362 0.097907 -0.084890
v 1.119954 -1.576585 -0.084890
v -0.127651 -1.401642 -0.084890
v -0.127651 0.003991 -0.084890
v -1.119954 0.104793 -0.084890
v -1.119954 -1.653018 -0.084890
v 0.000000 -1.629621 -0.084890
v 0.000000 0.104793 -0.084890
v 0.161068 1.308173 0.007456
v 0.990061 1.450596 0.007456
v 0.873434 0.184597 0.007456
v 0.158257 0.180007 0.007456
v -0.975952 1.242156 0.007456
v -0.119429 1.323719 0.007456
v -0.968165 0.161317 0.007456
v -0.164428 0.182166 0.007456
v 0.892602 -0.028489 0.007456
v 0.949911 -1.329897 0.007456
v 0.155299 -1.376157 0.007456
v 0.156539 -0.028019 0.007456
v -0.976391 -0.046437 0.007456
v -0.967551 -1.402186 0.007456
v -0.169471 -1.401430 0.007456
v -0.140491 -0.033395 0.007456
vt 0.500000 0.000000
vt 0.625000 0.000000
vt 0.625000 0.250000
vt 0.500000 0.250000
vt 0.493756 0.256244
vt 0.493756 0.368756
vt 0.493756 0.368756
vt 0.493756 0.256244
vt 0.500000 0.500000
vt 0.625000 0.500000
vt 0.625000 0.750000
vt 0.500000 0.750000
vt 0.500000 0.875000
vt 0.625000 0.875000
vt 0.625000 1.000000
vt 0.500000 1.000000
vt 0.250000 0.500000
vt 0.375000 0.500000
vt 0.375000 0.750000
vt 0.250000 0.750000
vt 0.750000 0.500000
vt 0.875000 0.500000
vt 0.875000 0.750000
vt 0.750000 0.750000
vt 0.125000 0.500000
vt 0.125000 0.750000
vt 0.493611 0.381389
vt 0.493611 0.493611
vt 0.493611 0.493611
vt 0.493611 0.381389
vt 0.381244 0.368756
vt 0.381244 0.368756
vt 0.375000 0.875000
vt 0.375000 1.000000
vt 0.514505 0.360495
vt 0.514505 0.264505
vt 0.514505 0.264505
vt 0.514505 0.360495
vt 0.375000 0.000000
vt 0.375000 0.250000
vt 0.609643 0.484643
vt 0.609643 0.390357
vt 0.625000 0.375000
vt 0.515357 0.484643
vt 0.515357 0.390357
vt 0.500000 0.375000
vt 0.610495 0.360495
vt 0.610495 0.264505
vt 0.381389 0.493611
vt 0.381389 0.381389
vt 0.375000 0.375000
vt 0.381244 0.256244
vt 0.609643 0.484643
vt 0.609643 0.390357
vt 0.610495 0.360495
vt 0.610495 0.264505
vt 0.515357 0.484643
vt 0.381389 0.493611
vt 0.381244 0.256244
vt 0.515357 0.390357
vt 0.381389 0.381389
vn -1.0000 0.0008 0.0003
vn 0.0069 -0.9031 -0.4294
vn 0.9977 -0.0644 -0.0199
vn 0.0000 0.0000 1.0000
vn 0.0473 -0.9989 0.0000
vn -0.0756 0.9971 0.0000
vn -0.1213 0.9926 0.0000
vn 0.0209 -0.9998 0.0000
vn -0.0047 -0.9599 -0.2804
vn -0.9594 0.0100 -0.2819
vn 0.9990 0.0429 0.0132
vn -0.0120 0.9592 -0.2824
vn -1.0000 0.0000 0.0000
vn 0.0000 0.0000 -1.0000
vn 0.1577 -0.9492 -0.2724
vn 0.0937 -0.9667 -0.2380
vn -0.9358 0.0799 -0.3434
vn -0.9620 -0.0462 -0.2690
vn 0.9828 0.0030 -0.1847
vn 0.9823 0.0031 -0.1873
vn 0.9831 -0.0054 -0.1829
vn -0.0589 0.9743 -0.2174
vn -0.9832 0.0230 -0.1813
vn -0.0144 0.9920 -0.1254
vn 0.0015 0.9500 -0.3122
vn 0.9744 -0.0004 -0.2248
g Window.001_Cube.025_Material.026
s off
f 13/1/1 2/2/1 23/3/1 31/4/1
f 25/5/2 30/6/2 50/7/2 47/8/2
f 27/9/3 20/10/3 6/11/3 16/12/3
f 17/13/4 12/14/4 2/15/4 13/16/4
f 33/17/5 28/18/5 5/19/5 11/20/5
f 24/21/6 23/22/6 2/23/6 12/24/6
f 20/10/7 24/21/7 12/24/7 6/11/7
f 32/25/8 33/17/8 11/20/8 1/26/8
f 16/12/4 6/11/4 12/14/4 17/13/4
f 26/27/9 21/28/9 43/29/9 46/30/9
f 30/6/10 29/31/10 49/32/10 50/7/10
f 5/19/4 16/12/4 17/13/4 11/33/4
f 11/33/4 17/13/4 13/16/4 1/34/4
f 28/18/11 27/9/11 16/12/11 5/19/11
f 22/35/12 14/36/12 41/37/12 42/38/12
f 1/39/13 13/1/13 31/4/13 32/40/13
f 8/41/14 10/42/14 24/43/14 20/10/14
f 15/44/14 8/41/14 20/10/14 27/9/14
f 10/42/14 18/45/14 34/46/14 24/43/14
f 18/45/14 15/44/14 27/9/14 34/46/14
f 19/47/14 4/48/14 23/3/14 24/43/14
f 4/48/14 14/36/14 31/4/14 23/3/14
f 22/35/14 19/47/14 24/43/14 34/46/14
f 14/36/14 22/35/14 34/46/14 31/4/14
f 7/49/14 21/28/14 27/9/14 28/18/14
f 9/50/14 7/49/14 28/18/14 33/51/14
f 26/27/14 9/50/14 33/51/14 34/46/14
f 21/28/14 26/27/14 34/46/14 27/9/14
f 25/5/14 3/52/14 32/40/14 31/4/14
f 3/52/14 29/31/14 33/51/14 32/40/14
f 29/31/14 30/6/14 34/46/14 33/51/14
f 30/6/14 25/5/14 31/4/14 34/46/14
f 10/42/15 8/41/15 36/53/15 35/54/15
f 4/48/16 19/47/16 40/55/16 39/56/16
f 8/41/17 15/44/17 37/57/17 36/53/17
f 21/28/18 7/49/18 44/58/18 43/29/18
f 14/36/19 4/48/19 39/56/19 41/37/19
f 3/52/20 25/5/20 47/8/20 48/59/20
f 18/45/21 10/42/21 35/54/21 38/60/21
f 7/49/22 9/50/22 45/61/22 44/58/22
f 19/47/23 22/35/23 42/38/23 40/55/23
f 29/31/24 3/52/24 48/59/24 49/32/24
f 15/44/25 18/45/25 38/60/25 37/57/25
f 9/50/26 26/27/26 46/30/26 45/61/26
g Window.001_Cube.025_Material.027
f 38/60/14 35/54/14 36/53/14 37/57/14
f 41/37/14 39/56/14 40/55/14 42/38/14
f 48/59/14 47/8/14 50/7/14 49/32/14
f 45/61/14 46/30/14 43/29/14 44/58/14
o Window_With_Blinds.001_Cube.026
v -1.145736 1.404470 -0.143381
v 1.289859 1.434876 -0.134224
v -1.146992 1.505154 -0.143459
v 1.288602 1.535560 -0.134302
v -1.145684 1.435498 -0.222035
v 1.289911 1.465903 -0.212878
v -1.144448 1.322961 -0.191913
v 1.291147 1.353367 -0.182756
v -1.144991 1.323066 -0.094722
v 1.290604 1.353473 -0.085565
v -1.146564 1.435668 -0.064776
v 1.289031 1.466074 -0.055619
v 0.329430 1.361279 -0.259440
v 1.283244 1.385779 -0.206287
v 0.381049 -0.490003 -0.200666
v 1.265022 -1.363196 -0.199562
v 0.806581 1.385779 -0.256636
v 0.916933 -1.317870 -0.285024
v 1.042723 1.275677 -0.269236
v 1.110169 -1.361880 -0.256636
v 0.784874 -0.963652 -0.256636
v 0.592762 1.345360 -0.260840
v 0.503079 -0.778558 -0.256636
v 0.446387 1.385779 -0.256636
v 0.458071 0.400392 -0.258038
v 1.274133 0.011292 -0.123181
v 0.938292 0.172570 -0.368705
v 1.076446 -0.043101 -0.262936
v 0.757785 0.270384 -0.258738
v 0.577565 0.268364 -0.316127
v -0.217000 1.365603 -0.259440
v -1.170814 1.390103 -0.206287
v -0.381648 0.408942 -0.200666
v -1.111425 -0.105480 -0.199562
v -0.694151 1.390103 -0.256636
v -0.849910 -0.009327 -0.285024
v -0.930293 1.280001 -0.269236
v -0.956571 -0.104164 -0.256636
v -0.633741 0.338321 -0.244834
v -0.480332 1.349685 -0.260840
v -0.491667 0.345783 -0.221765
v -0.333957 1.390103 -0.256636
v -0.335028 0.547499 -0.258038
v -1.161702 0.015616 -0.196903
v -0.825862 0.176894 -0.368705
v -0.964016 -0.038777 -0.262936
v -0.634742 0.417491 -0.258738
v -0.454521 0.415471 -0.316127
v -0.276014 0.773702 -0.258739
v -1.166259 0.520011 -0.164734
v -0.760006 0.600650 -0.312671
v -0.947155 0.437763 -0.266086
v -0.557537 0.700739 -0.259789
v -0.394239 0.719939 -0.286382
v -1.163981 0.267813 -0.146595
v -0.792935 0.388772 -0.437776
v -0.955585 0.199493 -0.361599
v -0.596139 0.559115 -0.356351
v -0.424380 0.567705 -0.398342
v -0.305521 0.660601 -0.262920
vt 0.750000 0.250000
vt 0.750000 0.490000
vt 0.978254 0.324164
vt 0.250000 0.250000
vt 0.478254 0.324164
vt 0.250000 0.490000
vt 1.000000 0.500000
vt 1.000000 1.000000
vt 0.800000 1.000000
vt 0.800000 0.500000
vt 0.891068 0.055836
vt 0.391068 0.055836
vt 0.600000 1.000000
vt 0.600000 0.500000
vt 0.608932 0.055836
vt 0.108932 0.055836
vt 0.400000 1.000000
vt 0.400000 0.500000
vt 0.521746 0.324164
vt 0.021746 0.324164
vt 0.200000 1.000000
vt 0.200000 0.500000
vt 0.000000 1.000000
vt 0.000000 0.500000
vt 0.750000 0.500000
vt 1.000000 0.500000
vt 1.000000 1.000000
vt 0.750000 1.000000
vt 0.244345 0.500000
vt 0.500000 0.500000
vt 0.500000 1.000000
vt 0.244344 1.000000
vt 0.122172 0.500000
vt 0.122172 1.000000
vt 0.000000 0.500000
vt 0.000000 1.000000
vt 0.000000 0.000000
vt 0.122172 0.000000
vt 0.244344 0.000000
vt 0.500000 0.000000
vt 0.750000 0.000000
vt 1.000000 0.000000
vt 0.750000 0.500000
vt 0.750000 1.000000
vt 1.000000 1.000000
vt 1.000000 0.500000
vt 0.244345 0.500000
vt 0.244344 1.000000
vt 0.500000 1.000000
vt 0.500000 0.500000
vt 0.122172 0.500000
vt 0.122172 1.000000
vt 0.000000 0.500000
vt 0.000000 1.000000
vt 0.000000 0.375000
vt 0.122172 0.375000
vt 0.244344 0.375000
vt 0.500000 0.375000
vt 0.750000 0.375000
vt 1.000000 0.375000
vt 0.750000 0.000000
vt 0.750000 0.250000
vt 1.000000 0.250000
vt 1.000000 0.000000
vt 0.244344 0.000000
vt 0.244345 0.250000
vt 0.500000 0.250000
vt 0.500000 0.000000
vt 0.122172 0.000000
vt 0.122172 0.250000
vt 0.000000 0.000000
vt 0.000000 0.250000
vn -0.9999 -0.0125 -0.0056
vn 0.9999 0.0125 0.0056
vn -0.0068 0.7482 -0.6634
vn 0.0069 -0.2585 -0.9660
vn 0.0125 -0.9999 0.0012
vn -0.0004 -0.2570 0.9664
vn -0.0118 0.7495 0.6619
vn 0.4842 0.0272 -0.8745
vn -0.4396 -0.0292 -0.8977
vn 0.3559 -0.0284 -0.9341
vn 0.1118 -0.0291 -0.9933
vn -0.4529 -0.0184 -0.8914
vn -0.2282 -0.0013 -0.9736
vn 0.1661 0.0482 -0.9849
vn 0.2890 0.0588 -0.9555
vn -0.2573 0.0131 -0.9663
vn 0.4277 -0.0261 -0.9035
vn -0.3438 -0.1246 -0.9308
vn 0.6832 -0.3035 -0.6641
vn -0.0968 -0.3295 -0.9392
vn -0.0771 -0.5741 -0.8151
vn 0.6632 -0.5963 -0.4523
vn 0.7668 -0.3492 -0.5386
vn -0.2321 -0.4676 -0.8529
vn -0.1101 -0.3381 -0.9346
vn 0.7148 -0.4113 -0.5656
vn -0.5823 -0.0725 -0.8097
vn -0.3447 -0.0220 -0.9385
vn 0.1123 0.0268 -0.9933
vn -0.1040 0.0375 -0.9939
vn -0.0778 0.0298 -0.9965
vn 0.1034 0.0131 -0.9946
vn -0.5579 0.1361 -0.8187
vn -0.0856 0.5417 -0.8362
vn -0.6277 0.3883 -0.6747
vn -0.2080 0.5979 -0.7741
vn 0.4180 0.2838 -0.8630
g Window_With_Blinds.001_Cube.026_Material.028
s off
f 51/62/27 53/63/27 55/64/27
f 52/65/28 56/66/28 54/67/28
f 53/68/29 54/69/29 56/70/29 55/71/29
f 51/62/27 55/64/27 57/72/27
f 52/65/28 58/73/28 56/66/28
f 55/71/30 56/70/30 58/74/30 57/75/30
f 51/62/27 57/72/27 59/76/27
f 52/65/28 60/77/28 58/73/28
f 57/75/31 58/74/31 60/78/31 59/79/31
f 51/62/27 59/76/27 61/80/27
f 52/65/28 62/81/28 60/77/28
f 59/79/32 60/78/32 62/82/32 61/83/32
f 51/62/27 61/80/27 53/63/27
f 52/65/28 54/67/28 62/81/28
f 61/83/33 62/82/33 54/84/33 53/85/33
g Window_With_Blinds.001_Cube.026_Material.029
f 78/86/34 76/87/34 66/88/34 70/89/34
f 79/90/35 77/91/35 68/92/35 71/93/35
f 77/91/36 78/86/36 70/89/36 68/92/36
f 80/94/37 79/90/37 71/93/37 73/95/37
f 75/96/38 80/94/38 73/95/38 65/97/38
f 63/98/39 74/99/39 80/94/39 75/96/39
f 74/99/40 72/100/40 79/90/40 80/94/40
f 67/101/41 69/102/41 78/86/41 77/91/41
f 72/100/42 67/101/42 77/91/42 79/90/42
f 69/102/43 64/103/43 76/87/43 78/86/43
f 96/104/44 88/105/44 84/106/44 94/107/44
f 97/108/45 89/109/45 86/110/45 95/111/45
f 95/111/46 86/110/46 88/105/46 96/104/46
f 98/112/47 91/113/47 89/109/47 97/108/47
f 93/114/48 83/115/48 91/113/48 98/112/48
f 110/116/49 93/114/49 98/112/49 109/117/49
f 109/117/50 98/112/50 97/108/50 108/118/50
f 106/119/51 95/111/51 96/104/51 107/120/51
f 108/118/52 97/108/52 95/111/52 106/119/52
f 107/120/53 96/104/53 94/107/53 105/121/53
f 87/122/54 102/123/54 100/124/54 82/125/54
f 90/126/55 103/127/55 101/128/55 85/129/55
f 85/129/56 101/128/56 102/123/56 87/122/56
f 92/130/57 104/131/57 103/127/57 90/126/57
f 81/132/58 99/133/58 104/131/58 92/130/58
f 102/123/59 107/120/59 105/121/59 100/124/59
f 103/127/60 108/118/60 106/119/60 101/128/60
f 101/128/61 106/119/61 107/120/61 102/123/61
f 104/131/62 109/117/62 108/118/62 103/127/62
f 99/133/63 110/116/63 109/117/63 104/131/63
