# Blender v2.81 (sub 16) OBJ File: 'catgame.blend'
# www.blender.org
o Cylinder_Cylinder.018
v 0.000000 -0.391606 0.000000
v 0.021930 0.537407 0.045538
v -0.000000 -0.391606 -0.131360
v 0.000000 0.539936 -0.165863
v 0.102702 -0.391606 -0.081902
v 0.129677 0.539936 -0.103414
v 0.128067 -0.391606 0.029230
v 0.161704 0.539936 0.036908
v 0.056995 -0.391606 0.118351
v 0.071965 0.539936 0.149437
v -0.056995 -0.391606 0.118351
v -0.071965 0.539936 0.149437
v -0.128067 -0.391606 0.029230
v -0.161704 0.539936 0.036908
v -0.102702 -0.391606 -0.081902
v -0.129677 0.539936 -0.103414
v 0.000000 0.000000 -0.288361
v 0.225449 0.000000 -0.179790
v 0.281131 0.000000 0.064166
v 0.125115 0.000000 0.259804
v -0.125115 0.000000 0.259804
v -0.281131 0.000000 0.064166
v -0.225450 0.000000 -0.179790
v 0.000000 0.246169 -0.227112
v 0.177563 0.246169 -0.141602
v 0.221417 0.246169 0.050537
v 0.098540 0.246169 0.204620
v -0.098540 0.246169 0.204620
v -0.221417 0.246169 0.050537
v -0.177563 0.246169 -0.141602
v -0.000000 0.427164 -0.096251
v 0.075252 0.427164 -0.060012
v 0.093838 0.427164 0.021418
v 0.041762 0.427164 0.086719
v -0.041762 0.427164 0.086719
v -0.093838 0.427164 0.021418
v -0.075252 0.427164 -0.060012
v -0.000000 0.672901 -0.050543
v -0.000000 0.681132 -0.044975
v 0.039516 0.672901 -0.031513
v 0.049276 0.672901 0.011247
v 0.021930 0.672901 0.045538
v -0.021930 0.672901 0.045538
v -0.049276 0.672901 0.011247
v -0.039516 0.672901 -0.031513
v -0.000000 0.537407 -0.050543
v -0.039516 0.537407 -0.031513
v 0.049276 0.537407 0.011247
v 0.039516 0.537407 -0.031513
v -0.049276 0.537407 0.011247
v -0.021930 0.537407 0.045538
v -0.000000 0.682392 -0.050543
v -0.000000 0.736695 -0.050543
v 0.039516 0.682392 -0.031513
v 0.049276 0.682392 0.011247
v 0.021930 0.682392 0.045538
v -0.021930 0.682392 0.045538
v -0.049276 0.682392 0.011247
v -0.039516 0.682392 -0.031513
v -0.000000 0.780850 -0.061287
v 0.035163 0.681132 -0.028042
v 0.043848 0.681132 0.010008
v 0.019514 0.681132 0.040521
v -0.019514 0.681132 0.040521
v -0.043848 0.681132 0.010008
v -0.035163 0.681132 -0.028042
v -0.000000 0.825938 -0.088146
v 0.039516 0.736695 -0.031513
v 0.049276 0.736695 0.011247
v 0.021930 0.736695 0.045538
v -0.021930 0.736695 0.045538
v -0.049276 0.736695 0.011247
v -0.039516 0.736695 -0.031513
v -0.000000 0.866538 -0.098168
v 0.047916 0.780850 -0.038212
v 0.059750 0.780850 0.013638
v 0.026591 0.780850 0.055218
v -0.026591 0.780850 0.055218
v -0.059750 0.780850 0.013638
v -0.047916 0.780850 -0.038212
v -0.000000 0.896080 -0.083461
v 0.068915 0.825938 -0.054958
v 0.085936 0.825938 0.019614
v 0.038245 0.825938 0.079417
v -0.038245 0.825938 0.079417
v -0.085936 0.825938 0.019614
v -0.068915 0.825938 -0.054958
v -0.000000 0.925427 -0.050543
v 0.076751 0.866538 -0.061207
v 0.095707 0.866538 0.021845
v 0.042594 0.866538 0.088447
v -0.042594 0.866538 0.088447
v -0.095707 0.866538 0.021845
v -0.076751 0.866538 -0.061207
v -0.000000 0.938292 -0.009979
v 0.065253 0.896080 -0.052037
v 0.081369 0.896080 0.018572
v 0.036213 0.896080 0.075196
v -0.036213 0.896080 0.075196
v -0.081369 0.896080 0.018572
v -0.065253 0.896080 -0.052037
v 0.039516 0.925427 -0.031513
v 0.049276 0.925427 0.011247
v 0.021930 0.925427 0.045538
v -0.021930 0.925427 0.045538
v -0.049276 0.925427 0.011247
v -0.039516 0.925427 -0.031513
v -0.000000 0.938625 0.000000
v 0.007802 0.938292 -0.006222
v 0.009728 0.938292 0.002220
v 0.004330 0.938292 0.008990
v -0.004330 0.938292 0.008990
v -0.009728 0.938292 0.002220
v -0.007802 0.938292 -0.006222
v 0.008468 1.295415 0.206280
v 0.008468 1.295415 -0.207992
v 0.008468 0.724375 -0.413079
v 0.187853 1.295415 0.102712
v 0.365465 0.724375 -0.206968
v 0.187853 1.295415 -0.104424
v 0.365464 0.724375 0.205256
v 0.008468 0.731681 -0.400899
v 0.008468 0.724375 0.411367
v 0.008468 1.973844 -0.000856
v -0.348527 0.724375 0.205256
v 0.008468 1.973844 -0.000856
v -0.348527 0.724375 -0.206968
v 0.008468 1.973844 -0.000856
v -0.170916 1.295415 0.102712
v -0.170916 1.295415 -0.104424
v 0.354916 0.731681 -0.200878
v -0.164517 1.295397 0.099017
v -0.164517 1.295397 -0.100730
v 0.008468 1.295397 -0.200603
v 0.181454 1.295397 -0.100730
v 0.354916 0.731681 0.199165
v 0.181454 1.295397 0.099017
v 0.008468 0.731681 0.399187
v 0.008468 1.295397 0.198891
v -0.337979 0.731681 0.199165
v -0.337979 0.731681 -0.200878
vt 0.750000 0.250000
vt 0.750000 0.490000
vt 0.937640 0.399638
vt 0.428571 1.000000
vt 0.571429 1.000000
vt 0.571429 1.000000
vt 0.428571 1.000000
vt 1.000000 0.937500
vt 1.000000 1.000000
vt 0.857143 1.000000
vt 0.857143 0.937500
vt 0.983983 0.196595
vt 0.000000 1.000000
vt 0.142857 1.000000
vt 0.142857 1.000000
vt 0.000000 1.000000
vt 0.714286 1.000000
vt 0.714286 0.937500
vt 0.854132 0.033767
vt 0.714286 1.000000
vt 0.714286 1.000000
vt 0.571429 1.000000
vt 0.571429 0.937500
vt 0.645868 0.033767
vt 0.857143 1.000000
vt 1.000000 1.000000
vt 1.000000 1.000000
vt 0.857143 1.000000
vt 0.428571 1.000000
vt 0.428571 0.937500
vt 0.516017 0.196595
vt 0.285714 1.000000
vt 0.285714 1.000000
vt 0.285714 1.000000
vt 0.285714 0.937500
vt 0.562360 0.399638
vt 0.142857 1.000000
vt 0.142857 0.937500
vt 0.000000 1.000000
vt 0.000000 0.937500
vt 0.142857 0.500000
vt 0.142857 0.750000
vt 0.000000 0.750000
vt 0.000000 0.500000
vt 0.285714 0.500000
vt 0.285714 0.750000
vt 0.428571 0.500000
vt 0.428571 0.750000
vt 0.571429 0.500000
vt 0.571429 0.750000
vt 0.714286 0.500000
vt 0.714286 0.750000
vt 0.857143 0.500000
vt 0.857143 0.750000
vt 1.000000 0.500000
vt 1.000000 0.750000
vt 0.142857 0.875000
vt 0.000000 0.875000
vt 0.285714 0.875000
vt 0.428571 0.875000
vt 0.571429 0.875000
vt 0.714286 0.875000
vt 0.857143 0.875000
vt 1.000000 0.875000
vt 0.714286 1.000000
vt 0.571429 1.000000
vt 0.428571 1.000000
vt 0.285714 1.000000
vt 0.142857 1.000000
vt 1.000000 1.000000
vt 0.857143 1.000000
vt 0.000000 1.000000
vt 1.000000 1.000000
vt 0.857143 1.000000
vt 0.142857 1.000000
vt 0.000000 1.000000
vt 0.714286 1.000000
vt 0.571429 1.000000
vt 0.428571 1.000000
vt 0.285714 1.000000
vt 0.571429 1.000000
vt 0.428571 1.000000
vt 0.285714 1.000000
vt 0.142857 1.000000
vt 1.000000 1.000000
vt 0.857143 1.000000
vt 0.000000 1.000000
vt 0.714286 1.000000
vt 1.000000 1.000000
vt 0.857143 1.000000
vt 0.142857 1.000000
vt 0.000000 1.000000
vt 0.714286 1.000000
vt 0.571429 1.000000
vt 0.428571 1.000000
vt 0.285714 1.000000
vt 1.000000 1.000000
vt 0.857143 1.000000
vt 0.142857 1.000000
vt 0.000000 1.000000
vt 0.714286 1.000000
vt 0.571429 1.000000
vt 0.428571 1.000000
vt 0.285714 1.000000
vt 0.428571 1.000000
vt 0.285714 1.000000
vt 0.142857 1.000000
vt 1.000000 1.000000
vt 0.857143 1.000000
vt 0.000000 1.000000
vt 0.714286 1.000000
vt 0.571429 1.000000
vt 1.000000 1.000000
vt 0.857143 1.000000
vt 0.142857 1.000000
vt 0.000000 1.000000
vt 0.714286 1.000000
vt 0.571429 1.000000
vt 0.428571 1.000000
vt 0.285714 1.000000
vt 0.857143 1.000000
vt 0.714286 1.000000
vt 0.571429 1.000000
vt 0.428571 1.000000
vt 0.285714 1.000000
vt 0.142857 1.000000
vt 1.000000 1.000000
vt 0.000000 1.000000
vt 0.285714 1.000000
vt 0.142857 1.000000
vt 1.000000 1.000000
vt 0.857143 1.000000
vt 0.000000 1.000000
vt 0.714286 1.000000
vt 0.571429 1.000000
vt 0.428571 1.000000
vt 0.250000 0.250000
vt 0.437640 0.399638
vt 0.250000 0.490000
vt 0.483983 0.196595
vt 0.354132 0.033767
vt 0.145868 0.033767
vt 0.016017 0.196595
vt 0.062360 0.399638
vt 0.457846 0.370000
vt 0.457846 0.130000
vt 0.354439 0.189702
vt 0.354439 0.310298
vt 0.042154 0.370000
vt 0.042154 0.130000
vt 0.042154 0.130000
vt 0.042154 0.370000
vt 0.250000 0.010000
vt 0.250000 0.129404
vt 0.250000 0.490000
vt 0.250000 0.370596
vt 0.354439 0.310298
vt 0.457846 0.370000
vt 0.145561 0.189702
vt 0.145561 0.310298
vt 0.145561 0.310298
vt 0.145561 0.189702
vt 0.750000 0.250000
vt 0.750000 0.250000
vt 0.750000 0.250000
vt 0.250000 0.490000
vt 0.250000 0.370596
vt 0.250000 0.010000
vt 0.250000 0.129404
vt 0.457846 0.130000
vt 0.354439 0.189702
vn 0.0000 -1.0000 0.0000
vn -0.0000 0.0000 1.0000
vn 0.3792 -0.4860 -0.7874
vn -0.4339 0.0000 -0.9010
vn 0.8520 -0.4860 -0.1945
vn 0.7818 -0.0000 0.6235
vn 0.6833 -0.4860 0.5449
vn 0.4339 -0.0000 -0.9010
vn 0.0000 -0.4860 0.8739
vn -0.9749 0.0000 -0.2225
vn -0.6833 -0.4860 0.5449
vn 0.9749 -0.0000 -0.2225
vn -0.8520 -0.4860 -0.1945
vn -0.7818 0.0000 0.6235
vn -0.3792 -0.4860 -0.7874
vn -0.4081 -0.3397 -0.8474
vn -0.9169 -0.3397 -0.2093
vn -0.7353 -0.3397 0.5864
vn -0.0000 -0.3397 0.9405
vn 0.7353 -0.3397 0.5864
vn 0.9169 -0.3397 -0.2093
vn 0.4081 -0.3397 -0.8474
vn -0.4234 0.2187 -0.8792
vn -0.9513 0.2187 -0.2171
vn -0.7629 0.2187 0.6084
vn -0.0000 0.2187 0.9758
vn 0.7629 0.2187 0.6084
vn 0.9513 0.2187 -0.2171
vn 0.4234 0.2187 -0.8792
vn -0.3636 0.5458 -0.7549
vn -0.8169 0.5458 -0.1865
vn -0.6551 0.5458 0.5224
vn -0.0000 0.5458 0.8379
vn 0.6551 0.5458 0.5224
vn 0.8169 0.5458 -0.1865
vn 0.3636 0.5458 -0.7549
vn 0.0190 0.9997 -0.0152
vn -0.0237 0.9997 0.0054
vn 0.0237 0.9997 0.0054
vn -0.0106 0.9997 0.0219
vn -0.0190 0.9997 -0.0152
vn 0.0106 0.9997 0.0219
vn 0.0000 0.9997 -0.0243
vn -0.1057 0.9699 0.2195
vn 0.1057 0.9699 0.2195
vn -0.2375 0.9699 0.0542
vn -0.1905 0.9699 -0.1519
vn 0.0000 0.9699 -0.2436
vn 0.1905 0.9699 -0.1519
vn 0.2375 0.9699 0.0542
vn -0.0000 -0.0899 0.9959
vn -0.7787 -0.0899 0.6210
vn -0.9710 -0.0899 -0.2216
vn 0.4321 -0.0899 -0.8973
vn -0.4321 -0.0899 -0.8973
vn 0.9710 -0.0899 -0.2216
vn 0.7787 -0.0899 0.6210
vn 0.4238 -0.2141 -0.8801
vn -0.4238 -0.2141 -0.8801
vn 0.9523 -0.2141 -0.2174
vn 0.7637 -0.2141 0.6090
vn -0.0000 -0.2141 0.9768
vn -0.7637 -0.2141 0.6090
vn -0.9523 -0.2141 -0.2174
vn 0.3823 -0.4729 -0.7939
vn -0.3823 -0.4729 -0.7939
vn 0.8590 -0.4729 -0.1961
vn 0.6889 -0.4729 0.5494
vn -0.0000 -0.4729 0.8811
vn -0.6889 -0.4729 0.5494
vn -0.8590 -0.4729 -0.1961
vn -0.7632 -0.2171 0.6086
vn -0.9517 -0.2171 -0.2172
vn 0.4235 -0.2171 -0.8795
vn -0.4235 -0.2171 -0.8795
vn 0.9517 -0.2171 -0.2172
vn 0.7632 -0.2171 0.6086
vn -0.0000 -0.2171 0.9761
vn 0.3959 0.4092 -0.8221
vn -0.3959 0.4092 -0.8221
vn 0.8895 0.4092 -0.2030
vn 0.7134 0.4092 0.5689
vn -0.0000 0.4092 0.9124
vn -0.7134 0.4092 0.5689
vn -0.8895 0.4092 -0.2030
vn 0.6857 0.7108 -0.1565
vn 0.5499 0.7108 0.4385
vn -0.0000 0.7108 0.7034
vn -0.5499 0.7108 0.4385
vn -0.6857 0.7108 -0.1565
vn 0.3052 0.7108 -0.6337
vn -0.3052 0.7108 -0.6337
vn -0.3237 0.9433 -0.0739
vn 0.1441 0.9433 -0.2991
vn -0.1441 0.9433 -0.2991
vn 0.3237 0.9433 -0.0739
vn 0.2596 0.9433 0.2070
vn -0.0000 0.9433 0.3320
vn -0.2596 0.9433 0.2070
vn 0.0161 0.9993 -0.0333
vn 0.0361 0.9993 -0.0082
vn 0.0289 0.9993 0.0230
vn -0.0000 0.9993 0.0370
vn -0.0289 0.9993 0.0231
vn -0.0361 0.9993 -0.0082
vn -0.0161 0.9993 -0.0333
vn -0.9549 -0.2970 -0.0000
vn -0.5694 0.8221 0.0000
vn -0.4774 -0.2970 -0.8269
vn 0.4779 0.2941 -0.8277
vn 0.4774 -0.2970 -0.8269
vn -0.4779 0.2941 -0.8277
vn 0.9549 -0.2970 0.0000
vn -0.9558 0.2941 0.0000
vn 0.4774 -0.2970 0.8269
vn -0.4779 0.2941 0.8277
vn -0.4774 -0.2970 0.8269
vn 0.4779 0.2941 0.8277
vn 0.9558 0.2941 0.0000
vn 0.2847 0.8221 0.4931
vn -0.2847 0.8221 -0.4931
vn 0.0014 -1.0000 0.0025
vn 0.0014 -1.0000 -0.0025
vn -0.0014 -1.0000 -0.0024
vn -0.2847 0.8221 0.4931
vn 0.2847 0.8221 -0.4931
vn 0.5694 0.8221 0.0000
vn -0.0014 -1.0000 0.0024
vn 0.0028 -1.0000 0.0000
vn -0.0028 -1.0000 0.0000
s off
f 1/1/1 3/2/1 5/3/1
f 51/4/2 2/5/2 42/6/2 43/7/2
f 31/8/3 4/9/3 6/10/3 32/11/3
f 1/1/1 5/3/1 7/12/1
f 46/13/4 47/14/4 45/15/4 38/16/4
f 32/11/5 6/10/5 8/17/5 33/18/5
f 1/1/1 7/12/1 9/19/1
f 2/5/6 48/20/6 41/21/6 42/6/6
f 33/18/7 8/17/7 10/22/7 34/23/7
f 1/1/1 9/19/1 11/24/1
f 49/25/8 46/26/8 38/27/8 40/28/8
f 34/23/9 10/22/9 12/29/9 35/30/9
f 1/1/1 11/24/1 13/31/1
f 47/14/10 50/32/10 44/33/10 45/15/10
f 35/30/11 12/29/11 14/34/11 36/35/11
f 1/1/1 13/31/1 15/36/1
f 48/20/12 49/25/12 40/28/12 41/21/12
f 36/35/13 14/34/13 16/37/13 37/38/13
f 1/1/1 15/36/1 3/2/1
f 50/32/14 51/4/14 43/7/14 44/33/14
f 37/38/15 16/37/15 4/39/15 31/40/15
f 15/41/16 23/42/16 17/43/16 3/44/16
f 13/45/17 22/46/17 23/42/17 15/41/17
f 11/47/18 21/48/18 22/46/18 13/45/18
f 9/49/19 20/50/19 21/48/19 11/47/19
f 7/51/20 19/52/20 20/50/20 9/49/20
f 5/53/21 18/54/21 19/52/21 7/51/21
f 3/55/22 17/56/22 18/54/22 5/53/22
f 23/42/23 30/57/23 24/58/23 17/43/23
f 22/46/24 29/59/24 30/57/24 23/42/24
f 21/48/25 28/60/25 29/59/25 22/46/25
f 20/50/26 27/61/26 28/60/26 21/48/26
f 19/52/27 26/62/27 27/61/27 20/50/27
f 18/54/28 25/63/28 26/62/28 19/52/28
f 17/56/29 24/64/29 25/63/29 18/54/29
f 30/57/30 37/38/30 31/40/30 24/58/30
f 29/59/31 36/35/31 37/38/31 30/57/31
f 28/60/32 35/30/32 36/35/32 29/59/32
f 27/61/33 34/23/33 35/30/33 28/60/33
f 26/62/34 33/18/34 34/23/34 27/61/34
f 25/63/35 32/11/35 33/18/35 26/62/35
f 24/64/36 31/8/36 32/11/36 25/63/36
f 42/6/6 41/21/6 55/65/6 56/66/6
f 43/7/2 42/6/2 56/66/2 57/67/2
f 44/33/14 43/7/14 57/67/14 58/68/14
f 45/15/10 44/33/10 58/68/10 59/69/10
f 40/28/8 38/27/8 52/70/8 54/71/8
f 38/16/4 45/15/4 59/69/4 52/72/4
f 41/21/12 40/28/12 54/71/12 55/65/12
f 14/34/37 12/29/37 51/4/37 50/32/37
f 8/17/38 6/10/38 49/25/38 48/20/38
f 16/37/39 14/34/39 50/32/39 47/14/39
f 6/10/40 4/9/40 46/26/40 49/25/40
f 10/22/41 8/17/41 48/20/41 2/5/41
f 4/39/42 16/37/42 47/14/42 46/13/42
f 12/29/43 10/22/43 2/5/43 51/4/43
f 54/71/44 52/70/44 39/73/44 61/74/44
f 52/72/45 59/69/45 66/75/45 39/76/45
f 55/65/46 54/71/46 61/74/46 62/77/46
f 56/66/47 55/65/47 62/77/47 63/78/47
f 57/67/48 56/66/48 63/78/48 64/79/48
f 58/68/49 57/67/49 64/79/49 65/80/49
f 59/69/50 58/68/50 65/80/50 66/75/50
f 64/79/51 63/78/51 70/81/51 71/82/51
f 65/80/52 64/79/52 71/82/52 72/83/52
f 66/75/53 65/80/53 72/83/53 73/84/53
f 61/74/54 39/73/54 53/85/54 68/86/54
f 39/76/55 66/75/55 73/84/55 53/87/55
f 62/77/56 61/74/56 68/86/56 69/88/56
f 63/78/57 62/77/57 69/88/57 70/81/57
f 68/86/58 53/85/58 60/89/58 75/90/58
f 53/87/59 73/84/59 80/91/59 60/92/59
f 69/88/60 68/86/60 75/90/60 76/93/60
f 70/81/61 69/88/61 76/93/61 77/94/61
f 71/82/62 70/81/62 77/94/62 78/95/62
f 72/83/63 71/82/63 78/95/63 79/96/63
f 73/84/64 72/83/64 79/96/64 80/91/64
f 75/90/65 60/89/65 67/97/65 82/98/65
f 60/92/66 80/91/66 87/99/66 67/100/66
f 76/93/67 75/90/67 82/98/67 83/101/67
f 77/94/68 76/93/68 83/101/68 84/102/68
f 78/95/69 77/94/69 84/102/69 85/103/69
f 79/96/70 78/95/70 85/103/70 86/104/70
f 80/91/71 79/96/71 86/104/71 87/99/71
f 86/104/72 85/103/72 92/105/72 93/106/72
f 87/99/73 86/104/73 93/106/73 94/107/73
f 82/98/74 67/97/74 74/108/74 89/109/74
f 67/100/75 87/99/75 94/107/75 74/110/75
f 83/101/76 82/98/76 89/109/76 90/111/76
f 84/102/77 83/101/77 90/111/77 91/112/77
f 85/103/78 84/102/78 91/112/78 92/105/78
f 89/109/79 74/108/79 81/113/79 96/114/79
f 74/110/80 94/107/80 101/115/80 81/116/80
f 90/111/81 89/109/81 96/114/81 97/117/81
f 91/112/82 90/111/82 97/117/82 98/118/82
f 92/105/83 91/112/83 98/118/83 99/119/83
f 93/106/84 92/105/84 99/119/84 100/120/84
f 94/107/85 93/106/85 100/120/85 101/115/85
f 97/117/86 96/114/86 102/121/86 103/122/86
f 98/118/87 97/117/87 103/122/87 104/123/87
f 99/119/88 98/118/88 104/123/88 105/124/88
f 100/120/89 99/119/89 105/124/89 106/125/89
f 101/115/90 100/120/90 106/125/90 107/126/90
f 96/114/91 81/113/91 88/127/91 102/121/91
f 81/116/92 101/115/92 107/126/92 88/128/92
f 107/126/93 106/125/93 113/129/93 114/130/93
f 102/121/94 88/127/94 95/131/94 109/132/94
f 88/128/95 107/126/95 114/130/95 95/133/95
f 103/122/96 102/121/96 109/132/96 110/134/96
f 104/123/97 103/122/97 110/134/97 111/135/97
f 105/124/98 104/123/98 111/135/98 112/136/98
f 106/125/99 105/124/99 112/136/99 113/129/99
f 108/137/100 109/138/100 95/139/100
f 108/137/101 110/140/101 109/138/101
f 108/137/102 111/141/102 110/140/102
f 108/137/103 112/142/103 111/141/103
f 108/137/104 113/143/104 112/142/104
f 108/137/105 114/144/105 113/143/105
f 108/137/106 95/139/106 114/144/106
f 119/145/107 121/146/107 118/147/107 120/148/107
f 127/149/108 125/150/108 140/151/108 141/152/108
f 121/146/109 123/153/109 115/154/109 118/147/109
f 122/155/110 134/156/110 135/157/110 131/158/110
f 123/153/111 125/150/111 129/159/111 115/154/111
f 141/152/112 133/160/112 134/156/112 122/155/112
f 125/150/113 127/149/113 130/161/113 129/159/113
f 140/151/114 132/162/114 133/160/114 141/152/114
f 124/163/2 128/164/2 126/165/2
f 127/149/115 117/166/115 116/167/115 130/161/115
f 138/168/116 139/169/116 132/162/116 140/151/116
f 117/166/117 119/145/117 120/148/117 116/167/117
f 136/170/118 137/171/118 139/169/118 138/168/118
f 131/158/119 135/157/119 137/171/119 136/170/119
f 123/153/120 121/146/120 136/170/120 138/168/120
f 117/166/121 127/149/121 141/152/121 122/155/121
f 118/147/122 115/154/122 139/169/122 137/171/122
f 116/167/123 120/148/123 135/157/123 134/156/123
f 130/161/124 116/167/124 134/156/124 133/160/124
f 125/150/125 123/153/125 138/168/125 140/151/125
f 119/145/126 117/166/126 122/155/126 131/158/126
f 121/146/127 119/145/127 131/158/127 136/170/127
f 115/154/128 129/159/128 132/162/128 139/169/128
f 120/148/129 118/147/129 137/171/129 135/157/129
f 129/159/130 130/161/130 133/160/130 132/162/130
