# Blender v2.81 (sub 16) OBJ File: 'catgame.blend'
# www.blender.org
o Magazines_Cube.019
v -0.089670 -0.023334 0.525239
v -0.089670 0.009161 0.525239
v -0.299999 -0.023334 -0.357296
v -0.299999 0.009161 -0.357296
v 0.463509 -0.023334 0.394373
v 0.463509 0.009161 0.394373
v 0.253180 -0.023334 -0.488163
v 0.253180 0.009161 -0.488163
v -0.239762 -0.050605 0.510732
v -0.239762 0.259777 0.510732
v -0.239762 -0.050605 -0.382708
v -0.239762 0.259777 -0.382708
v 0.328686 -0.050605 0.510732
v 0.328686 0.259777 0.510732
v 0.328686 -0.050605 -0.382708
v 0.328686 0.259777 -0.382708
v -0.354892 0.151514 0.506864
v -0.354892 0.184010 0.506864
v -0.258148 0.151514 -0.395215
v -0.258148 0.184010 -0.395215
v 0.210213 0.151514 0.568418
v 0.210213 0.184010 0.568418
v 0.306958 0.151514 -0.333662
v 0.306958 0.184010 -0.333662
v -0.333355 0.341727 0.473531
v -0.357737 0.360573 0.463222
v -0.673362 -0.075314 -0.032134
v -0.694450 -0.054008 -0.049335
v -0.072160 0.405699 -0.027285
v -0.096542 0.424546 -0.037594
v -0.342001 -0.050106 -0.463822
v -0.363089 -0.047289 -0.481023
v -0.419076 0.164254 0.294021
v -0.447246 0.178613 0.286523
v -0.229643 0.260586 -0.233206
v -0.257813 0.274946 -0.240704
v -0.545599 0.018018 0.111975
v -0.323735 0.076602 -0.409113
v -0.517445 0.004136 0.120375
v -0.351890 0.090483 -0.417513
vt 0.375000 0.000000
vt 0.625000 0.000000
vt 0.625000 0.250000
vt 0.375000 0.250000
vt 0.625000 0.500000
vt 0.375000 0.500000
vt 0.625000 0.750000
vt 0.375000 0.750000
vt 0.625000 1.000000
vt 0.375000 1.000000
vt 0.125000 0.500000
vt 0.125000 0.750000
vt 0.875000 0.500000
vt 0.875000 0.750000
vt 0.375000 0.000000
vt 0.625000 0.000000
vt 0.625000 0.250000
vt 0.375000 0.250000
vt 0.625000 0.500000
vt 0.375000 0.500000
vt 0.625000 0.750000
vt 0.375000 0.750000
vt 0.625000 1.000000
vt 0.375000 1.000000
vt 0.125000 0.500000
vt 0.125000 0.750000
vt 0.875000 0.500000
vt 0.875000 0.750000
vt 0.375000 0.000000
vt 0.625000 0.000000
vt 0.625000 0.250000
vt 0.375000 0.250000
vt 0.625000 0.500000
vt 0.375000 0.500000
vt 0.625000 0.750000
vt 0.375000 0.750000
vt 0.625000 1.000000
vt 0.375000 1.000000
vt 0.125000 0.500000
vt 0.125000 0.750000
vt 0.875000 0.500000
vt 0.875000 0.750000
vt 0.375000 0.187500
vt 0.625000 0.187500
vt 0.625000 0.250000
vt 0.375000 0.250000
vt 0.625000 0.500000
vt 0.375000 0.500000
vt 0.375000 0.625000
vt 0.625000 0.625000
vt 0.625000 0.750000
vt 0.375000 0.750000
vt 0.625000 1.000000
vt 0.375000 1.000000
vt 0.125000 0.625000
vt 0.125000 0.750000
vt 0.875000 0.625000
vt 0.875000 0.750000
vt 0.625000 0.562500
vt 0.875000 0.562500
vt 0.125000 0.562500
vt 0.375000 0.562500
vt 0.375000 0.000000
vt 0.625000 0.000000
vt 0.625000 0.125000
vt 0.375000 0.125000
vt 0.125000 0.500000
vt 0.875000 0.500000
vn -0.9728 0.0000 0.2318
vn -0.2302 0.0000 -0.9731
vn 0.9728 0.0000 -0.2318
vn 0.2302 0.0000 0.9731
vn 0.0000 -1.0000 0.0000
vn 0.0000 1.0000 0.0000
vn -1.0000 0.0000 -0.0000
vn -0.0000 0.0000 -1.0000
vn 1.0000 0.0000 0.0000
vn -0.0000 0.0000 1.0000
vn -0.9943 0.0000 -0.1066
vn 0.1083 0.0000 -0.9941
vn 0.9943 0.0000 0.1066
vn -0.1083 0.0000 0.9941
vn -0.6032 -0.3093 0.7351
vn -0.3046 -0.9141 -0.2676
vn 0.5254 0.4414 -0.7274
vn 0.4753 0.8068 0.3509
vn 0.6692 -0.7207 0.1809
vn -0.6721 0.7176 -0.1827
vn -0.7690 0.6131 -0.1809
vn 0.7687 -0.6135 0.1807
vn 0.4539 0.4842 -0.7480
vn -0.5293 -0.4529 0.7174
vn 0.5182 0.3002 -0.8008
vn 0.6004 -0.7594 0.2508
vn -0.6050 0.7495 -0.2687
vn -0.4602 -0.5081 0.7280
s off
f 1/1/1 2/2/1 4/3/1 3/4/1
f 3/4/2 4/3/2 8/5/2 7/6/2
f 7/6/3 8/5/3 6/7/3 5/8/3
f 5/8/4 6/7/4 2/9/4 1/10/4
f 3/11/5 7/6/5 5/8/5 1/12/5
f 8/5/6 4/13/6 2/14/6 6/7/6
f 9/15/7 10/16/7 12/17/7 11/18/7
f 11/18/8 12/17/8 16/19/8 15/20/8
f 15/20/9 16/19/9 14/21/9 13/22/9
f 13/22/10 14/21/10 10/23/10 9/24/10
f 11/25/5 15/20/5 13/22/5 9/26/5
f 16/19/6 12/27/6 10/28/6 14/21/6
f 17/29/11 18/30/11 20/31/11 19/32/11
f 19/32/12 20/31/12 24/33/12 23/34/12
f 23/34/13 24/33/13 22/35/13 21/36/13
f 21/36/14 22/35/14 18/37/14 17/38/14
f 19/39/5 23/34/5 21/36/5 17/40/5
f 24/33/6 20/41/6 18/42/6 22/35/6
f 39/43/15 37/44/15 28/45/15 27/46/15
f 27/46/16 28/45/16 32/47/16 31/48/16
f 35/49/17 36/50/17 30/51/17 29/52/17
f 29/52/18 30/51/18 26/53/18 25/54/18
f 33/55/19 35/49/19 29/52/19 25/56/19
f 36/50/20 34/57/20 26/58/20 30/51/20
f 40/59/21 37/60/21 34/57/21 36/50/21
f 39/61/22 38/62/22 35/49/22 33/55/22
f 38/62/23 40/59/23 36/50/23 35/49/23
f 25/63/24 26/64/24 34/65/24 33/66/24
f 31/48/25 32/47/25 40/59/25 38/62/25
f 27/67/26 31/48/26 38/62/26 39/61/26
f 32/47/27 28/68/27 37/60/27 40/59/27
f 33/66/28 34/65/28 37/44/28 39/43/28
