# Blender v2.81 (sub 16) OBJ File: 'catgame.blend'
# www.blender.org
o Horizontal_Pic_Cube.016
v 0.819788 0.480391 -0.019983
v 1.238512 0.794783 0.029977
v -0.819556 0.480391 -0.027943
v -1.000105 0.586070 0.019108
v 0.819788 -0.480391 -0.019983
v 1.066533 -0.715524 0.029142
v -0.819556 -0.480391 -0.027943
v -1.129801 -0.622390 0.018478
v -0.999872 0.586070 -0.028818
v 1.238744 0.794783 -0.017949
v -1.129569 -0.622390 -0.029448
v 1.066766 -0.715524 -0.018784
v -0.772947 0.445386 0.006296
v 0.793163 0.444657 0.013900
v -0.768332 -0.443945 0.006318
v 0.795078 -0.452898 0.013909
vt 0.375000 0.000000
vt 0.375000 0.250000
vt 0.625000 0.250000
vt 0.625000 0.000000
vt 0.375000 0.500000
vt 0.625000 0.500000
vt 0.375000 0.750000
vt 0.625000 0.750000
vt 0.375000 1.000000
vt 0.625000 1.000000
vt 0.147540 0.727460
vt 0.147540 0.727460
vt 0.147540 0.522540
vt 0.147540 0.522540
vt 0.875000 0.750000
vt 0.875000 0.500000
vt 0.125000 0.500000
vt 0.125000 0.750000
vt 0.352460 0.522540
vt 0.352460 0.727460
vt 0.352460 0.727460
vt 0.352460 0.522540
vn -0.0928 0.9957 -0.0005
vn -0.9943 0.1067 -0.0048
vn -0.0424 -0.9991 -0.0002
vn 0.9936 -0.1131 0.0048
vn 0.0033 -0.6932 -0.7208
vn -0.0049 -0.0000 1.0000
vn 0.0049 0.0000 -1.0000
vn -0.7971 -0.0008 -0.6039
vn 0.5735 0.0014 -0.8192
vn 0.0054 0.7282 -0.6853
s off
f 10/1/1 9/2/1 4/3/1 2/4/1
f 9/2/2 11/5/2 8/6/2 4/3/2
f 11/5/3 12/7/3 6/8/3 8/6/3
f 12/7/4 10/9/4 2/10/4 6/8/4
f 1/11/5 14/12/5 13/13/5 3/14/5
f 8/6/6 6/8/6 2/15/6 4/16/6
f 3/14/7 9/17/7 10/18/7 1/11/7
f 7/19/7 11/5/7 9/17/7 3/14/7
f 5/20/7 12/7/7 11/5/7 7/19/7
f 1/11/7 10/18/7 12/7/7 5/20/7
f 13/13/7 14/12/7 16/21/7 15/22/7
f 5/20/8 16/21/8 14/12/8 1/11/8
f 3/14/9 13/13/9 15/22/9 7/19/9
f 7/19/10 15/22/10 16/21/10 5/20/10
