# Blender v2.81 (sub 16) OBJ File: 'catgame.blend'
# www.blender.org
o TV_Cube.003
v -1.518447 -0.122128 -0.076858
v -1.294081 1.451071 -0.076858
v -1.685592 -0.267127 0.077107
v -1.421225 1.586545 0.077107
v 1.484686 -0.122128 -0.076858
v 1.484686 1.668941 -0.076858
v 1.629684 -0.267127 0.077107
v 1.629684 1.825753 0.077107
v -1.685592 -0.267127 -0.076858
v -1.421225 1.586545 -0.076858
v 1.629684 1.825753 -0.076858
v 1.629684 -0.267127 -0.076858
v -1.518447 -0.122128 0.029206
v -1.294081 1.451071 0.029206
v 1.484686 1.668941 0.029206
v 1.484686 -0.122128 0.029206
v -0.077662 -0.303217 0.049638
v -0.077662 -0.392623 0.049638
v -0.077662 -0.303217 -0.055429
v -0.077662 -0.392623 -0.055429
v 0.033463 -0.303217 0.049638
v 0.033463 -0.392623 0.049638
v 0.033463 -0.303217 -0.055429
v 0.033463 -0.392623 -0.055429
v -0.392425 -0.461880 0.019047
v -0.392425 -0.502090 0.019047
v -0.392425 -0.502090 -0.024838
v -0.392425 -0.461880 -0.024838
v -0.045307 -0.461880 -0.314568
v -0.045307 -0.502090 -0.314568
v 0.001108 -0.502090 -0.314568
v 0.001108 -0.461880 -0.314568
v 0.348226 -0.461880 -0.024838
v 0.348226 -0.502090 -0.024838
v 0.348226 -0.502090 0.019047
v 0.348226 -0.461880 0.019047
v 0.001108 -0.461880 0.376448
v 0.001108 -0.502090 0.376448
v -0.045307 -0.502090 0.376448
v -0.045307 -0.461880 0.376448
v -0.077662 -0.253123 -0.055429
v -0.077662 -0.253123 0.049638
v 0.033463 -0.253123 -0.055429
v 0.033463 -0.253123 0.049638
vt 0.375000 0.000000
vt 0.375000 0.250000
vt 0.625000 0.250000
vt 0.625000 0.000000
vt 0.375000 0.500000
vt 0.625000 0.500000
vt 0.375000 0.750000
vt 0.625000 0.750000
vt 0.394264 0.988752
vt 0.394264 0.988752
vt 0.392642 0.761159
vt 0.392642 0.761159
vt 0.125000 0.500000
vt 0.125000 0.750000
vt 0.875000 0.750000
vt 0.875000 0.500000
vt 0.375000 1.000000
vt 0.625000 1.000000
vt 0.605646 0.988200
vt 0.607328 0.761673
vt 0.605646 0.988200
vt 0.607328 0.761673
vt 0.375000 0.750000
vt 0.375000 0.750000
vt 0.375000 1.000000
vt 0.375000 1.000000
vt 0.625000 0.500000
vt 0.625000 0.750000
vt 0.875000 0.750000
vt 0.875000 0.500000
vt 0.375000 0.000000
vt 0.375000 0.250000
vt 0.625000 0.250000
vt 0.625000 0.000000
vt 0.625000 0.000000
vt 0.375000 0.000000
vt 0.625000 0.250000
vt 0.375000 0.250000
vt 0.375000 0.250000
vt 0.375000 0.500000
vt 0.625000 0.500000
vt 0.625000 0.250000
vt 0.375000 0.500000
vt 0.375000 0.500000
vt 0.375000 0.750000
vt 0.625000 0.750000
vt 0.625000 0.500000
vt 0.375000 0.750000
vt 0.375000 1.000000
vt 0.625000 1.000000
vt 0.625000 0.750000
vt 0.625000 1.000000
vt 0.125000 0.500000
vt 0.125000 0.750000
vt 0.375000 0.500000
vt 0.375000 0.250000
vt 0.375000 0.000000
vn -0.9900 0.1412 0.0000
vn -0.0000 0.0000 1.0000
vn 1.0000 0.0000 0.0000
vn 0.0000 1.0000 0.0000
vn 0.0000 -1.0000 0.0000
vn -0.0782 0.9969 0.0000
vn -0.0000 0.0000 -1.0000
vn 0.9900 -0.1412 0.0000
vn 0.0782 -0.9969 0.0000
vn -1.0000 0.0000 0.0000
vn -0.0967 0.0000 0.9953
vn 0.3285 -0.9445 0.0000
vn -0.0967 0.0000 -0.9953
vn -0.4501 0.8930 0.0000
vn -0.9923 0.0000 -0.1239
vn 0.0000 -0.9212 0.3891
vn 0.9923 0.0000 -0.1239
vn 0.0000 0.8528 -0.5222
vn 0.0967 0.0000 -0.9953
vn -0.3285 -0.9445 0.0000
vn 0.0967 0.0000 0.9953
vn 0.4501 0.8930 0.0000
vn 0.9951 0.0000 0.0985
vn 0.0000 -0.9482 -0.3176
vn -0.9951 0.0000 0.0985
vn 0.0000 0.8996 0.4367
s off
f 9/1/1 3/2/1 4/3/1 10/4/1
f 3/2/2 7/5/2 8/6/2 4/3/2
f 7/5/3 12/7/3 11/8/3 8/6/3
f 1/9/4 13/10/4 16/11/4 5/12/4
f 3/13/5 9/14/5 12/7/5 7/5/5
f 8/6/6 11/8/6 10/15/6 4/16/6
f 1/9/7 9/17/7 10/18/7 2/19/7
f 6/20/7 11/8/7 12/7/7 5/12/7
f 5/12/7 12/7/7 9/17/7 1/9/7
f 2/19/7 10/18/7 11/8/7 6/20/7
f 16/11/7 13/10/7 14/21/7 15/22/7
f 2/19/8 14/21/8 13/10/8 1/9/8
f 6/20/9 15/22/9 14/21/9 2/19/9
f 5/12/10 16/11/10 15/22/10 6/20/10
f 21/23/2 44/24/2 42/25/2 17/26/2
f 24/27/5 22/28/5 18/29/5 20/30/5
f 25/31/10 28/32/10 27/33/10 26/34/10
f 18/35/11 17/36/11 25/31/11 26/34/11
f 20/37/12 18/35/12 26/34/12 27/33/12
f 19/38/13 20/37/13 27/33/13 28/32/13
f 17/36/14 19/38/14 28/32/14 25/31/14
f 29/39/7 32/40/7 31/41/7 30/42/7
f 20/37/15 19/38/15 29/39/15 30/42/15
f 24/27/16 20/37/16 30/42/16 31/41/16
f 23/43/17 24/27/17 31/41/17 32/40/17
f 19/38/18 23/43/18 32/40/18 29/39/18
f 33/44/3 36/45/3 35/46/3 34/47/3
f 24/27/19 23/43/19 33/44/19 34/47/19
f 22/28/20 24/27/20 34/47/20 35/46/20
f 21/23/21 22/28/21 35/46/21 36/45/21
f 23/43/22 21/23/22 36/45/22 33/44/22
f 37/48/2 40/49/2 39/50/2 38/51/2
f 22/28/23 21/23/23 37/48/23 38/51/23
f 18/52/24 22/28/24 38/51/24 39/50/24
f 17/26/25 18/52/25 39/50/25 40/49/25
f 21/23/26 17/26/26 40/49/26 37/48/26
f 41/53/4 42/54/4 44/24/4 43/55/4
f 19/38/7 41/56/7 43/55/7 23/43/7
f 17/36/10 42/57/10 41/56/10 19/38/10
f 23/43/3 43/55/3 44/24/3 21/23/3
