# Blender v2.81 (sub 16) OBJ File: 'catgame.blend'
# www.blender.org
o DVDs_Cube.076
v 0.024756 -0.276243 0.164825
v 0.024756 0.276243 0.164825
v -0.026753 -0.276243 0.164825
v -0.026753 0.276243 0.164825
v 0.024756 -0.276243 -0.151600
v 0.017913 -0.276243 -0.164825
v 0.017913 0.276243 -0.164825
v 0.024756 0.276243 -0.151600
v -0.017913 -0.276243 -0.164825
v -0.026753 -0.276243 -0.151600
v -0.026753 0.276243 -0.151600
v -0.017913 0.276243 -0.164825
v -0.029657 -0.274837 0.163422
v -0.029657 0.271362 0.163422
v -0.081165 -0.274837 0.163422
v -0.081165 0.271362 0.163422
v -0.029657 -0.274837 -0.153004
v -0.036500 -0.274837 -0.166229
v -0.036500 0.271362 -0.166229
v -0.029657 0.271362 -0.153004
v -0.072326 -0.274837 -0.166229
v -0.081165 -0.274837 -0.153004
v -0.081165 0.271362 -0.153004
v -0.072326 0.271362 -0.166229
v -0.078018 -0.274873 0.166804
v -0.078018 0.271362 0.166804
v -0.129526 -0.274873 0.166804
v -0.129526 0.271362 0.166804
v -0.078018 -0.274873 -0.149622
v -0.084861 -0.274873 -0.162847
v -0.084861 0.271362 -0.162847
v -0.078018 0.271362 -0.149622
v -0.120686 -0.274873 -0.162847
v -0.129526 -0.274873 -0.149622
v -0.129526 0.271362 -0.149622
v -0.120686 0.271362 -0.162847
v -0.132431 -0.276110 0.165400
v -0.132431 0.266482 0.165400
v -0.183939 -0.276110 0.165400
v -0.183939 0.266482 0.165400
v -0.132431 -0.276110 -0.151026
v -0.139274 -0.276110 -0.164251
v -0.139274 0.266482 -0.164251
v -0.132431 0.266482 -0.151026
v -0.175099 -0.276110 -0.164251
v -0.183939 -0.276110 -0.151026
v -0.183939 0.266482 -0.151026
v -0.175099 0.266482 -0.164251
v -0.177656 -0.275884 0.172731
v -0.177656 0.270386 0.172731
v -0.229165 -0.275884 0.172731
v -0.229165 0.270386 0.172731
v -0.177656 -0.275884 -0.143695
v -0.184499 -0.275884 -0.156920
v -0.184499 0.270386 -0.156920
v -0.177656 0.270386 -0.143695
v -0.220325 -0.275884 -0.156920
v -0.229165 -0.275884 -0.143695
v -0.229165 0.270386 -0.143695
v -0.220325 0.270386 -0.156920
v -0.232069 -0.275951 0.171326
v -0.232069 0.265506 0.171327
v -0.283578 -0.275951 0.171326
v -0.283578 0.265506 0.171327
v -0.232069 -0.275951 -0.145099
v -0.238912 -0.275951 -0.158324
v -0.238912 0.265506 -0.158324
v -0.232069 0.265506 -0.145099
v -0.274738 -0.275951 -0.158324
v -0.283578 -0.275951 -0.145099
v -0.283578 0.265506 -0.145099
v -0.274738 0.265506 -0.158324
v -0.280430 -0.274821 0.174709
v -0.280430 0.265506 0.174709
v -0.331938 -0.274821 0.174709
v -0.331938 0.265506 0.174709
v -0.280430 -0.274821 -0.141717
v -0.287273 -0.274821 -0.154942
v -0.287273 0.265506 -0.154942
v -0.280430 0.265506 -0.141717
v -0.323099 -0.274821 -0.154942
v -0.331938 -0.274821 -0.141717
v -0.331938 0.265506 -0.141717
v -0.323099 0.265506 -0.154942
v -0.334843 -0.274948 0.173305
v -0.334843 0.260625 0.173305
v -0.386351 -0.274948 0.173305
v -0.386351 0.260625 0.173305
v -0.334843 -0.274948 -0.143121
v -0.341686 -0.274948 -0.156346
v -0.341686 0.260625 -0.156346
v -0.334843 0.260625 -0.143121
v -0.377511 -0.274948 -0.156346
v -0.386351 -0.274948 -0.143121
v -0.386351 0.260625 -0.143121
v -0.377511 0.260625 -0.156346
vt 0.375000 0.260030
vt 0.375000 0.489970
vt 0.625000 0.489970
vt 0.625000 0.260030
vt 0.625000 0.510030
vt 0.625000 0.750000
vt 0.875000 0.750000
vt 0.875000 0.510030
vt 0.864970 0.500000
vt 0.635030 0.500000
vt 0.375000 0.750000
vt 0.375000 1.000000
vt 0.625000 1.000000
vt 0.375000 0.000000
vt 0.375000 0.239970
vt 0.625000 0.239970
vt 0.625000 0.000000
vt 0.375000 0.510030
vt 0.125000 0.510030
vt 0.125000 0.750000
vt 0.364970 0.500000
vt 0.135030 0.500000
vt 0.375000 0.260030
vt 0.375000 0.489970
vt 0.625000 0.489970
vt 0.625000 0.260030
vt 0.625000 0.510030
vt 0.625000 0.750000
vt 0.875000 0.750000
vt 0.875000 0.510030
vt 0.864970 0.500000
vt 0.635030 0.500000
vt 0.375000 0.750000
vt 0.375000 1.000000
vt 0.625000 1.000000
vt 0.375000 0.000000
vt 0.375000 0.239970
vt 0.625000 0.239970
vt 0.625000 0.000000
vt 0.375000 0.510030
vt 0.125000 0.510030
vt 0.125000 0.750000
vt 0.364970 0.500000
vt 0.135030 0.500000
vt 0.375000 0.260030
vt 0.375000 0.489970
vt 0.625000 0.489970
vt 0.625000 0.260030
vt 0.625000 0.510030
vt 0.625000 0.750000
vt 0.875000 0.750000
vt 0.875000 0.510030
vt 0.864970 0.500000
vt 0.635030 0.500000
vt 0.375000 0.750000
vt 0.375000 1.000000
vt 0.625000 1.000000
vt 0.375000 0.000000
vt 0.375000 0.239970
vt 0.625000 0.239970
vt 0.625000 0.000000
vt 0.375000 0.510030
vt 0.125000 0.510030
vt 0.125000 0.750000
vt 0.364970 0.500000
vt 0.135030 0.500000
vt 0.375000 0.260030
vt 0.375000 0.489970
vt 0.625000 0.489970
vt 0.625000 0.260030
vt 0.625000 0.510030
vt 0.625000 0.750000
vt 0.875000 0.750000
vt 0.875000 0.510030
vt 0.864970 0.500000
vt 0.635030 0.500000
vt 0.375000 0.750000
vt 0.375000 1.000000
vt 0.625000 1.000000
vt 0.375000 0.000000
vt 0.375000 0.239970
vt 0.625000 0.239970
vt 0.625000 0.000000
vt 0.375000 0.510030
vt 0.125000 0.510030
vt 0.125000 0.750000
vt 0.364970 0.500000
vt 0.135030 0.500000
vt 0.375000 0.260030
vt 0.375000 0.489970
vt 0.625000 0.489970
vt 0.625000 0.260030
vt 0.625000 0.510030
vt 0.625000 0.750000
vt 0.875000 0.750000
vt 0.875000 0.510030
vt 0.864970 0.500000
vt 0.635030 0.500000
vt 0.375000 0.750000
vt 0.375000 1.000000
vt 0.625000 1.000000
vt 0.375000 0.000000
vt 0.375000 0.239970
vt 0.625000 0.239970
vt 0.625000 0.000000
vt 0.375000 0.510030
vt 0.125000 0.510030
vt 0.125000 0.750000
vt 0.364970 0.500000
vt 0.135030 0.500000
vt 0.375000 0.260030
vt 0.375000 0.489970
vt 0.625000 0.489970
vt 0.625000 0.260030
vt 0.625000 0.510030
vt 0.625000 0.750000
vt 0.875000 0.750000
vt 0.875000 0.510030
vt 0.864970 0.500000
vt 0.635030 0.500000
vt 0.375000 0.750000
vt 0.375000 1.000000
vt 0.625000 1.000000
vt 0.375000 0.000000
vt 0.375000 0.239970
vt 0.625000 0.239970
vt 0.625000 0.000000
vt 0.375000 0.510030
vt 0.125000 0.510030
vt 0.125000 0.750000
vt 0.364970 0.500000
vt 0.135030 0.500000
vt 0.375000 0.260030
vt 0.375000 0.489970
vt 0.625000 0.489970
vt 0.625000 0.260030
vt 0.625000 0.510030
vt 0.625000 0.750000
vt 0.875000 0.750000
vt 0.875000 0.510030
vt 0.864970 0.500000
vt 0.635030 0.500000
vt 0.375000 0.750000
vt 0.375000 1.000000
vt 0.625000 1.000000
vt 0.375000 0.000000
vt 0.375000 0.239970
vt 0.625000 0.239970
vt 0.625000 0.000000
vt 0.375000 0.510030
vt 0.125000 0.510030
vt 0.125000 0.750000
vt 0.364970 0.500000
vt 0.135030 0.500000
vt 0.375000 0.260030
vt 0.375000 0.489970
vt 0.625000 0.489970
vt 0.625000 0.260030
vt 0.625000 0.510030
vt 0.625000 0.750000
vt 0.875000 0.750000
vt 0.875000 0.510030
vt 0.864970 0.500000
vt 0.635030 0.500000
vt 0.375000 0.750000
vt 0.375000 1.000000
vt 0.625000 1.000000
vt 0.375000 0.000000
vt 0.375000 0.239970
vt 0.625000 0.239970
vt 0.625000 0.000000
vt 0.375000 0.510030
vt 0.125000 0.510030
vt 0.125000 0.750000
vt 0.364970 0.500000
vt 0.135030 0.500000
vn 0.0000 -0.0000 -1.0000
vn 0.0000 1.0000 0.0000
vn 0.0000 -0.0000 1.0000
vn 1.0000 -0.0000 0.0000
vn -1.0000 -0.0000 0.0000
vn 0.8882 -0.0000 -0.4595
vn -0.8314 -0.0000 -0.5557
vn 0.0000 -1.0000 -0.0000
s off
f 6/1/1 9/2/1 12/3/1 7/4/1
f 11/5/2 4/6/2 2/7/2 8/8/2 7/9/2 12/10/2
f 3/11/3 1/12/3 2/13/3 4/6/3
f 1/14/4 5/15/4 8/16/4 2/17/4
f 10/18/5 3/11/5 4/6/5 11/5/5
f 7/4/6 8/16/6 5/15/6 6/1/6
f 11/5/7 12/3/7 9/2/7 10/18/7
f 5/19/8 1/20/8 3/11/8 10/18/8 9/21/8 6/22/8
f 18/23/1 21/24/1 24/25/1 19/26/1
f 23/27/2 16/28/2 14/29/2 20/30/2 19/31/2 24/32/2
f 15/33/3 13/34/3 14/35/3 16/28/3
f 13/36/4 17/37/4 20/38/4 14/39/4
f 22/40/5 15/33/5 16/28/5 23/27/5
f 19/26/6 20/38/6 17/37/6 18/23/6
f 23/27/7 24/25/7 21/24/7 22/40/7
f 17/41/8 13/42/8 15/33/8 22/40/8 21/43/8 18/44/8
f 30/45/1 33/46/1 36/47/1 31/48/1
f 35/49/2 28/50/2 26/51/2 32/52/2 31/53/2 36/54/2
f 27/55/3 25/56/3 26/57/3 28/50/3
f 25/58/4 29/59/4 32/60/4 26/61/4
f 34/62/5 27/55/5 28/50/5 35/49/5
f 31/48/6 32/60/6 29/59/6 30/45/6
f 35/49/7 36/47/7 33/46/7 34/62/7
f 29/63/8 25/64/8 27/55/8 34/62/8 33/65/8 30/66/8
f 42/67/1 45/68/1 48/69/1 43/70/1
f 47/71/2 40/72/2 38/73/2 44/74/2 43/75/2 48/76/2
f 39/77/3 37/78/3 38/79/3 40/72/3
f 37/80/4 41/81/4 44/82/4 38/83/4
f 46/84/5 39/77/5 40/72/5 47/71/5
f 43/70/6 44/82/6 41/81/6 42/67/6
f 47/71/7 48/69/7 45/68/7 46/84/7
f 41/85/8 37/86/8 39/77/8 46/84/8 45/87/8 42/88/8
f 54/89/1 57/90/1 60/91/1 55/92/1
f 59/93/2 52/94/2 50/95/2 56/96/2 55/97/2 60/98/2
f 51/99/3 49/100/3 50/101/3 52/94/3
f 49/102/4 53/103/4 56/104/4 50/105/4
f 58/106/5 51/99/5 52/94/5 59/93/5
f 55/92/6 56/104/6 53/103/6 54/89/6
f 59/93/7 60/91/7 57/90/7 58/106/7
f 53/107/8 49/108/8 51/99/8 58/106/8 57/109/8 54/110/8
f 66/111/1 69/112/1 72/113/1 67/114/1
f 71/115/2 64/116/2 62/117/2 68/118/2 67/119/2 72/120/2
f 63/121/3 61/122/3 62/123/3 64/116/3
f 61/124/4 65/125/4 68/126/4 62/127/4
f 70/128/5 63/121/5 64/116/5 71/115/5
f 67/114/6 68/126/6 65/125/6 66/111/6
f 71/115/7 72/113/7 69/112/7 70/128/7
f 65/129/8 61/130/8 63/121/8 70/128/8 69/131/8 66/132/8
f 78/133/1 81/134/1 84/135/1 79/136/1
f 83/137/2 76/138/2 74/139/2 80/140/2 79/141/2 84/142/2
f 75/143/3 73/144/3 74/145/3 76/138/3
f 73/146/4 77/147/4 80/148/4 74/149/4
f 82/150/5 75/143/5 76/138/5 83/137/5
f 79/136/6 80/148/6 77/147/6 78/133/6
f 83/137/7 84/135/7 81/134/7 82/150/7
f 77/151/8 73/152/8 75/143/8 82/150/8 81/153/8 78/154/8
f 90/155/1 93/156/1 96/157/1 91/158/1
f 95/159/2 88/160/2 86/161/2 92/162/2 91/163/2 96/164/2
f 87/165/3 85/166/3 86/167/3 88/160/3
f 85/168/4 89/169/4 92/170/4 86/171/4
f 94/172/5 87/165/5 88/160/5 95/159/5
f 91/158/6 92/170/6 89/169/6 90/155/6
f 95/159/7 96/157/7 93/156/7 94/172/7
f 89/173/8 85/174/8 87/165/8 94/172/8 93/175/8 90/176/8
