# Blender v2.81 (sub 16) OBJ File: 'catgame.blend'
# www.blender.org
o Window_Cube.024
v -1.119954 -1.653018 0.084890
v -1.118806 1.445167 0.084890
v -0.989623 -1.425039 -0.084890
v -0.988849 1.262224 -0.084890
v 1.119954 -1.576585 0.084890
v 1.155280 1.670731 0.084890
v 0.981713 -1.346782 -0.084890
v 1.017686 1.477037 -0.084890
v 0.134617 -1.399818 -0.084890
v 0.147397 1.337047 -0.084890
v 0.000000 -1.629621 0.084890
v 0.009803 1.530741 0.084890
v -1.119954 0.000000 0.084890
v -0.989997 0.144636 -0.084890
v 0.912768 0.148500 -0.084890
v 1.050362 -0.006887 0.084890
v 0.000000 0.000000 0.084890
v 0.137594 0.155386 -0.084890
v -0.120154 1.347798 -0.084890
v 1.155280 1.670731 -0.084890
v 0.912121 -0.004720 -0.084890
v -0.129957 0.144636 -0.084890
v -1.118806 1.445167 -0.084890
v 0.009803 1.530741 -0.084890
v -0.989623 0.003991 -0.084890
v 0.134617 0.002167 -0.084890
v 1.050362 0.097907 -0.084890
v 1.119954 -1.576585 -0.084890
v -0.127651 -1.401642 -0.084890
v -0.127651 0.003991 -0.084890
v -1.119954 0.104793 -0.084890
v -1.119954 -1.653018 -0.084890
v 0.000000 -1.629621 -0.084890
v 0.000000 0.104793 -0.084890
v 0.161068 1.308173 0.007456
v 0.990061 1.450596 0.007456
v 0.873434 0.184597 0.007456
v 0.158257 0.180007 0.007456
v -0.975952 1.242156 0.007456
v -0.119429 1.323719 0.007456
v -0.968165 0.161317 0.007456
v -0.164428 0.182166 0.007456
v 0.892602 -0.028489 0.007456
v 0.949911 -1.329897 0.007456
v 0.155299 -1.376157 0.007456
v 0.156539 -0.028019 0.007456
v -0.976391 -0.046437 0.007456
v -0.967551 -1.402186 0.007456
v -0.169471 -1.401430 0.007456
v -0.140491 -0.033395 0.007456
vt 0.500000 0.000000
vt 0.625000 0.000000
vt 0.625000 0.250000
vt 0.500000 0.250000
vt 0.493756 0.256244
vt 0.493756 0.368756
vt 0.493756 0.368756
vt 0.493756 0.256244
vt 0.500000 0.500000
vt 0.625000 0.500000
vt 0.625000 0.750000
vt 0.500000 0.750000
vt 0.500000 0.875000
vt 0.625000 0.875000
vt 0.625000 1.000000
vt 0.500000 1.000000
vt 0.250000 0.500000
vt 0.375000 0.500000
vt 0.375000 0.750000
vt 0.250000 0.750000
vt 0.750000 0.500000
vt 0.875000 0.500000
vt 0.875000 0.750000
vt 0.750000 0.750000
vt 0.125000 0.500000
vt 0.125000 0.750000
vt 0.493611 0.381389
vt 0.493611 0.493611
vt 0.493611 0.493611
vt 0.493611 0.381389
vt 0.381244 0.368756
vt 0.381244 0.368756
vt 0.375000 0.875000
vt 0.375000 1.000000
vt 0.514505 0.360495
vt 0.514505 0.264505
vt 0.514505 0.264505
vt 0.514505 0.360495
vt 0.375000 0.000000
vt 0.375000 0.250000
vt 0.609643 0.484643
vt 0.609643 0.390357
vt 0.625000 0.375000
vt 0.515357 0.484643
vt 0.515357 0.390357
vt 0.500000 0.375000
vt 0.610495 0.360495
vt 0.610495 0.264505
vt 0.381389 0.493611
vt 0.381389 0.381389
vt 0.375000 0.375000
vt 0.381244 0.256244
vt 0.609643 0.484643
vt 0.609643 0.390357
vt 0.610495 0.360495
vt 0.610495 0.264505
vt 0.515357 0.484643
vt 0.381389 0.493611
vt 0.381244 0.256244
vt 0.515357 0.390357
vt 0.381389 0.381389
vn -1.0000 0.0008 0.0003
vn 0.0069 -0.9031 -0.4294
vn 0.9977 -0.0644 -0.0199
vn 0.0000 0.0000 1.0000
vn 0.0473 -0.9989 0.0000
vn -0.0756 0.9971 0.0000
vn -0.1213 0.9926 0.0000
vn 0.0209 -0.9998 0.0000
vn -0.0047 -0.9599 -0.2804
vn -0.9594 0.0100 -0.2819
vn 0.9990 0.0429 0.0132
vn -0.0120 0.9592 -0.2824
vn -1.0000 0.0000 0.0000
vn 0.0000 0.0000 -1.0000
vn 0.1577 -0.9492 -0.2724
vn 0.0937 -0.9667 -0.2380
vn -0.9358 0.0799 -0.3434
vn -0.9620 -0.0462 -0.2690
vn 0.9828 0.0030 -0.1847
vn 0.9823 0.0031 -0.1873
vn 0.9831 -0.0054 -0.1829
vn -0.0589 0.9743 -0.2174
vn -0.9832 0.0230 -0.1813
vn -0.0144 0.9920 -0.1254
vn 0.0015 0.9500 -0.3122
vn 0.9744 -0.0004 -0.2248
g Window_Cube.024_Material.030
s off
f 13/1/1 2/2/1 23/3/1 31/4/1
f 25/5/2 30/6/2 50/7/2 47/8/2
f 27/9/3 20/10/3 6/11/3 16/12/3
f 17/13/4 12/14/4 2/15/4 13/16/4
f 33/17/5 28/18/5 5/19/5 11/20/5
f 24/21/6 23/22/6 2/23/6 12/24/6
f 20/10/7 24/21/7 12/24/7 6/11/7
f 32/25/8 33/17/8 11/20/8 1/26/8
f 16/12/4 6/11/4 12/14/4 17/13/4
f 26/27/9 21/28/9 43/29/9 46/30/9
f 30/6/10 29/31/10 49/32/10 50/7/10
f 5/19/4 16/12/4 17/13/4 11/33/4
f 11/33/4 17/13/4 13/16/4 1/34/4
f 28/18/11 27/9/11 16/12/11 5/19/11
f 22/35/12 14/36/12 41/37/12 42/38/12
f 1/39/13 13/1/13 31/4/13 32/40/13
f 8/41/14 10/42/14 24/43/14 20/10/14
f 15/44/14 8/41/14 20/10/14 27/9/14
f 10/42/14 18/45/14 34/46/14 24/43/14
f 18/45/14 15/44/14 27/9/14 34/46/14
f 19/47/14 4/48/14 23/3/14 24/43/14
f 4/48/14 14/36/14 31/4/14 23/3/14
f 22/35/14 19/47/14 24/43/14 34/46/14
f 14/36/14 22/35/14 34/46/14 31/4/14
f 7/49/14 21/28/14 27/9/14 28/18/14
f 9/50/14 7/49/14 28/18/14 33/51/14
f 26/27/14 9/50/14 33/51/14 34/46/14
f 21/28/14 26/27/14 34/46/14 27/9/14
f 25/5/14 3/52/14 32/40/14 31/4/14
f 3/52/14 29/31/14 33/51/14 32/40/14
f 29/31/14 30/6/14 34/46/14 33/51/14
f 30/6/14 25/5/14 31/4/14 34/46/14
f 10/42/15 8/41/15 36/53/15 35/54/15
f 4/48/16 19/47/16 40/55/16 39/56/16
f 8/41/17 15/44/17 37/57/17 36/53/17
f 21/28/18 7/49/18 44/58/18 43/29/18
f 14/36/19 4/48/19 39/56/19 41/37/19
f 3/52/20 25/5/20 47/8/20 48/59/20
f 18/45/21 10/42/21 35/54/21 38/60/21
f 7/49/22 9/50/22 45/61/22 44/58/22
f 19/47/23 22/35/23 42/38/23 40/55/23
f 29/31/24 3/52/24 48/59/24 49/32/24
f 15/44/25 18/45/25 38/60/25 37/57/25
f 9/50/26 26/27/26 46/30/26 45/61/26
g Window_Cube.024_Material.031
f 38/60/14 35/54/14 36/53/14 37/57/14
f 41/37/14 39/56/14 40/55/14 42/38/14
f 48/59/14 47/8/14 50/7/14 49/32/14
f 45/61/14 46/30/14 43/29/14 44/58/14
