# Blender v2.81 (sub 16) OBJ File: 'catgame.blend'
# www.blender.org
o Cube.002_Cube.047
v -8.000000 0.010029 -0.363095
v -8.000000 6.327935 -0.363095
v -8.000000 0.010029 0.363095
v -8.000000 6.327935 0.363095
v 0.000000 0.010029 -0.363095
v 0.000000 6.327935 -0.363095
v 0.000000 0.010029 0.363095
v 0.000000 6.327935 0.363095
vt 0.375000 0.000000
vt 0.375000 0.250000
vt 0.625000 0.250000
vt 0.625000 0.000000
vt 0.375000 0.500000
vt 0.625000 0.500000
vt 0.375000 0.750000
vt 0.625000 0.750000
vt 0.375000 1.000000
vt 0.625000 1.000000
vt 0.125000 0.500000
vt 0.125000 0.750000
vt 0.875000 0.750000
vt 0.875000 0.500000
vn -1.0000 0.0000 0.0000
vn 0.0000 0.0000 1.0000
vn 1.0000 0.0000 0.0000
vn 0.0000 0.0000 -1.0000
vn 0.0000 -1.0000 0.0000
vn 0.0000 1.0000 0.0000
s off
f 1/1/1 3/2/1 4/3/1 2/4/1
f 3/2/2 7/5/2 8/6/2 4/3/2
f 7/5/3 5/7/3 6/8/3 8/6/3
f 5/7/4 1/9/4 2/10/4 6/8/4
f 3/11/5 1/12/5 5/7/5 7/5/5
f 8/6/6 6/8/6 2/13/6 4/14/6
o Cube.003_Cube.049
v -8.000000 0.011035 -0.349718
v -8.000000 0.367336 -0.349718
v -8.000000 0.011035 -0.413084
v -8.000000 0.367336 -0.374085
v 0.000000 0.011035 -0.349718
v 0.000000 0.367336 -0.349718
v 0.000000 0.011035 -0.413084
v 0.000000 0.367336 -0.374085
v -8.000000 0.189186 -0.349718
v -8.000000 0.189186 -0.401163
v 0.000000 0.189186 -0.401163
v 0.000000 0.189186 -0.349718
v -8.000000 0.100110 -0.387520
v 0.000000 0.100110 -0.387520
v 0.000000 0.100110 -0.349718
v -8.000000 0.100110 -0.349718
vt 0.500000 0.000000
vt 0.625000 0.000000
vt 0.625000 0.250000
vt 0.500000 0.250000
vt 0.625000 0.500000
vt 0.500000 0.500000
vt 0.625000 0.750000
vt 0.500000 0.750000
vt 0.625000 1.000000
vt 0.500000 1.000000
vt 0.125000 0.500000
vt 0.375000 0.500000
vt 0.375000 0.750000
vt 0.125000 0.750000
vt 0.875000 0.500000
vt 0.875000 0.750000
vt 0.437500 0.750000
vt 0.437500 1.000000
vt 0.437500 0.500000
vt 0.437500 0.250000
vt 0.437500 0.000000
vt 0.375000 0.000000
vt 0.375000 0.250000
vt 0.375000 1.000000
vn -1.0000 0.0000 0.0000
vn 0.0000 0.1503 -0.9886
vn 1.0000 0.0000 0.0000
vn 0.0000 0.0000 1.0000
vn 0.0000 -1.0000 0.0000
vn 0.0000 1.0000 0.0000
vn 0.0000 -0.1514 -0.9885
vn 0.0000 0.2759 -0.9612
s off
f 17/15/7 10/16/7 12/17/7 18/18/7
f 18/18/8 12/17/8 16/19/8 19/20/8
f 19/20/9 16/19/9 14/21/9 20/22/9
f 20/22/10 14/21/10 10/23/10 17/24/10
f 11/25/11 15/26/11 13/27/11 9/28/11
f 16/19/12 12/29/12 10/30/12 14/21/12
f 23/31/10 20/22/10 17/24/10 24/32/10
f 22/33/9 19/20/9 20/22/9 23/31/9
f 21/34/13 18/18/13 19/20/13 22/33/13
f 24/35/7 17/15/7 18/18/7 21/34/7
f 9/36/7 24/35/7 21/34/7 11/37/7
f 11/37/14 21/34/14 22/33/14 15/26/14
f 15/26/9 22/33/9 23/31/9 13/27/9
f 13/27/10 23/31/10 24/32/10 9/38/10
